<?xml version="1.0" encoding="utf-8"?>
<!-- Generator: Adobe Illustrator 22.0.1, SVG Export Plug-In . SVG Version: 6.00 Build 0)  -->
<svg version="1.1" id="Layer_1" xmlns="http://www.w3.org/2000/svg" xmlns:xlink="http://www.w3.org/1999/xlink" x="0px" y="0px"
	 viewBox="0 0 1366 768" style="enable-background:new 0 0 1366 768;" xml:space="preserve">
<style type="text/css">
	.st0{enable-background:new    ;}
	.st1{fill:#9E0793;}
	.st2{clip-path:url(#SVGID_2_);enable-background:new    ;}
	.st3{fill:#7B0B0B;}
	.st4{clip-path:url(#SVGID_4_);enable-background:new    ;}
	.st5{clip-path:url(#SVGID_6_);enable-background:new    ;}
	.st6{clip-path:url(#SVGID_8_);enable-background:new    ;}
	.st7{fill:#7E0576;}
	.st8{fill:#9A0E0E;}
	.st9{fill:#8B0681;}
	.st10{fill:#790B0B;}
	.st11{fill:#8A0681;}
	.st12{fill:#7C0573;}
	.st13{clip-path:url(#SVGID_10_);enable-background:new    ;}
	.st14{fill:#83057A;}
	.st15{fill:#A00795;}
	.st16{fill:#7B0573;}
	.st17{fill:#DB09CC;}
	.st18{fill:#D61313;}
	.st19{fill:#880C0C;}
	.st20{fill:#8B0682;}
	.st21{clip-path:url(#SVGID_12_);enable-background:new    ;}
	.st22{fill:#890C0C;}
	.st23{fill:#850C0C;}
	.st24{fill:#800B0B;}
	.st25{clip-path:url(#SVGID_14_);enable-background:new    ;}
	.st26{fill:#8E0D0D;}
	.st27{clip-path:url(#SVGID_16_);enable-background:new    ;}
	.st28{clip-path:url(#SVGID_18_);enable-background:new    ;}
	.st29{fill:#930D0D;}
	.st30{clip-path:url(#SVGID_20_);enable-background:new    ;}
	.st31{fill:#980D0D;}
	.st32{clip-path:url(#SVGID_22_);enable-background:new    ;}
	.st33{clip-path:url(#SVGID_24_);enable-background:new    ;}
	.st34{fill:#96068C;}
	.st35{fill:#9B0691;}
	.st36{fill:#910688;}
	.st37{fill:#8C0683;}
	.st38{clip-path:url(#SVGID_26_);enable-background:new    ;}
	.st39{clip-path:url(#SVGID_28_);enable-background:new    ;}
	.st40{clip-path:url(#SVGID_30_);enable-background:new    ;}
	.st41{clip-path:url(#SVGID_32_);enable-background:new    ;}
	.st42{clip-path:url(#SVGID_34_);enable-background:new    ;}
	.st43{fill:#88067F;}
	.st44{clip-path:url(#SVGID_36_);enable-background:new    ;}
	.st45{clip-path:url(#SVGID_38_);enable-background:new    ;}
	.st46{clip-path:url(#SVGID_40_);enable-background:new    ;}
	.st47{clip-path:url(#SVGID_42_);enable-background:new    ;}
	.st48{fill:#800578;}
	.st49{clip-path:url(#SVGID_44_);enable-background:new    ;}
	.st50{clip-path:url(#SVGID_46_);enable-background:new    ;}
	.st51{clip-path:url(#SVGID_48_);enable-background:new    ;}
	.st52{clip-path:url(#SVGID_50_);enable-background:new    ;}
	.st53{clip-path:url(#SVGID_52_);enable-background:new    ;}
	.st54{clip-path:url(#SVGID_54_);enable-background:new    ;}
	.st55{clip-path:url(#SVGID_56_);enable-background:new    ;}
	.st56{clip-path:url(#SVGID_58_);enable-background:new    ;}
	.st57{clip-path:url(#SVGID_60_);enable-background:new    ;}
	.st58{clip-path:url(#SVGID_62_);enable-background:new    ;}
	.st59{clip-path:url(#SVGID_64_);enable-background:new    ;}
	.st60{clip-path:url(#SVGID_66_);enable-background:new    ;}
	.st61{clip-path:url(#SVGID_68_);enable-background:new    ;}
	.st62{clip-path:url(#SVGID_70_);enable-background:new    ;}
	.st63{clip-path:url(#SVGID_72_);enable-background:new    ;}
	.st64{fill:#820579;}
	.st65{fill:#7F0B0B;}
	.st66{fill:#930689;}
	.st67{fill:#900D0D;}
</style>
<g>
	<g>
		<g class="st0">
			<g>
				<polygon class="st1" points="383.4,665.3 355.7,657.8 395.4,652.1 423.1,659.6 				"/>
			</g>
			<g class="st0">
				<defs>
					<path id="SVGID_1_" class="st0" d="M342.5,604.3c9.2,2.5,18.4,5,27.7,7.5c3.7,15.1,8.2,32.9,13.2,53.5l-27.7-7.5
						C350.6,637.3,346.2,619.5,342.5,604.3z"/>
				</defs>
				<clipPath id="SVGID_2_">
					<use xlink:href="#SVGID_1_"  style="overflow:visible;"/>
				</clipPath>
				<g class="st2">
					<path class="st3" d="M383.4,665.3l-27.7-7.5c-6.7-27.1-12.3-49.4-16.6-67.1c-4.4-17.8-10-40.2-16.7-67.5l27.7,7.5
						c6.8,27.2,12.3,49.7,16.7,67.5C371.1,615.8,376.7,638.2,383.4,665.3"/>
				</g>
			</g>
			<g class="st0">
				<defs>
					<path id="SVGID_3_" class="st0" d="M338.2,586.9c9.2,2.5,18.4,5,27.7,7.5c0.3,1.3,0.6,2.5,0.9,3.7c1.1,4.3,2.2,8.8,3.4,13.7
						c-0.7-0.2-1.7-0.5-2.4-0.7c-0.8-0.2-1.8-0.5-2.6-0.7c-0.8-0.2-1.9-0.5-2.7-0.7c-0.8-0.2-1.9-0.5-2.7-0.7
						c-0.8-0.2-1.9-0.5-2.7-0.7c-0.8-0.2-1.9-0.5-2.7-0.7c-0.8-0.2-1.8-0.5-2.6-0.7c-0.7-0.2-1.7-0.5-2.5-0.7
						c-0.2-0.1-0.5-0.1-0.8-0.2c-0.2-0.1-0.6-0.2-0.8-0.2c-0.3-0.1-0.6-0.2-0.9-0.2c-0.3-0.1-0.6-0.2-0.9-0.2
						c-0.3-0.1-0.6-0.2-0.9-0.2c-0.3-0.1-0.6-0.2-0.9-0.2c-0.2-0.1-0.6-0.2-0.8-0.2c-0.2-0.1-0.6-0.1-0.8-0.2
						c-1.2-4.8-2.3-9.4-3.4-13.7C338.8,589.5,338.5,588.2,338.2,586.9z"/>
				</defs>
				<clipPath id="SVGID_4_">
					<use xlink:href="#SVGID_3_"  style="overflow:visible;"/>
				</clipPath>
				<g class="st4">
					<path class="st3" d="M383.4,665.3l-27.7-7.5c-6.7-27.1-12.3-49.4-16.6-67.1c-4.4-17.8-10-40.2-16.7-67.5l27.7,7.5
						c6.8,27.2,12.3,49.7,16.7,67.5C371.1,615.8,376.7,638.2,383.4,665.3"/>
				</g>
			</g>
			<g class="st0">
				<defs>
					<path id="SVGID_5_" class="st0" d="M338.2,586.9c-4.2-17.1-9.5-38.4-15.8-63.7l27.7,7.5c6.3,25.3,11.6,46.6,15.8,63.7
						c-0.9-0.2-2.1-0.6-3-0.8c-1-0.3-2.2-0.6-3.2-0.9c-1-0.3-2.3-0.6-3.3-0.9c-1-0.3-2.4-0.6-3.4-0.9c-1-0.3-2.4-0.6-3.4-0.9
						c-1-0.3-2.3-0.6-3.3-0.9c-1-0.3-2.2-0.6-3.2-0.9c-0.9-0.2-2.1-0.6-3-0.8c-0.1,0-0.2,0-0.2-0.1c-0.1,0-0.2,0-0.2-0.1
						c-0.1,0-0.2,0-0.2-0.1c-0.1,0-0.2,0-0.3-0.1c-0.1,0-0.2,0-0.3-0.1c-0.1,0-0.2,0-0.2-0.1c-0.1,0-0.2,0-0.2-0.1
						C338.3,587,338.2,587,338.2,586.9z"/>
				</defs>
				<clipPath id="SVGID_6_">
					<use xlink:href="#SVGID_5_"  style="overflow:visible;"/>
				</clipPath>
				<g class="st5">
					<path class="st3" d="M383.4,665.3l-27.7-7.5c-6.7-27.1-12.3-49.4-16.6-67.1c-4.4-17.8-10-40.2-16.7-67.5l27.7,7.5
						c6.8,27.2,12.3,49.7,16.7,67.5C371.1,615.8,376.7,638.2,383.4,665.3"/>
				</g>
			</g>
			<g class="st0">
				<defs>
					<path id="SVGID_7_" class="st0" d="M382.8,666.3l-27.7-7.5c-6.9-27.6-12.4-50.1-16.8-67.8c-4.4-17.7-9.9-40-16.6-67.1l27.7,7.5
						c6.7,27.1,12.3,49.4,16.6,67.1C370.3,616.3,375.9,638.8,382.8,666.3z"/>
				</defs>
				<clipPath id="SVGID_8_">
					<use xlink:href="#SVGID_7_"  style="overflow:visible;"/>
				</clipPath>
				<g class="st6">
					<path class="st7" d="M382.8,666.3l-27.7-7.5c-6.9-27.6-12.4-50.1-16.8-67.8c-4.4-17.7-9.9-40-16.6-67.1l27.7,7.5
						c6.7,27.1,12.3,49.4,16.6,67.1C370.3,616.3,375.9,638.8,382.8,666.3"/>
				</g>
			</g>
			<g>
				<polygon class="st8" points="337.4,481.4 309.8,473.9 310.3,473.8 338,481.3 				"/>
			</g>
			<g>
				<polygon class="st9" points="197.3,691.8 169.6,684.3 198.4,540.5 226.1,548 				"/>
			</g>
			<g>
				<polygon class="st1" points="226.1,548 198.4,540.5 322.3,522.9 350,530.3 				"/>
			</g>
			<g>
				<polygon class="st8" points="236.4,495.7 208.8,488.3 309.8,473.9 337.4,481.4 				"/>
			</g>
			<g>
				<polygon class="st10" points="338,481.3 310.3,473.8 258,262.4 285.7,269.9 				"/>
			</g>
			<g>
				<polygon class="st1" points="237.5,494.6 209.8,487.1 309.2,473 336.9,480.5 				"/>
			</g>
			<g>
				<polygon class="st11" points="236.4,495.7 208.8,488.3 208.9,487.6 236.6,495.1 				"/>
			</g>
			<g>
				<polygon class="st12" points="336.9,480.5 309.2,473 257.4,263.5 285,271 				"/>
			</g>
			<g class="st0">
				<defs>
					<path id="SVGID_9_" class="st0" d="M236.6,495.1l-27.7-7.5c6-29.8,11.4-56.3,15.8-78.7c4.4-22.3,8.9-44.6,13.3-66.8
						c4.4-22.1,9.7-48.6,15.8-78.7l27.7,7.5c-6.1,30.1-11.4,56.6-15.8,78.7c-4.4,22.3-8.9,44.6-13.3,66.8
						C247.9,438.8,242.6,465.3,236.6,495.1z"/>
				</defs>
				<clipPath id="SVGID_10_">
					<use xlink:href="#SVGID_9_"  style="overflow:visible;"/>
				</clipPath>
				<g class="st13">
					<path class="st14" d="M236.6,495.1l-27.7-7.5c6-29.8,11.4-56.3,15.8-78.7c4.4-22.3,8.9-44.6,13.3-66.8
						c4.4-22.1,9.7-48.6,15.8-78.7l27.7,7.5c-6.1,30.1-11.4,56.6-15.8,78.7c-4.4,22.3-8.9,44.6-13.3,66.8
						C247.9,438.8,242.6,465.3,236.6,495.1"/>
				</g>
			</g>
			<g>
				<polygon class="st15" points="281.5,270.9 253.8,263.4 258,262.4 285.7,269.9 				"/>
			</g>
			<g>
				<polygon class="st16" points="423.1,659.6 395.4,652.1 273.5,182.4 301.1,189.9 				"/>
			</g>
			<g>
				<polygon class="st1" points="157.6,697.4 129.9,689.9 169.6,684.3 197.3,691.8 				"/>
			</g>
			<g>
				<polygon class="st8" points="263.6,195.2 235.9,187.8 273.5,182.4 301.1,189.9 				"/>
			</g>
			<g>
				<path class="st17" d="M301.8,188.8l122.4,471.6l-41.4,5.9c-6.9-27.6-12.4-50.1-16.8-67.8c-4.4-17.7-9.9-40-16.6-67.1
					l-122.6,17.5l-28.8,143.8l-41.4,5.9l106.4-504.2L301.8,188.8z M366.8,598.2c4.4,17.7,9.9,40,16.6,67.1l39.7-5.7l-122-469.7
					l-37.6,5.4l-106,502.2l39.7-5.7L226.1,548L350,530.3C356.8,557.9,362.4,580.4,366.8,598.2"/>
			</g>
			<g>
				<path class="st17" d="M281.5,270.9l4.2-1L338,481.3l-0.5,0.1l-101,14.4l0.1-0.6c6-29.8,11.4-56.3,15.8-78.7
					c4.4-22.3,8.9-44.6,13.3-66.8C270.1,327.5,275.4,301,281.5,270.9z M237.5,494.6l99.4-14.1L285,271l-2.8,0.4
					c-6.1,30-11.4,56.3-15.7,78.3c-4.4,22.3-8.9,44.6-13.3,66.8C248.7,438.8,243.5,465,237.5,494.6"/>
			</g>
			<g>
				<path class="st18" d="M301.1,189.9l122,469.7l-39.7,5.7c-6.7-27.1-12.3-49.4-16.6-67.1c-4.4-17.8-10-40.2-16.7-67.5l-123.6,17.2
					l-29.2,143.8l-39.7,5.7l106-502.2L301.1,189.9z M337.4,481.4l0.5-0.1l-52.3-211.4l-4.1,0.6c-6.2,30.5-11.5,57-15.9,79.1
					c-4.4,22.3-8.9,44.6-13.3,66.8c-4.5,22.4-9.8,48.9-15.8,78.7l-0.1,0.6L337.4,481.4"/>
			</g>
			<g>
				<polygon class="st19" points="157.6,697.4 129.9,689.9 235.9,187.8 263.6,195.2 				"/>
			</g>
			<g>
				<polygon class="st1" points="262.9,194.4 235.2,186.9 274.1,181.3 301.8,188.8 				"/>
			</g>
			<g>
				<polygon class="st20" points="156.5,698.6 128.8,691.1 235.2,186.9 262.9,194.4 				"/>
			</g>
		</g>
		<g class="st0">
			<g class="st0">
				<defs>
					<path id="SVGID_11_" class="st0" d="M722.3,477.2c9.2,2.5,18.4,5,27.7,7.5c-1,22.1-6.3,40.3-15.7,54.2
						c-0.7-0.2-1.6-0.4-2.3-0.6c-0.7-0.2-1.7-0.5-2.5-0.7c-0.8-0.2-1.8-0.5-2.5-0.7c-0.8-0.2-1.8-0.5-2.6-0.7
						c-0.8-0.2-1.8-0.5-2.6-0.7c-0.8-0.2-1.8-0.5-2.5-0.7c-0.7-0.2-1.7-0.5-2.5-0.7c-0.7-0.2-1.6-0.4-2.3-0.6
						c-0.3-0.1-0.6-0.2-0.9-0.2c-0.3-0.1-0.7-0.2-1-0.3c-0.3-0.1-0.7-0.2-1-0.3c-0.3-0.1-0.7-0.2-1-0.3c-0.3-0.1-0.7-0.2-1-0.3
						c-0.3-0.1-0.7-0.2-1-0.3c-0.3-0.1-0.7-0.2-1-0.3c-0.3-0.1-0.6-0.2-0.9-0.3C716,517.4,721.3,499.2,722.3,477.2z"/>
				</defs>
				<clipPath id="SVGID_12_">
					<use xlink:href="#SVGID_11_"  style="overflow:visible;"/>
				</clipPath>
				<g class="st21">
					<path class="st22" d="M733.8,539.5l-27.7-7.5c2-2.9,3.9-6,5.5-9.3l27.7,7.5C737.6,533.5,735.8,536.6,733.8,539.5"/>
					<path class="st23" d="M739.3,530.2l-27.7-7.5c1.8-3.6,3.3-7.3,4.7-11.3l27.7,7.5C742.6,522.9,741.1,526.7,739.3,530.2"/>
					<path class="st24" d="M744,518.9l-27.7-7.5c1.8-5.3,3.2-10.9,4.2-16.9l27.7,7.5C747.2,508,745.8,513.7,744,518.9"/>
					<path class="st3" d="M748.2,502l-27.7-7.5c1.5-8.7,2.1-18.2,2-28.5c-0.2-14-2-26.3-5.3-36.5c-3.3-10.2-8.2-18.5-14.6-24.8
						c-6-5.9-13.4-10-22.1-12.4l27.7,7.5c8.7,2.4,16.1,6.5,22.1,12.4c6.4,6.3,11.3,14.6,14.6,24.8c3.3,10.2,5.1,22.4,5.3,36.5
						C750.3,483.8,749.6,493.3,748.2,502"/>
				</g>
			</g>
			<g class="st0">
				<defs>
					<path id="SVGID_13_" class="st0" d="M706.6,531.4c9.2,2.5,18.4,5,27.7,7.5c-0.4,0.6-0.8,1.2-1.2,1.7l-27.7-7.5
						C705.8,532.5,706.2,531.9,706.6,531.4z"/>
				</defs>
				<clipPath id="SVGID_14_">
					<use xlink:href="#SVGID_13_"  style="overflow:visible;"/>
				</clipPath>
				<g class="st25">
					<path class="st26" d="M733,540.6l-27.7-7.5c0.2-0.3,0.5-0.7,0.7-1l27.7,7.5C733.5,539.9,733.3,540.2,733,540.6"/>
					<path class="st22" d="M733.8,539.5l-27.7-7.5c2-2.9,3.9-6,5.5-9.3l27.7,7.5C737.6,533.5,735.8,536.6,733.8,539.5"/>
				</g>
			</g>
			<g class="st0">
				<defs>
					<path id="SVGID_15_" class="st0" d="M722.5,466.1c-0.2-10.5-1.2-20.1-3.1-28.5c9.2,2.5,18.4,5,27.7,7.5
						c1.9,8.4,3,17.9,3.1,28.5c0.1,3.8,0,7.5-0.2,11.1c-0.9-0.2-2.1-0.6-3-0.8c-0.9-0.3-2.2-0.6-3.2-0.9c-1-0.3-2.3-0.6-3.3-0.9
						c-1-0.3-2.3-0.6-3.3-0.9c-1-0.3-2.3-0.6-3.3-0.9c-1-0.3-2.3-0.6-3.3-0.9c-0.9-0.3-2.2-0.6-3.2-0.9c-0.9-0.2-2.1-0.6-3-0.8
						c-0.1,0-0.2,0-0.3-0.1c-0.1,0-0.2-0.1-0.3-0.1c-0.1,0-0.2-0.1-0.3-0.1c-0.1,0-0.2-0.1-0.3-0.1s-0.2-0.1-0.3-0.1
						c-0.1,0-0.2-0.1-0.3-0.1c-0.1,0-0.2-0.1-0.3-0.1c-0.1,0-0.2,0-0.3-0.1C722.5,473.6,722.5,469.9,722.5,466.1z"/>
				</defs>
				<clipPath id="SVGID_16_">
					<use xlink:href="#SVGID_15_"  style="overflow:visible;"/>
				</clipPath>
				<g class="st27">
					<path class="st3" d="M748.2,502l-27.7-7.5c1.5-8.7,2.1-18.2,2-28.5c-0.2-14-2-26.3-5.3-36.5c-3.3-10.2-8.2-18.5-14.6-24.8
						c-6-5.9-13.4-10-22.1-12.4l27.7,7.5c8.7,2.4,16.1,6.5,22.1,12.4c6.4,6.3,11.3,14.6,14.6,24.8c3.3,10.2,5.1,22.4,5.3,36.5
						C750.3,483.8,749.6,493.3,748.2,502"/>
				</g>
			</g>
			<g class="st0">
				<defs>
					<path id="SVGID_17_" class="st0" d="M688.2,549.7c0.6-0.4,1.1-0.8,1.7-1.2c9.2,2.5,18.4,5,27.7,7.5c-0.5,0.4-1.1,0.8-1.7,1.2
						c-0.8-0.2-1.8-0.5-2.6-0.7c-0.8-0.2-1.9-0.5-2.8-0.8c-0.9-0.2-2-0.5-2.9-0.8c-0.9-0.2-2.1-0.6-2.9-0.8
						c-0.9-0.2-2.1-0.6-2.9-0.8c-0.9-0.2-2-0.5-2.9-0.8c-0.8-0.2-1.9-0.5-2.8-0.8c-0.8-0.2-1.8-0.5-2.6-0.7c-0.2,0-0.4-0.1-0.6-0.2
						c-0.2-0.1-0.5-0.1-0.6-0.2c-0.2-0.1-0.5-0.1-0.7-0.2c-0.2-0.1-0.5-0.1-0.7-0.2c-0.2-0.1-0.5-0.1-0.7-0.2
						c-0.2-0.1-0.5-0.1-0.7-0.2c-0.2-0.1-0.5-0.1-0.7-0.2C688.6,549.9,688.4,549.8,688.2,549.7z"/>
				</defs>
				<clipPath id="SVGID_18_">
					<use xlink:href="#SVGID_17_"  style="overflow:visible;"/>
				</clipPath>
				<g class="st28">
					<path class="st29" d="M708.9,561.4l-27.7-7.5c6.6-3.4,12.4-7.7,17.4-12.8l27.7,7.5C721.3,553.7,715.5,558,708.9,561.4"/>
				</g>
			</g>
			<g class="st0">
				<defs>
					<path id="SVGID_19_" class="st0" d="M688.2,549.7c9.2,2.5,18.4,5,27.7,7.5c-3.2,2.1-6.5,4-10.1,5.7c-1-0.3-2.3-0.6-3.2-0.9
						c-1-0.3-2.4-0.6-3.4-0.9c-1.1-0.3-2.5-0.7-3.6-1c-1.1-0.3-2.5-0.7-3.6-1c-1.1-0.3-2.5-0.7-3.6-1c-1.1-0.3-2.5-0.7-3.6-1
						c-1-0.3-2.4-0.6-3.4-0.9c-1-0.3-2.3-0.6-3.2-0.9C681.7,553.8,685,551.9,688.2,549.7z"/>
				</defs>
				<clipPath id="SVGID_20_">
					<use xlink:href="#SVGID_19_"  style="overflow:visible;"/>
				</clipPath>
				<g class="st30">
					<path class="st31" d="M690.2,568.3l-27.7-7.5c6.8-1.7,13-4,18.7-6.9l27.7,7.5C703.2,564.3,697,566.7,690.2,568.3"/>
					<path class="st29" d="M708.9,561.4l-27.7-7.5c6.6-3.4,12.4-7.7,17.4-12.8l27.7,7.5C721.3,553.7,715.5,558,708.9,561.4"/>
				</g>
			</g>
			<g class="st0">
				<defs>
					<path id="SVGID_21_" class="st0" d="M678,555.5c0,0,0.1,0,0.1,0c9.2,2.5,18.4,5,27.7,7.5c0,0-0.1,0-0.1,0
						c-0.8-0.2-1.9-0.5-2.7-0.7c-0.9-0.2-2-0.5-2.9-0.8c-0.9-0.2-2.1-0.6-3-0.8c-0.9-0.2-2.1-0.6-3.1-0.8c-0.9-0.2-2.1-0.6-3.1-0.8
						c-0.9-0.2-2.1-0.6-3-0.8c-0.9-0.2-2-0.5-2.9-0.8c-0.8-0.2-1.9-0.5-2.7-0.7c-0.2,0-0.4-0.1-0.5-0.1c-0.2,0-0.4-0.1-0.5-0.1
						c-0.2,0-0.4-0.1-0.6-0.2c-0.2,0-0.4-0.1-0.6-0.2c-0.2,0-0.4-0.1-0.6-0.2c-0.2,0-0.4-0.1-0.6-0.2c-0.2,0-0.4-0.1-0.5-0.1
						C678.4,555.6,678.1,555.5,678,555.5z"/>
				</defs>
				<clipPath id="SVGID_22_">
					<use xlink:href="#SVGID_21_"  style="overflow:visible;"/>
				</clipPath>
				<g class="st32">
					<path class="st31" d="M690.2,568.3l-27.7-7.5c6.8-1.7,13-4,18.7-6.9l27.7,7.5C703.2,564.3,697,566.7,690.2,568.3"/>
				</g>
			</g>
			<g class="st0">
				<defs>
					<path id="SVGID_23_" class="st0" d="M686.7,622.1l-27.7-7.5c32.9-4.8,58.4-20.6,76.3-47.1L763,575
						C745.1,601.5,719.7,617.3,686.7,622.1z"/>
				</defs>
				<clipPath id="SVGID_24_">
					<use xlink:href="#SVGID_23_"  style="overflow:visible;"/>
				</clipPath>
				<g class="st33">
					<path class="st34" d="M686.7,622.1l-27.7-7.5c4.2-0.6,8.3-1.4,12.3-2.4l27.7,7.5C695,620.7,690.9,621.5,686.7,622.1"/>
					<path class="st35" d="M699,619.7l-27.7-7.5c8.9-2.2,17.2-5.3,24.9-9.3l27.7,7.5C716.2,614.4,707.9,617.5,699,619.7"/>
					<path class="st34" d="M723.9,610.5l-27.7-7.5c9.7-5,18.3-11.4,26-19.3l27.7,7.5C742.2,599,733.5,605.4,723.9,610.5"/>
					<path class="st36" d="M749.9,591.2l-27.7-7.5c4.4-4.5,8.5-9.4,12.3-14.9l27.7,7.5C758.4,581.7,754.3,586.7,749.9,591.2"/>
					<path class="st37" d="M762.1,576.3l-27.7-7.5c0.3-0.4,0.6-0.9,0.9-1.3L763,575C762.7,575.5,762.4,575.9,762.1,576.3"/>
				</g>
			</g>
			<g class="st0">
				<defs>
					<path id="SVGID_25_" class="st0" d="M678,555.5c0.2,0,0.4,0.1,0.5,0.1c0.6,0.1,1.1,0.3,1.7,0.4c0.4,0.1,0.7,0.2,1.1,0.3
						c0.2,0,0.4,0.1,0.5,0.1c0.2,0,0.4,0.1,0.5,0.1c7.8,2.1,15.6,4.2,23.3,6.3c-5.3,2.4-11,4.4-17.2,5.7c-1-0.3-2.3-0.6-3.2-0.9
						c-1-0.3-2.4-0.6-3.4-0.9c-1.1-0.3-2.5-0.7-3.6-1c-1.1-0.3-2.5-0.7-3.6-1c-1.1-0.3-2.5-0.7-3.6-1c-1.1-0.3-2.5-0.7-3.6-1
						c-1-0.3-2.4-0.6-3.4-0.9c-1-0.3-2.3-0.6-3.2-0.9C667,559.8,672.7,557.9,678,555.5z"/>
				</defs>
				<clipPath id="SVGID_26_">
					<use xlink:href="#SVGID_25_"  style="overflow:visible;"/>
				</clipPath>
				<g class="st38">
					<path class="st29" d="M680.1,570.3l-27.7-7.5c0.2,0,0.3,0,0.5-0.1c3.3-0.5,6.5-1.1,9.6-1.9l27.7,7.5c-3.1,0.8-6.3,1.4-9.6,1.9
						C680.4,570.2,680.2,570.2,680.1,570.3"/>
					<path class="st31" d="M690.2,568.3l-27.7-7.5c6.8-1.7,13-4,18.7-6.9l27.7,7.5C703.2,564.3,697,566.7,690.2,568.3"/>
				</g>
			</g>
			<g class="st0">
				<defs>
					<path id="SVGID_27_" class="st0" d="M660.6,561.3c0.1,0,0.1,0,0.2,0c9.2,2.5,18.4,5,27.7,7.5c-0.1,0-0.1,0-0.2,0
						c-0.7-0.2-1.7-0.5-2.5-0.7c-0.8-0.2-1.8-0.5-2.6-0.7c-0.8-0.2-1.9-0.5-2.7-0.7c-0.8-0.2-1.9-0.5-2.8-0.8
						c-0.8-0.2-1.9-0.5-2.8-0.8c-0.8-0.2-1.9-0.5-2.7-0.7c-0.8-0.2-1.8-0.5-2.6-0.7c-0.7-0.2-1.7-0.5-2.5-0.7
						c-0.2-0.1-0.5-0.1-0.7-0.2c-0.2-0.1-0.6-0.1-0.8-0.2c-0.2-0.1-0.6-0.2-0.8-0.2c-0.3-0.1-0.6-0.2-0.8-0.2
						c-0.3-0.1-0.6-0.2-0.8-0.2c-0.2-0.1-0.6-0.2-0.8-0.2c-0.2-0.1-0.6-0.2-0.8-0.2C661.2,561.4,660.9,561.3,660.6,561.3z"/>
				</defs>
				<clipPath id="SVGID_28_">
					<use xlink:href="#SVGID_27_"  style="overflow:visible;"/>
				</clipPath>
				<g class="st39">
					<path class="st29" d="M680.1,570.3l-27.7-7.5c0.2,0,0.3,0,0.5-0.1c3.3-0.5,6.5-1.1,9.6-1.9l27.7,7.5c-3.1,0.8-6.3,1.4-9.6,1.9
						C680.4,570.2,680.2,570.2,680.1,570.3"/>
				</g>
			</g>
			<g class="st0">
				<defs>
					<path id="SVGID_29_" class="st0" d="M660.6,561.3c0.2,0,0.5,0.1,0.8,0.2c0.4,0.1,0.8,0.2,1.2,0.3c0.3,0.1,0.6,0.2,0.8,0.2
						c0.1,0,0.3,0.1,0.4,0.1c1.1,0.3,2.1,0.6,3.2,0.9c7.1,1.9,14.2,3.8,21.3,5.8c-2.5,0.6-5.1,1-7.8,1.4c-0.2,0-0.3,0-0.5,0.1
						l-27.7-7.5c0.2,0,0.3,0,0.5-0.1C655.5,562.3,658.1,561.8,660.6,561.3z"/>
				</defs>
				<clipPath id="SVGID_30_">
					<use xlink:href="#SVGID_29_"  style="overflow:visible;"/>
				</clipPath>
				<g class="st40">
					<path class="st29" d="M680.1,570.3l-27.7-7.5c0.2,0,0.3,0,0.5-0.1c3.3-0.5,6.5-1.1,9.6-1.9l27.7,7.5c-3.1,0.8-6.3,1.4-9.6,1.9
						C680.4,570.2,680.2,570.2,680.1,570.3"/>
				</g>
			</g>
			<g class="st0">
				<defs>
					<path id="SVGID_31_" class="st0" d="M680.1,569.3l-27.7-7.5c0.2,0,0.3,0,0.5-0.1c22.9-3.4,40.3-13.2,51.9-29.2l27.7,7.5
						c-11.6,16-29,25.9-51.9,29.2C680.4,569.2,680.2,569.3,680.1,569.3z"/>
				</defs>
				<clipPath id="SVGID_32_">
					<use xlink:href="#SVGID_31_"  style="overflow:visible;"/>
				</clipPath>
				<g class="st41">
					<path class="st34" d="M680.1,569.3l-27.7-7.5c0.2,0,0.3,0,0.5-0.1c3.3-0.5,6.5-1.1,9.6-1.9l27.7,7.5c-3.1,0.8-6.3,1.4-9.6,1.9
						C680.4,569.2,680.2,569.3,680.1,569.3"/>
					<path class="st35" d="M690.1,567.4l-27.7-7.5c6.7-1.6,12.9-3.9,18.5-6.9l27.7,7.5C703,563.4,696.8,565.7,690.1,567.4"/>
					<path class="st34" d="M708.6,560.5l-27.7-7.5c6.5-3.4,12.3-7.6,17.2-12.7l27.7,7.5C720.9,552.9,715.1,557.1,708.6,560.5"/>
					<path class="st36" d="M725.8,547.8l-27.7-7.5c2.4-2.4,4.6-5,6.6-7.8l27.7,7.5C730.4,542.8,728.2,545.4,725.8,547.8"/>
				</g>
			</g>
			<g class="st0">
				<defs>
					<path id="SVGID_33_" class="st0" d="M703.8,357.5l27.7,7.5c15.1,4.1,27.7,13.7,37.6,28.8c12.7,19.3,19.4,45.3,19.9,77.2
						c0.7,42.4-8.1,77.4-26.1,104l-27.7-7.5c18-26.6,26.7-61.6,26.1-104c-0.5-31.9-7.2-57.9-19.9-77.2
						C731.6,371.2,718.9,361.6,703.8,357.5z"/>
				</defs>
				<clipPath id="SVGID_34_">
					<use xlink:href="#SVGID_33_"  style="overflow:visible;"/>
				</clipPath>
				<g class="st42">
					<path class="st37" d="M763,575l-27.7-7.5c3.1-4.6,6-9.5,8.5-14.6l27.7,7.5C769,565.6,766.1,570.4,763,575"/>
					<path class="st43" d="M771.5,560.5l-27.7-7.5c3-5.9,5.6-12.2,7.8-18.7l27.7,7.5C777.1,548.3,774.5,554.6,771.5,560.5"/>
					<path class="st14" d="M779.3,541.8l-27.7-7.5c2.9-8.5,5.1-17.5,6.7-27.1l27.7,7.5C784.4,524.2,782.2,533.3,779.3,541.8"/>
					<path class="st7" d="M786,514.7l-27.7-7.5c2.3-13.5,3.3-28.1,3-43.6c-0.5-31.9-7.2-57.9-19.9-77.2
						c-9.9-15.1-22.5-24.8-37.6-28.8l27.7,7.5c15.1,4.1,27.7,13.7,37.6,28.8c12.7,19.3,19.4,45.3,19.9,77.2
						C789.3,486.6,788.3,501.2,786,514.7"/>
				</g>
			</g>
			<g class="st0">
				<defs>
					<path id="SVGID_35_" class="st0" d="M703.8,357.5l27.7,7.5c-4.3-1.2-8.8-1.9-13.5-2.2l-27.7-7.5
						C695,355.6,699.5,356.4,703.8,357.5z"/>
				</defs>
				<clipPath id="SVGID_36_">
					<use xlink:href="#SVGID_35_"  style="overflow:visible;"/>
				</clipPath>
				<g class="st44">
					<path class="st29" d="M718,362.9l-27.7-7.5c1.9,0.1,3.8,0.3,5.7,0.6l27.7,7.5C721.8,363.2,719.9,363,718,362.9"/>
					<path class="st26" d="M723.7,363.4l-27.7-7.5c2.7,0.4,5.3,0.9,7.8,1.6l27.7,7.5C728.9,364.3,726.3,363.8,723.7,363.4"/>
				</g>
			</g>
			<g class="st0">
				<defs>
					<path id="SVGID_37_" class="st0" d="M704.1,356.5l27.7,7.5c-4.1-1.1-8.5-1.8-13-2.1l-27.7-7.5
						C695.6,354.7,700,355.4,704.1,356.5z"/>
				</defs>
				<clipPath id="SVGID_38_">
					<use xlink:href="#SVGID_37_"  style="overflow:visible;"/>
				</clipPath>
				<g class="st45">
					<path class="st34" d="M718.8,361.9l-27.7-7.5c1.8,0.1,3.5,0.3,5.2,0.5l27.7,7.5C722.3,362.2,720.6,362,718.8,361.9"/>
					<path class="st36" d="M724,362.4l-27.7-7.5c2.7,0.4,5.2,0.9,7.8,1.6l27.7,7.5C729.3,363.3,726.7,362.8,724,362.4"/>
				</g>
			</g>
			<g class="st0">
				<defs>
					<path id="SVGID_39_" class="st0" d="M702.5,404.8c-6-5.9-13.4-10-22.1-12.4l27.7,7.5c8.7,2.4,16.1,6.5,22.1,12.4
						c6.4,6.3,11.3,14.6,14.6,24.8c0.8,2.5,1.6,5.2,2.2,8c-1-0.3-2.3-0.6-3.2-0.9c-1-0.3-2.4-0.6-3.4-0.9c-1.1-0.3-2.5-0.7-3.6-1
						c-1.1-0.3-2.5-0.7-3.6-1c-1.1-0.3-2.5-0.7-3.6-1c-1.1-0.3-2.5-0.7-3.6-1c-1-0.3-2.4-0.6-3.4-0.9c-1-0.3-2.3-0.6-3.2-0.9
						c-0.6-2.8-1.4-5.5-2.2-8C713.8,419.4,708.9,411.1,702.5,404.8z"/>
				</defs>
				<clipPath id="SVGID_40_">
					<use xlink:href="#SVGID_39_"  style="overflow:visible;"/>
				</clipPath>
				<g class="st46">
					<path class="st3" d="M748.2,502l-27.7-7.5c1.5-8.7,2.1-18.2,2-28.5c-0.2-14-2-26.3-5.3-36.5c-3.3-10.2-8.2-18.5-14.6-24.8
						c-6-5.9-13.4-10-22.1-12.4l27.7,7.5c8.7,2.4,16.1,6.5,22.1,12.4c6.4,6.3,11.3,14.6,14.6,24.8c3.3,10.2,5.1,22.4,5.3,36.5
						C750.3,483.8,749.6,493.3,748.2,502"/>
				</g>
			</g>
			<g class="st0">
				<defs>
					<path id="SVGID_41_" class="st0" d="M680.1,393.4l27.7,7.5c8.6,2.3,15.9,6.4,21.8,12.2c12.6,12.4,19.2,32.8,19.7,60.6
						c0.5,27.9-5.2,50.2-16.9,66.3l-27.7-7.5c11.6-16.1,17.3-38.5,16.9-66.3c-0.5-27.8-7.1-48.2-19.7-60.6
						C696,399.8,688.7,395.7,680.1,393.4z"/>
				</defs>
				<clipPath id="SVGID_42_">
					<use xlink:href="#SVGID_41_"  style="overflow:visible;"/>
				</clipPath>
				<g class="st47">
					<path class="st36" d="M732.4,540l-27.7-7.5c0.2-0.3,0.5-0.7,0.7-1l27.7,7.5C732.9,539.3,732.7,539.6,732.4,540"/>
					<path class="st37" d="M733.2,538.9l-27.7-7.5c2-2.9,3.8-5.9,5.4-9.2l27.7,7.5C737,533,735.2,536.1,733.2,538.9"/>
					<path class="st43" d="M738.6,529.8l-27.7-7.5c1.8-3.5,3.3-7.2,4.6-11.1l27.7,7.5C741.9,522.6,740.3,526.3,738.6,529.8"/>
					<path class="st14" d="M743.2,518.6l-27.7-7.5c1.8-5.2,3.1-10.8,4.1-16.7l27.7,7.5C746.3,507.9,745,513.4,743.2,518.6"/>
					<path class="st7" d="M747.3,501.9l-27.7-7.5c1.5-8.7,2.1-18.1,1.9-28.3c-0.5-27.8-7.1-48.2-19.7-60.6
						c-5.9-5.8-13.2-9.9-21.8-12.2l27.7,7.5c8.6,2.3,15.9,6.4,21.8,12.2c12.6,12.4,19.2,32.8,19.7,60.6
						C749.5,483.8,748.8,493.3,747.3,501.9"/>
				</g>
			</g>
			<g>
				<polygon class="st48" points="718.3,362.9 690.7,355.4 690.2,349.2 717.9,356.7 				"/>
			</g>
			<g class="st0">
				<defs>
					<path id="SVGID_43_" class="st0" d="M701.3,282.5c9.2,2.5,18.4,5,27.7,7.5c-1.8,8.3-4.5,15.8-8.1,22.4
						c-5.2-1.4-10.3-2.8-15.5-4.2c-0.4-0.1-1-0.3-1.4-0.4c-0.5-0.1-1.1-0.3-1.5-0.4c-0.5-0.1-1.1-0.3-1.6-0.4
						c-0.5-0.1-1.1-0.3-1.6-0.4c-0.5-0.1-1.1-0.3-1.6-0.4c-0.5-0.1-1.1-0.3-1.6-0.4c-0.5-0.1-1.1-0.3-1.5-0.4
						c-0.4-0.1-1-0.3-1.4-0.4C696.7,298.3,699.5,290.8,701.3,282.5z"/>
				</defs>
				<clipPath id="SVGID_44_">
					<use xlink:href="#SVGID_43_"  style="overflow:visible;"/>
				</clipPath>
				<g class="st49">
					<path class="st22" d="M717,318.6l-27.7-7.5c1.8-2.6,3.5-5.4,5-8.4l27.7,7.5C720.5,313.1,718.8,315.9,717,318.6"/>
					<path class="st23" d="M722,310.1l-27.7-7.5c1.6-3.2,3-6.5,4.2-10.1l27.7,7.5C725,303.6,723.6,307,722,310.1"/>
					<path class="st24" d="M726.2,300l-27.7-7.5c1.6-4.6,2.8-9.6,3.7-14.9l27.7,7.5C729,290.4,727.7,295.4,726.2,300"/>
				</g>
			</g>
			<g class="st0">
				<defs>
					<path id="SVGID_45_" class="st0" d="M701.7,229.9c9.2,2.5,18.4,5,27.7,7.5c1.4,7,2.1,14.7,2.2,23c0.2,10.8-0.7,20.7-2.6,29.6
						c-0.6-0.2-1.5-0.4-2.1-0.6c-0.7-0.2-1.6-0.4-2.3-0.6c-0.7-0.2-1.7-0.4-2.4-0.6c-0.7-0.2-1.7-0.5-2.4-0.7
						c-0.7-0.2-1.7-0.5-2.4-0.7c-0.7-0.2-1.7-0.4-2.4-0.6c-0.7-0.2-1.6-0.4-2.3-0.6c-0.6-0.2-1.5-0.4-2.2-0.6
						c-0.3-0.1-0.8-0.2-1.1-0.3c-0.3-0.1-0.8-0.2-1.1-0.3c-0.4-0.1-0.8-0.2-1.2-0.3c-0.4-0.1-0.8-0.2-1.2-0.3
						c-0.4-0.1-0.8-0.2-1.2-0.3c-0.4-0.1-0.8-0.2-1.2-0.3c-0.3-0.1-0.8-0.2-1.1-0.3c-0.3-0.1-0.8-0.2-1.1-0.3
						c1.9-8.9,2.8-18.8,2.6-29.6C703.8,244.5,703,236.8,701.7,229.9z"/>
				</defs>
				<clipPath id="SVGID_46_">
					<use xlink:href="#SVGID_45_"  style="overflow:visible;"/>
				</clipPath>
				<g class="st50">
					<path class="st24" d="M726.2,300l-27.7-7.5c1.6-4.6,2.8-9.6,3.7-14.9l27.7,7.5C729,290.4,727.7,295.4,726.2,300"/>
					<path class="st3" d="M729.9,285.2l-27.7-7.5c1.3-7.6,1.9-15.9,1.7-24.8c-0.4-24.7-6.1-43.5-17.1-55.7
						c-5.9-6.6-13.1-11-21.4-13.3l27.7,7.5c8.4,2.3,15.5,6.7,21.4,13.3c10.9,12.2,16.7,31,17.1,55.7
						C731.7,269.3,731.1,277.5,729.9,285.2"/>
				</g>
			</g>
			<g class="st0">
				<defs>
					<path id="SVGID_47_" class="st0" d="M698.6,218.1c9.2,2.5,18.4,5,27.7,7.5c1.2,3.7,2.3,7.6,3.1,11.8c-0.7-0.2-1.6-0.4-2.3-0.6
						c-0.7-0.2-1.7-0.5-2.4-0.7c-0.8-0.2-1.8-0.5-2.5-0.7c-0.8-0.2-1.8-0.5-2.6-0.7c-0.8-0.2-1.8-0.5-2.6-0.7
						c-0.8-0.2-1.8-0.5-2.5-0.7c-0.7-0.2-1.7-0.5-2.4-0.7c-0.7-0.2-1.6-0.4-2.3-0.6c-0.3-0.1-0.6-0.2-0.9-0.2
						c-0.3-0.1-0.7-0.2-1-0.3c-0.3-0.1-0.7-0.2-1-0.3c-0.3-0.1-0.7-0.2-1-0.3c-0.3-0.1-0.7-0.2-1-0.3c-0.3-0.1-0.7-0.2-1-0.3
						c-0.3-0.1-0.7-0.2-1-0.3c-0.3-0.1-0.6-0.2-0.9-0.3C700.8,225.7,699.8,221.7,698.6,218.1z"/>
				</defs>
				<clipPath id="SVGID_48_">
					<use xlink:href="#SVGID_47_"  style="overflow:visible;"/>
				</clipPath>
				<g class="st51">
					<path class="st3" d="M729.9,285.2l-27.7-7.5c1.3-7.6,1.9-15.9,1.7-24.8c-0.4-24.7-6.1-43.5-17.1-55.7
						c-5.9-6.6-13.1-11-21.4-13.3l27.7,7.5c8.4,2.3,15.5,6.7,21.4,13.3c10.9,12.2,16.7,31,17.1,55.7
						C731.7,269.3,731.1,277.5,729.9,285.2"/>
				</g>
			</g>
			<g class="st0">
				<defs>
					<path id="SVGID_49_" class="st0" d="M680.4,392.4l27.7,7.5c-9.8-2.7-21.3-3.1-34.5-1.2l-27.7-7.5
						C659,389.4,670.6,389.8,680.4,392.4z"/>
				</defs>
				<clipPath id="SVGID_50_">
					<use xlink:href="#SVGID_49_"  style="overflow:visible;"/>
				</clipPath>
				<g class="st52">
					<path class="st34" d="M673.6,398.7l-27.7-7.5c9.8-1.4,18.7-1.5,26.6-0.4l27.7,7.5C692.3,397.2,683.4,397.3,673.6,398.7"/>
					<path class="st36" d="M700.2,398.3l-27.7-7.5c2.7,0.4,5.3,0.9,7.8,1.6l27.7,7.5C705.5,399.2,702.9,398.7,700.2,398.3"/>
				</g>
			</g>
			<g class="st0">
				<defs>
					<path id="SVGID_51_" class="st0" d="M693.1,304.9c9.2,2.5,18.4,5,27.7,7.5c-1.8,3.3-3.8,6.4-6.1,9.3
						c-7,8.9-16.3,15.8-27.7,20.6c-7.8-2.1-15.3-4.1-27.7-7.5c11.4-4.8,20.7-11.7,27.8-20.6C689.3,311.3,691.3,308.2,693.1,304.9z"
						/>
				</defs>
				<clipPath id="SVGID_52_">
					<use xlink:href="#SVGID_51_"  style="overflow:visible;"/>
				</clipPath>
				<g class="st53">
					<path class="st31" d="M673.1,346.8l-27.7-7.5c7.3-1.8,13.9-4.2,19.9-7.3l27.7,7.5C687,342.5,680.4,345,673.1,346.8"/>
					<path class="st29" d="M693,339.4l-27.7-7.5c6.5-3.4,12.2-7.6,17.1-12.6l27.7,7.5C705.2,331.8,699.5,336,693,339.4"/>
					<path class="st26" d="M710.1,326.9l-27.7-7.5c1.6-1.7,3.2-3.4,4.6-5.2c0.8-1,1.6-2,2.3-3.1l27.7,7.5c-0.7,1.1-1.5,2.1-2.3,3.1
						C713.3,323.5,711.7,325.2,710.1,326.9"/>
					<path class="st22" d="M717,318.6l-27.7-7.5c1.8-2.6,3.5-5.4,5-8.4l27.7,7.5C720.5,313.1,718.8,315.9,717,318.6"/>
				</g>
			</g>
			<g>
				<polygon class="st8" points="603.2,581.2 575.6,573.7 652.4,562.8 680.1,570.3 				"/>
			</g>
			<g>
				<polygon class="st1" points="604.1,580.1 576.4,572.6 652.4,561.8 680.1,569.3 				"/>
			</g>
			<g class="st0">
				<defs>
					<path id="SVGID_53_" class="st0" d="M659.3,334.8c0.1,0,0.1,0,0.2,0.1c10.2,2.7,19.7,5.3,27.5,7.4c-7.3,3.1-15.6,5.3-24.6,6.6
						c-0.2,0-0.4,0.1-0.5,0.1l-27.7-7.5c0.2,0,0.4-0.1,0.5-0.1C643.7,340.1,651.9,337.9,659.3,334.8z"/>
				</defs>
				<clipPath id="SVGID_54_">
					<use xlink:href="#SVGID_53_"  style="overflow:visible;"/>
				</clipPath>
				<g class="st54">
					<path class="st29" d="M661.8,348.9l-27.7-7.5c0.2,0,0.4-0.1,0.5-0.1c3.7-0.5,7.3-1.2,10.7-2.1l27.7,7.5
						c-3.4,0.8-7,1.5-10.7,2.1C662.2,348.9,662,348.9,661.8,348.9"/>
					<path class="st31" d="M673.1,346.8l-27.7-7.5c7.3-1.8,13.9-4.2,19.9-7.3l27.7,7.5C687,342.5,680.4,345,673.1,346.8"/>
				</g>
			</g>
			<g class="st0">
				<defs>
					<path id="SVGID_55_" class="st0" d="M682.7,130.5l27.7,7.5c13,3.5,24.2,10.7,33.5,21.5c16.5,19.3,25.2,47.9,25.8,85
						c0.4,25-4.4,48.6-14.4,70.1c-9.9,21.5-22.4,35.6-37.3,42l-27.7-7.5c14.9-6.4,27.4-20.5,37.3-42c10-21.5,14.8-45.1,14.4-70.1
						c-0.6-37-9.3-65.6-25.8-85C706.9,141.2,695.7,134,682.7,130.5z"/>
				</defs>
				<clipPath id="SVGID_56_">
					<use xlink:href="#SVGID_55_"  style="overflow:visible;"/>
				</clipPath>
				<g class="st55">
					<path class="st35" d="M717.9,356.7l-27.7-7.5c1.1-0.5,2.2-1,3.2-1.5l27.7,7.5C720.1,355.7,719,356.2,717.9,356.7"/>
					<path class="st34" d="M721.1,355.1l-27.7-7.5c5.2-2.7,10.2-6.4,14.8-11.1l27.7,7.5C731.3,348.7,726.4,352.4,721.1,355.1"/>
					<path class="st36" d="M735.9,344l-27.7-7.5c3.1-3.2,6-6.8,8.8-10.8l27.7,7.5C742,337.2,739,340.8,735.9,344"/>
					<path class="st37" d="M744.8,333.2l-27.7-7.5c3-4.3,5.8-9.1,8.4-14.3l27.7,7.5C750.6,324.1,747.7,328.9,744.8,333.2"/>
					<path class="st43" d="M753.2,318.9l-27.7-7.5c0.7-1.4,1.4-2.8,2-4.3c2.3-5,4.3-10.1,6.1-15.2l27.7,7.5
						c-1.8,5.2-3.8,10.3-6.1,15.2C754.6,316.1,753.9,317.5,753.2,318.9"/>
					<path class="st14" d="M761.3,299.4l-27.7-7.5c2.6-7.8,4.6-15.8,6-24l27.7,7.5C766,283.6,764,291.6,761.3,299.4"/>
					<path class="st7" d="M767.4,275.3l-27.7-7.5c1.7-10,2.5-20.3,2.3-30.8c-0.6-37-9.3-65.6-25.8-85c-9.3-10.8-20.5-18-33.5-21.5
						l27.7,7.5c13,3.5,24.2,10.7,33.5,21.5c16.5,19.3,25.2,47.9,25.8,85C769.8,255,769,265.3,767.4,275.3"/>
				</g>
			</g>
			<g class="st0">
				<defs>
					<path id="SVGID_57_" class="st0" d="M686.8,197.2c-5.9-6.6-13-11-21.4-13.3l27.7,7.5c8.3,2.3,15.5,6.7,21.4,13.3
						c5,5.6,8.9,12.6,11.7,20.9c-0.6-0.2-1.5-0.4-2.1-0.6c-0.3-0.1-0.8-0.2-1.1-0.3c-0.7-0.2-1.6-0.4-2.3-0.6
						c-0.7-0.2-1.7-0.5-2.4-0.6c-0.7-0.2-1.7-0.5-2.4-0.7c-0.7-0.2-1.7-0.5-2.4-0.6c-0.7-0.2-1.6-0.4-2.3-0.6
						c-0.7-0.2-1.5-0.4-2.2-0.6c-0.5-0.1-1.1-0.3-1.6-0.4c-0.3-0.1-0.8-0.2-1.1-0.3c-0.4-0.1-0.8-0.2-1.2-0.3
						c-0.4-0.1-0.8-0.2-1.2-0.3c-0.4-0.1-0.9-0.2-1.2-0.3c-0.4-0.1-0.8-0.2-1.2-0.3c-0.2,0-0.4-0.1-0.6-0.2
						c-0.3-0.1-0.8-0.2-1.2-0.3c-0.2,0-0.4-0.1-0.6-0.2c-0.2,0-0.4-0.1-0.5-0.1C695.8,209.8,691.8,202.8,686.8,197.2z"/>
				</defs>
				<clipPath id="SVGID_58_">
					<use xlink:href="#SVGID_57_"  style="overflow:visible;"/>
				</clipPath>
				<g class="st56">
					<path class="st3" d="M729.9,285.2l-27.7-7.5c1.3-7.6,1.9-15.9,1.7-24.8c-0.4-24.7-6.1-43.5-17.1-55.7
						c-5.9-6.6-13.1-11-21.4-13.3l27.7,7.5c8.4,2.3,15.5,6.7,21.4,13.3c10.9,12.2,16.7,31,17.1,55.7
						C731.7,269.3,731.1,277.5,729.9,285.2"/>
				</g>
			</g>
			<g class="st0">
				<defs>
					<path id="SVGID_59_" class="st0" d="M665.1,184.8l27.7,7.5c8.2,2.2,15.3,6.6,21.1,13.1c10.8,12.1,16.4,30.6,16.8,55.1
						c0.4,25.6-5.2,46-16.6,60.5c-11.4,14.4-28.8,23.5-51.8,26.9c-0.2,0-0.4,0.1-0.5,0.1l-27.7-7.5c0.2,0,0.4-0.1,0.5-0.1
						c23-3.4,40.4-12.4,51.8-26.9c11.5-14.5,17.1-34.9,16.6-60.5c-0.4-24.5-6.1-43-16.8-55.1C680.4,191.4,673.4,187,665.1,184.8z"/>
				</defs>
				<clipPath id="SVGID_60_">
					<use xlink:href="#SVGID_59_"  style="overflow:visible;"/>
				</clipPath>
				<g class="st57">
					<path class="st34" d="M661.8,348l-27.7-7.5c0.2,0,0.4-0.1,0.5-0.1c3.7-0.5,7.3-1.2,10.7-2.1l27.7,7.5c-3.4,0.8-7,1.5-10.7,2.1
						C662.2,347.9,662,347.9,661.8,348"/>
					<path class="st35" d="M673,345.8l-27.7-7.5c7.2-1.8,13.8-4.2,19.7-7.3l27.7,7.5C686.8,341.6,680.2,344,673,345.8"/>
					<path class="st34" d="M692.7,338.5l-27.7-7.5c6.4-3.4,12.1-7.5,16.9-12.4l27.7,7.5C704.8,331.1,699.2,335.2,692.7,338.5"/>
					<path class="st36" d="M709.6,326.2l-27.7-7.5c1.6-1.6,3.1-3.3,4.5-5.1c0.8-1,1.5-2,2.3-3.1l27.7,7.5c-0.7,1-1.5,2.1-2.3,3.1
						C712.7,322.8,711.2,324.5,709.6,326.2"/>
					<path class="st37" d="M716.4,318l-27.7-7.5c1.8-2.6,3.4-5.4,4.9-8.3l27.7,7.5C719.8,312.6,718.2,315.4,716.4,318"/>
					<path class="st43" d="M721.3,309.7l-27.7-7.5c1.6-3.1,2.9-6.4,4.1-9.9l27.7,7.5C724.2,303.3,722.8,306.6,721.3,309.7"/>
					<path class="st14" d="M725.4,299.8l-27.7-7.5c1.5-4.6,2.8-9.5,3.6-14.7l27.7,7.5C728.2,290.3,726.9,295.2,725.4,299.8"/>
					<path class="st7" d="M729,285.1l-27.7-7.5c1.3-7.5,1.8-15.7,1.7-24.6c-0.4-24.5-6.1-43-16.8-55.1c-5.8-6.5-12.8-10.9-21.1-13.1
						l27.7,7.5c8.2,2.2,15.3,6.6,21.1,13.1c10.8,12.1,16.4,30.6,16.8,55.1C730.9,269.3,730.3,277.5,729,285.1"/>
				</g>
			</g>
			<g>
				<polygon class="st1" points="566.3,639.2 538.6,631.8 659.1,614.6 686.7,622.1 				"/>
			</g>
			<g class="st0">
				<defs>
					<path id="SVGID_61_" class="st0" d="M661.8,128c7.4-0.1,14.3,0.8,20.8,2.5l27.7,7.5c-6.5-1.7-13.4-2.6-20.8-2.5
						c-0.7-0.2-1.6-0.4-2.3-0.6c-0.7-0.2-1.7-0.5-2.5-0.7c-0.8-0.2-1.8-0.5-2.5-0.7c-0.8-0.2-1.8-0.5-2.6-0.7
						c-0.8-0.2-1.8-0.5-2.6-0.7c-0.8-0.2-1.8-0.5-2.5-0.7c-0.7-0.2-1.7-0.5-2.5-0.7c-0.7-0.2-1.6-0.4-2.3-0.6
						c-0.3-0.1-0.6-0.2-0.9-0.2c-0.3-0.1-0.7-0.2-1-0.3c-0.3-0.1-0.7-0.2-1-0.3c-0.3-0.1-0.7-0.2-1-0.3c-0.3-0.1-0.7-0.2-1-0.3
						c-0.3-0.1-0.7-0.2-1-0.3c-0.3-0.1-0.7-0.2-1-0.3C662.5,128.1,662.1,128,661.8,128z"/>
				</defs>
				<clipPath id="SVGID_62_">
					<use xlink:href="#SVGID_61_"  style="overflow:visible;"/>
				</clipPath>
				<g class="st58">
					<path class="st29" d="M676.4,136.5l-27.7-7.5c9-1.3,17.4-1.4,25.3-0.3l27.7,7.5C693.8,135.1,685.4,135.2,676.4,136.5"/>
					<path class="st26" d="M701.7,136.2l-27.7-7.5c3,0.4,5.9,1,8.6,1.8l27.7,7.5C707.5,137.2,704.6,136.6,701.7,136.2"/>
				</g>
			</g>
			<g class="st0">
				<defs>
					<path id="SVGID_63_" class="st0" d="M661.8,128c0.1,0,0.3,0.1,0.5,0.1c0.3,0.1,0.7,0.2,0.9,0.3c0.3,0.1,0.7,0.2,1,0.3
						c0.2,0,0.4,0.1,0.5,0.1c0.3,0.1,0.7,0.2,1,0.3c1.3,0.4,2.6,0.7,3.9,1.1c6.6,1.8,13.2,3.6,19.8,5.4c-0.9,0-1.9,0-2.8,0.1
						c-1-0.3-2.3-0.6-3.2-0.9c-1-0.3-2.4-0.6-3.4-0.9c-1.1-0.3-2.5-0.7-3.6-1c-1.1-0.3-2.5-0.7-3.6-1c-1.1-0.3-2.5-0.7-3.6-1
						c-1.1-0.3-2.5-0.7-3.6-1c-1-0.3-2.4-0.6-3.4-0.9c-1-0.3-2.3-0.6-3.2-0.9C660,128,660.9,128,661.8,128z"/>
				</defs>
				<clipPath id="SVGID_64_">
					<use xlink:href="#SVGID_63_"  style="overflow:visible;"/>
				</clipPath>
				<g class="st59">
					<path class="st29" d="M676.4,136.5l-27.7-7.5c9-1.3,17.4-1.4,25.3-0.3l27.7,7.5C693.8,135.1,685.4,135.2,676.4,136.5"/>
				</g>
			</g>
			<g class="st0">
				<defs>
					<path id="SVGID_65_" class="st0" d="M656.3,128.2c0.9-0.1,1.8-0.1,2.8-0.2c9.2,2.5,18.4,5,27.7,7.5c-0.9,0-1.8,0.1-2.8,0.2
						c-0.7-0.2-1.7-0.4-2.4-0.6c-0.8-0.2-1.8-0.5-2.5-0.7c-0.8-0.2-1.8-0.5-2.6-0.7c-0.8-0.2-1.9-0.5-2.6-0.7
						c-0.8-0.2-1.9-0.5-2.6-0.7c-0.8-0.2-1.8-0.5-2.6-0.7c-0.8-0.2-1.8-0.5-2.5-0.7c-0.7-0.2-1.7-0.4-2.4-0.6
						c-0.3-0.1-0.6-0.2-0.9-0.2c-0.3-0.1-0.6-0.2-0.9-0.2c-0.3-0.1-0.7-0.2-1-0.3c-0.3-0.1-0.7-0.2-1-0.3c-0.3-0.1-0.7-0.2-1-0.3
						c-0.3-0.1-0.7-0.2-1-0.3c-0.3-0.1-0.6-0.2-0.9-0.2C656.9,128.4,656.5,128.3,656.3,128.2z"/>
				</defs>
				<clipPath id="SVGID_66_">
					<use xlink:href="#SVGID_65_"  style="overflow:visible;"/>
				</clipPath>
				<g class="st60">
					<path class="st29" d="M676.4,136.5l-27.7-7.5c9-1.3,17.4-1.4,25.3-0.3l27.7,7.5C693.8,135.1,685.4,135.2,676.4,136.5"/>
				</g>
			</g>
			<g class="st0">
				<defs>
					<path id="SVGID_67_" class="st0" d="M665.4,183.9l27.7,7.5c-7.1-1.9-15.1-2.3-24-1l-27.7-7.5
						C650.3,181.6,658.3,181.9,665.4,183.9z"/>
				</defs>
				<clipPath id="SVGID_68_">
					<use xlink:href="#SVGID_67_"  style="overflow:visible;"/>
				</clipPath>
				<g class="st61">
					<path class="st34" d="M669.1,190.3l-27.7-7.5c6.5-0.9,12.5-1,18-0.2l27.7,7.5C681.6,189.3,675.6,189.4,669.1,190.3"/>
					<path class="st36" d="M687.1,190.1l-27.7-7.5c2.1,0.3,4,0.7,6,1.2l27.7,7.5C691.2,190.8,689.2,190.4,687.1,190.1"/>
				</g>
			</g>
			<g class="st0">
				<defs>
					<path id="SVGID_69_" class="st0" d="M656.3,128.2c0.1,0,0.3,0.1,0.4,0.1c1.1,0.3,2.2,0.6,3.3,0.9c1.2,0.3,2.5,0.7,3.7,1
						c6.7,1.8,13.5,3.7,20.2,5.5c-2.5,0.2-5,0.4-7.5,0.8l-27.7-7.5C651.3,128.6,653.8,128.4,656.3,128.2z"/>
				</defs>
				<clipPath id="SVGID_70_">
					<use xlink:href="#SVGID_69_"  style="overflow:visible;"/>
				</clipPath>
				<g class="st62">
					<path class="st29" d="M676.4,136.5l-27.7-7.5c9-1.3,17.4-1.4,25.3-0.3l27.7,7.5C693.8,135.1,685.4,135.2,676.4,136.5"/>
				</g>
			</g>
			<g class="st0">
				<defs>
					<path id="SVGID_71_" class="st0" d="M682.9,129.5l27.7,7.5c-10.3-2.8-21.7-3.3-34.2-1.5l-27.7-7.5
						C661.2,126.2,672.6,126.8,682.9,129.5z"/>
				</defs>
				<clipPath id="SVGID_72_">
					<use xlink:href="#SVGID_71_"  style="overflow:visible;"/>
				</clipPath>
				<g class="st63">
					<path class="st34" d="M676.4,135.5l-27.7-7.5c9.1-1.3,17.6-1.4,25.5-0.3l27.7,7.5C694,134.1,685.5,134.2,676.4,135.5"/>
					<path class="st36" d="M701.9,135.2l-27.7-7.5c3,0.4,5.9,1,8.7,1.8l27.7,7.5C707.8,136.3,704.9,135.7,701.9,135.2"/>
				</g>
			</g>
			<g>
				<polygon class="st64" points="603.2,581.2 575.6,573.7 572.7,401.6 600.4,409.1 				"/>
			</g>
			<g>
				<path class="st17" d="M730.2,412.3c6.4,6.3,11.3,14.6,14.6,24.8c3.3,10.2,5.1,22.4,5.3,36.5c0.5,28.1-5.3,50.7-17.1,67
					c-11.7,16.3-29.4,26.2-52.5,29.6c-0.2,0-0.3,0-0.5,0.1l-76.8,10.9l-2.8-172.1l73.2-10.4C698.4,395.2,717.4,399.8,730.2,412.3z
					 M732.4,540c11.6-16.1,17.3-38.5,16.9-66.3c-0.5-27.8-7.1-48.2-19.7-60.6c-12.6-12.4-31.5-16.9-56-13.4L601.3,410l2.8,170.1
					l76-10.8c0.2,0,0.3,0,0.5-0.1C703.4,565.9,720.9,556,732.4,540"/>
			</g>
			<g>
				<polygon class="st1" points="600.4,409.1 572.7,401.6 645.9,391.2 673.6,398.7 				"/>
			</g>
			<g>
				<polygon class="st8" points="599.6,357.8 571.9,350.3 634.1,341.5 661.8,348.9 				"/>
			</g>
			<g>
				<polygon class="st1" points="600.4,356.7 572.7,349.2 634.1,340.5 661.8,348 				"/>
			</g>
			<g>
				<polygon class="st1" points="597,200.6 569.3,193.1 641.4,182.8 669.1,190.3 				"/>
			</g>
			<g>
				<polygon class="st64" points="599.6,357.8 571.9,350.3 569.3,193.1 597,200.6 				"/>
			</g>
			<g>
				<path class="st17" d="M662.3,348.9c-0.2,0-0.4,0.1-0.5,0.1l-62.2,8.9L597,200.6l72.1-10.3c19.2-2.7,34.5,2.1,45.4,14.3
					c10.9,12.2,16.6,31,17.1,55.7c0.4,25.9-5.3,46.5-16.9,61.3C703.2,336.3,685.6,345.5,662.3,348.9z M597.8,201.4l2.5,155.3
					l61.4-8.7c0.2,0,0.4-0.1,0.5-0.1c23-3.4,40.4-12.4,51.8-26.9c11.5-14.5,17.1-34.9,16.6-60.5c-0.4-24.5-6.1-43-16.8-55.1
					c-10.8-12.1-25.8-16.8-44.8-14.1L597.8,201.4"/>
			</g>
			<g>
				<path class="st18" d="M769.1,393.8c12.7,19.3,19.4,45.3,19.9,77.2c0.7,42.4-8.1,77.4-26.1,104c-17.9,26.4-43.3,42.2-75.7,47
					l-121,17.2l-8-485.9l118.1-16.8c28.2-4,50.9,3.7,67.4,23.1c16.5,19.3,25.2,47.9,25.8,85c0.4,25-4.4,48.6-14.4,70.1
					c-9.9,21.5-22.4,35.6-37,41.9l-0.2,6.3C739.4,364.1,756.5,374.5,769.1,393.8z M733,540.6c11.8-16.4,17.6-38.9,17.1-67
					c-0.2-14-2-26.3-5.3-36.5c-3.3-10.2-8.2-18.5-14.6-24.8c-12.8-12.5-31.8-17.1-56.6-13.6l-73.2,10.4l2.8,172.1l76.8-10.9
					c0.2,0,0.3,0,0.5-0.1C703.7,566.8,721.3,556.8,733,540.6 M597,200.6l2.6,157.2l62.2-8.9c0.2,0,0.4-0.1,0.5-0.1
					c23.2-3.4,40.8-12.6,52.3-27.2c11.6-14.8,17.3-35.4,16.9-61.3c-0.4-24.7-6.1-43.5-17.1-55.7c-10.9-12.2-26.2-17.1-45.4-14.3
					L597,200.6"/>
			</g>
			<g>
				<polygon class="st8" points="558.3,153.3 530.6,145.8 648.7,129 676.4,136.5 				"/>
			</g>
			<g>
				<polygon class="st65" points="566.3,639.2 538.6,631.8 530.6,145.8 558.3,153.3 				"/>
			</g>
			<g>
				<path class="st17" d="M769.8,393.2c12.8,19.5,19.5,45.6,20.1,77.8c0.7,42.7-8.1,77.9-26.3,104.7c-18,26.7-43.7,42.6-76.3,47.4
					l-121.8,17.3l-8-487.9l118.9-16.9c28.5-4.1,51.4,3.8,68,23.3c16.7,19.5,25.4,48.3,26,85.6c0.4,25.2-4.5,48.9-14.5,70.6
					c-10,21.6-22.5,35.8-37.2,42.3l0.1,4.6C739.9,363.3,757.1,373.8,769.8,393.2z M763,575c18-26.6,26.7-61.6,26.1-104
					c-0.5-31.9-7.2-57.9-19.9-77.2c-12.7-19.3-29.8-29.7-50.8-31l-0.5-6.2c14.9-6.4,27.4-20.5,37.3-42c10-21.5,14.8-45.1,14.4-70.1
					c-0.6-37-9.3-65.6-25.8-85c-16.5-19.3-39.2-27.1-67.4-23.1l-118.1,16.8l8,485.9l120.4-17.1C719.7,617.3,745.1,601.5,763,575"/>
			</g>
			<g>
				<polygon class="st64" points="565.5,640.3 537.8,632.9 529.8,144.9 557.5,152.4 				"/>
			</g>
			<g>
				<polygon class="st1" points="557.5,152.4 529.8,144.9 648.7,128 676.4,135.5 				"/>
			</g>
		</g>
		<g class="st0">
			<g>
				<polygon class="st64" points="1162.8,554.3 1135.1,546.9 1134.3,493.2 1161.9,500.7 				"/>
			</g>
			<g>
				<polygon class="st64" points="1151.9,111.5 1124.2,104 1123.5,61.4 1151.2,68.9 				"/>
			</g>
			<g>
				<polygon class="st24" points="1102.9,135.7 1075.3,128.2 1075.2,122.1 1102.9,129.6 				"/>
			</g>
			<g>
				<polygon class="st64" points="1102.1,135.5 1074.5,128 1074.4,123.2 1102.1,130.7 				"/>
			</g>
			<g>
				<polygon class="st8" points="983.7,526 956.1,518.5 1134.3,493.2 1161.9,500.7 				"/>
			</g>
			<g>
				<polygon class="st1" points="984.6,524.9 956.9,517.4 1135.1,492.1 1162.7,499.6 				"/>
			</g>
			<g>
				<polygon class="st66" points="983.7,520 956,512.5 1124.2,104 1151.9,111.5 				"/>
			</g>
			<g>
				<polygon class="st64" points="983.7,526 956.1,518.5 956,512.5 983.7,520 				"/>
			</g>
			<g>
				<polygon class="st1" points="934.6,586.8 906.9,579.3 1135.1,546.9 1162.8,554.3 				"/>
			</g>
			<g>
				<polygon class="st65" points="934.6,586.8 906.9,579.3 906.2,536.8 933.9,544.2 				"/>
			</g>
			<g>
				<polygon class="st67" points="933.9,544.2 906.2,536.8 1075.3,128.2 1102.9,135.7 				"/>
			</g>
			<g>
				<polygon class="st66" points="933.1,544.1 905.4,536.6 1074.5,128 1102.1,135.5 				"/>
			</g>
			<g>
				<polygon class="st64" points="933.8,587.9 906.1,580.4 905.4,536.6 933.1,544.1 				"/>
			</g>
			<g>
				<polygon class="st1" points="933.5,153.7 905.8,146.2 1075.2,122.1 1102.9,129.6 				"/>
			</g>
			<g>
				<polygon class="st65" points="933.5,153.7 905.8,146.2 904.9,92.5 932.6,100 				"/>
			</g>
			<g>
				<polygon class="st8" points="932.6,100 904.9,92.5 1123.5,61.4 1151.2,68.9 				"/>
			</g>
			<g>
				<path class="st17" d="M984.6,524.9l178.2-25.4l0.9,55.6l-229.9,32.7l-0.7-43.8l169.1-408.6l-0.1-4.8l-169.4,24.1l-0.9-55.6
					L1152,67.8l0.7,43.8L984.5,520.1L984.6,524.9z M1162.8,554.3l-0.9-53.7L983.7,526l-0.1-6l168.2-408.5l-0.7-42.6L932.6,100
					l0.9,53.7l169.4-24.1l0.1,6L933.9,544.2l0.7,42.6L1162.8,554.3"/>
			</g>
			<g>
				<polygon class="st18" points="932.6,100 1151.2,68.9 1151.9,111.5 983.7,519.9 983.7,526 1161.9,500.7 1162.8,554.3 
					934.6,586.8 933.9,544.2 1102.9,135.7 1102.9,129.6 933.5,153.7 				"/>
			</g>
			<g>
				<polygon class="st64" points="932.7,154.8 905,147.3 904.1,91.7 931.8,99.2 				"/>
			</g>
			<g>
				<polygon class="st1" points="931.8,99.2 904.1,91.7 1124.3,60.3 1152,67.8 				"/>
			</g>
		</g>
	</g>
</g>
</svg>
