<?xml version="1.0" encoding="utf-8"?>
<!-- Generator: Adobe Illustrator 22.0.1, SVG Export Plug-In . SVG Version: 6.00 Build 0)  -->
<svg version="1.1" id="Layer_1" xmlns="http://www.w3.org/2000/svg" xmlns:xlink="http://www.w3.org/1999/xlink" x="0px" y="0px"
	 viewBox="0 0 1366 300" style="enable-background:new 0 0 1366 300;" xml:space="preserve">
<style type="text/css">
	.st0{enable-background:new    ;}
	.st1{fill:#810000;}
	.st2{fill:#940000;}
	.st3{fill:#EB0000;}
	.st4{fill:#800000;}
	.st5{fill:#920000;}
	.st6{clip-path:url(#SVGID_2_);enable-background:new    ;}
	.st7{fill:#8F0000;}
	.st8{fill:#8A0000;}
	.st9{fill:#850000;}
	.st10{clip-path:url(#SVGID_4_);enable-background:new    ;}
	.st11{clip-path:url(#SVGID_6_);enable-background:new    ;}
	.st12{clip-path:url(#SVGID_8_);enable-background:new    ;}
	.st13{clip-path:url(#SVGID_10_);enable-background:new    ;}
	.st14{clip-path:url(#SVGID_12_);enable-background:new    ;}
	.st15{fill:#8D0000;}
	.st16{clip-path:url(#SVGID_14_);enable-background:new    ;}
	.st17{clip-path:url(#SVGID_16_);enable-background:new    ;}
	.st18{clip-path:url(#SVGID_18_);enable-background:new    ;}
	.st19{clip-path:url(#SVGID_20_);enable-background:new    ;}
	.st20{clip-path:url(#SVGID_22_);enable-background:new    ;}
	.st21{clip-path:url(#SVGID_24_);enable-background:new    ;}
	.st22{clip-path:url(#SVGID_26_);enable-background:new    ;}
	.st23{clip-path:url(#SVGID_28_);enable-background:new    ;}
	.st24{fill:#860000;}
	.st25{clip-path:url(#SVGID_30_);enable-background:new    ;}
	.st26{clip-path:url(#SVGID_32_);enable-background:new    ;}
	.st27{fill:#820000;}
	.st28{clip-path:url(#SVGID_34_);enable-background:new    ;}
	.st29{clip-path:url(#SVGID_36_);enable-background:new    ;}
	.st30{clip-path:url(#SVGID_38_);enable-background:new    ;}
	.st31{fill:#840000;}
	.st32{clip-path:url(#SVGID_40_);enable-background:new    ;}
	.st33{clip-path:url(#SVGID_42_);enable-background:new    ;}
	.st34{clip-path:url(#SVGID_44_);enable-background:new    ;}
	.st35{clip-path:url(#SVGID_46_);enable-background:new    ;}
	.st36{clip-path:url(#SVGID_48_);enable-background:new    ;}
	.st37{clip-path:url(#SVGID_50_);enable-background:new    ;}
	.st38{clip-path:url(#SVGID_52_);enable-background:new    ;}
	.st39{clip-path:url(#SVGID_54_);enable-background:new    ;}
	.st40{clip-path:url(#SVGID_56_);enable-background:new    ;}
	.st41{clip-path:url(#SVGID_58_);enable-background:new    ;}
	.st42{clip-path:url(#SVGID_60_);enable-background:new    ;}
	.st43{clip-path:url(#SVGID_62_);enable-background:new    ;}
	.st44{clip-path:url(#SVGID_64_);enable-background:new    ;}
	.st45{clip-path:url(#SVGID_66_);enable-background:new    ;}
	.st46{clip-path:url(#SVGID_68_);enable-background:new    ;}
	.st47{clip-path:url(#SVGID_70_);enable-background:new    ;}
	.st48{clip-path:url(#SVGID_72_);enable-background:new    ;}
	.st49{clip-path:url(#SVGID_74_);enable-background:new    ;}
	.st50{clip-path:url(#SVGID_76_);enable-background:new    ;}
	.st51{clip-path:url(#SVGID_78_);enable-background:new    ;}
	.st52{clip-path:url(#SVGID_80_);enable-background:new    ;}
	.st53{clip-path:url(#SVGID_82_);enable-background:new    ;}
	.st54{clip-path:url(#SVGID_84_);enable-background:new    ;}
	.st55{clip-path:url(#SVGID_86_);enable-background:new    ;}
	.st56{clip-path:url(#SVGID_88_);enable-background:new    ;}
	.st57{clip-path:url(#SVGID_90_);enable-background:new    ;}
	.st58{clip-path:url(#SVGID_92_);enable-background:new    ;}
	.st59{clip-path:url(#SVGID_94_);enable-background:new    ;}
	.st60{clip-path:url(#SVGID_96_);enable-background:new    ;}
	.st61{clip-path:url(#SVGID_98_);enable-background:new    ;}
	.st62{clip-path:url(#SVGID_100_);enable-background:new    ;}
	.st63{clip-path:url(#SVGID_102_);enable-background:new    ;}
	.st64{fill:#890000;}
</style>
<g>
	<g>
		<g class="st0">
			<g>
				<polygon class="st1" points="336.5,231.3 317.3,228.6 318.2,103.9 337.4,106.6 				"/>
			</g>
			<g>
				<polygon class="st2" points="339.1,88.6 319.9,85.9 331.5,85.7 350.7,88.4 				"/>
			</g>
			<g>
				<polygon class="st3" points="339.1,88.6 350.7,88.4 349.6,231.1 336.5,231.3 337.4,106.6 337.1,106.6 319.6,120.3 317.1,105.6 
									"/>
			</g>
			<g>
				<polygon class="st4" points="319.6,120.3 300.4,117.6 297.9,102.9 317.1,105.6 				"/>
			</g>
			<g>
				<polygon class="st5" points="317.1,105.6 297.9,102.9 319.9,85.9 339.1,88.6 				"/>
			</g>
		</g>
		<g class="st0">
			<g class="st0">
				<defs>
					<path id="SVGID_1_" class="st0" d="M258.9,219.9l-19.2-2.7c0.5,0.1,1.1,0.1,1.6,0.1c0.1,0,0.3,0,0.4,0
						c13.6-0.7,20.2-23.7,20.5-59.8l19.2,2.7c-0.3,36-6.9,59.1-20.5,59.8c-0.1,0-0.3,0-0.4,0C260,220,259.5,220,258.9,219.9z"/>
				</defs>
				<clipPath id="SVGID_2_">
					<use xlink:href="#SVGID_1_"  style="overflow:visible;"/>
				</clipPath>
				<g class="st6">
					<path class="st2" d="M258.9,219.9l-19.2-2.7c0.5,0.1,1.1,0.1,1.6,0.1c0.1,0,0.3,0,0.4,0c1.3-0.1,2.6-0.4,3.8-0.8l19.2,2.7
						c-1.2,0.5-2.5,0.8-3.8,0.8c-0.1,0-0.3,0-0.4,0C260,220,259.5,220,258.9,219.9"/>
					<path class="st7" d="M264.8,219.1l-19.2-2.7c1.2-0.5,2.3-1.1,3.3-2l19.2,2.7C267.1,218,266,218.6,264.8,219.1"/>
					<path class="st8" d="M268.1,217.1l-19.2-2.7c1.2-1,2.4-2.3,3.4-3.8l19.2,2.7C270.5,214.9,269.3,216.1,268.1,217.1"/>
					<path class="st9" d="M271.5,213.4l-19.2-2.7c6.5-9.4,9.8-28.1,10-53.2l19.2,2.7C281.3,185.2,278.1,204,271.5,213.4"/>
				</g>
			</g>
			<g class="st0">
				<defs>
					<path id="SVGID_3_" class="st0" d="M244.3,99.7l19.2,2.7c12.7,1.8,18.3,24.2,18,57.7l-19.2-2.7
						C262.6,123.9,257,101.5,244.3,99.7z"/>
				</defs>
				<clipPath id="SVGID_4_">
					<use xlink:href="#SVGID_3_"  style="overflow:visible;"/>
				</clipPath>
				<g class="st10">
					<path class="st9" d="M281.5,160.2l-19.2-2.7c0.3-33.5-5.3-55.9-18-57.7l19.2,2.7C276.2,104.2,281.8,126.7,281.5,160.2"/>
				</g>
			</g>
			<g class="st0">
				<defs>
					<path id="SVGID_5_" class="st0" d="M247,84.9l19.2,2.7c-1.2-0.2-2.4-0.2-3.7-0.2l-19.2-2.7C244.6,84.6,245.8,84.7,247,84.9z"/>
				</defs>
				<clipPath id="SVGID_6_">
					<use xlink:href="#SVGID_5_"  style="overflow:visible;"/>
				</clipPath>
				<g class="st11">
					<path class="st2" d="M262.5,87.4l-19.2-2.7c1.3,0,2.5,0.1,3.7,0.2l19.2,2.7C265,87.4,263.7,87.4,262.5,87.4"/>
				</g>
			</g>
			<g>
				<path class="st3" d="M262.5,87.4c21.1-0.3,32.9,26.3,32.6,71.7c-0.4,47.8-12.8,74.7-34.4,75.8c-0.3,0-0.7,0-1,0
					c-19.6,0.3-32.6-25.6-32.6-72.8c0.4-47.2,14.6-73.7,34.6-74.7C261.9,87.4,262.2,87.4,262.5,87.4z M281.5,160.2
					c0.3-35.1-5.9-58.1-19.9-57.9c-0.1,0-0.2,0-0.4,0c-11.7,0.6-20.3,21.3-20.6,59.8c-0.3,37.1,7.6,58,19.9,57.9c0.1,0,0.3,0,0.4,0
					C274.6,219.3,281.2,196.2,281.5,160.2"/>
			</g>
			<g class="st0">
				<defs>
					<path id="SVGID_7_" class="st0" d="M256.4,234.7l-19.2-2.7c-17.7-2.5-29.4-28.1-29.3-72.6c0.4-47.2,14.6-73.7,34.6-74.7
						c0.3,0,0.6,0,0.8,0l19.2,2.7c-0.3,0-0.6,0-0.8,0c-19.9,1-34.2,27.5-34.6,74.7C227,206.6,238.7,232.2,256.4,234.7z"/>
				</defs>
				<clipPath id="SVGID_8_">
					<use xlink:href="#SVGID_7_"  style="overflow:visible;"/>
				</clipPath>
				<g class="st12">
					<path class="st9" d="M256.4,234.7l-19.2-2.7c-17.7-2.5-29.4-28.1-29.3-72.6c0.2-28.6,5.6-49.6,14.2-62l19.2,2.7
						c-8.6,12.3-14,33.3-14.2,62C227,206.6,238.7,232.2,256.4,234.7"/>
					<path class="st8" d="M241.3,100.1l-19.2-2.7c2-2.9,4.2-5.2,6.5-7.2l19.2,2.7C245.4,94.9,243.3,97.3,241.3,100.1"/>
					<path class="st7" d="M247.8,93l-19.2-2.7c2.1-1.7,4.3-3,6.6-4l19.2,2.7C252,90,249.8,91.3,247.8,93"/>
					<path class="st2" d="M254.3,89l-19.2-2.7c2.3-0.9,4.8-1.5,7.3-1.6c0.3,0,0.6,0,0.8,0l19.2,2.7c-0.3,0-0.6,0-0.8,0
						C259.1,87.5,256.7,88.1,254.3,89"/>
				</g>
			</g>
		</g>
		<g class="st0">
			<g>
				<polygon class="st2" points="167.9,217.9 148.8,215.2 193.8,214.5 213,217.2 				"/>
			</g>
			<g class="st0">
				<defs>
					<path id="SVGID_9_" class="st0" d="M166.3,86.2l19.2,2.7c-1.5-0.2-3.1-0.3-4.7-0.3c-0.4,0-0.8,0-1.2,0L160.4,86
						c0.4,0,0.8,0,1.2,0C163.3,85.9,164.8,86,166.3,86.2z"/>
				</defs>
				<clipPath id="SVGID_10_">
					<use xlink:href="#SVGID_9_"  style="overflow:visible;"/>
				</clipPath>
				<g class="st13">
					<path class="st2" d="M179.6,88.7L160.4,86c0.4,0,0.8,0,1.2,0c1.6,0,3.2,0.1,4.7,0.3l19.2,2.7c-1.5-0.2-3.1-0.3-4.7-0.3
						C180.4,88.7,180,88.7,179.6,88.7"/>
				</g>
			</g>
			<g class="st0">
				<defs>
					<path id="SVGID_11_" class="st0" d="M162.2,102.2l19.2,2.7c12.2,1.7,16.3,14,16.2,27.4c-0.3,21.5-12,40.1-37.9,75.2l-19.2-2.7
						c25.9-35.1,37.6-53.7,37.9-75.2C178.5,116.3,174.4,103.9,162.2,102.2z"/>
				</defs>
				<clipPath id="SVGID_12_">
					<use xlink:href="#SVGID_11_"  style="overflow:visible;"/>
				</clipPath>
				<g class="st14">
					<path class="st8" d="M159.7,207.5l-19.2-2.7c4.6-6.2,8.7-11.9,12.4-17.2l19.2,2.7C168.4,195.6,164.3,201.3,159.7,207.5"/>
					<path class="st9" d="M172.1,190.3l-19.2-2.7c17.2-24.6,25.2-40.3,25.5-58c0.1-13.3-4-25.6-16.2-27.4l19.2,2.7
						c12.2,1.7,16.3,14,16.2,27.4C197.3,150,189.3,165.7,172.1,190.3"/>
				</g>
			</g>
			<g>
				<polygon class="st1" points="148.9,234.2 129.7,231.5 129.8,219.7 149,222.4 				"/>
			</g>
			<g>
				<polygon class="st15" points="149,222.4 129.8,219.7 140.5,204.8 159.7,207.5 				"/>
			</g>
			<g class="st0">
				<defs>
					<path id="SVGID_13_" class="st0" d="M152.3,103.6l-19.2-2.7c6.8-8.2,16.2-14.3,27.3-14.9l19.2,2.7
						C168.6,89.3,159.1,95.4,152.3,103.6z"/>
				</defs>
				<clipPath id="SVGID_14_">
					<use xlink:href="#SVGID_13_"  style="overflow:visible;"/>
				</clipPath>
				<g class="st16">
					<path class="st8" d="M152.3,103.6l-19.2-2.7c1.9-2.3,4-4.4,6.3-6.3l19.2,2.7C156.3,99.1,154.2,101.3,152.3,103.6"/>
					<path class="st7" d="M158.7,97.2l-19.2-2.7c3-2.5,6.4-4.6,10.1-6.1l19.2,2.7C165.1,92.6,161.7,94.7,158.7,97.2"/>
					<path class="st2" d="M168.7,91.2l-19.2-2.7c3.4-1.4,7-2.3,10.9-2.5l19.2,2.7C175.8,88.9,172.1,89.8,168.7,91.2"/>
				</g>
			</g>
			<g>
				<polygon class="st4" points="156.5,117.1 137.3,114.4 133.1,100.9 152.3,103.6 				"/>
			</g>
			<g>
				<path class="st3" d="M179.6,88.7c0.4,0,0.8,0,1.2,0c21.6-0.3,30.5,20.6,30.4,41c-0.2,26.3-13.8,47.8-35.1,77.2l-8.1,10.7l0,0.4
					l45-0.7l-0.1,16l-64,1l0.1-11.9l10.7-14.9c25.9-35.1,37.6-53.7,37.9-75.2c0.1-14.5-4.7-27.8-19.7-27.6c-0.2,0-0.5,0-0.7,0
					c-8.8,0.5-16.1,7-20.7,12.4l-4.2-13.5C159.1,95.4,168.6,89.3,179.6,88.7z"/>
			</g>
		</g>
		<g class="st0">
			<g class="st0">
				<defs>
					<path id="SVGID_15_" class="st0" d="M85.7,219.3l-19.2-2.7c1.4,0.2,2.9,0.3,4.4,0.3c0.3,0,0.7,0,1,0
						c21.3-1.1,37.9-26.8,38.1-59.6l19.2,2.7c-0.3,32.9-16.9,58.5-38.1,59.6c-0.3,0-0.7,0-1,0C88.6,219.6,87.1,219.5,85.7,219.3z"/>
				</defs>
				<clipPath id="SVGID_16_">
					<use xlink:href="#SVGID_15_"  style="overflow:visible;"/>
				</clipPath>
				<g class="st17">
					<path class="st2" d="M85.7,219.3l-19.2-2.7c1.4,0.2,2.9,0.3,4.4,0.3c0.3,0,0.7,0,1,0c3.2-0.2,6.2-0.9,9.1-2.1l19.2,2.7
						c-2.9,1.2-6,1.9-9.1,2.1c-0.3,0-0.7,0-1,0C88.6,219.6,87.1,219.5,85.7,219.3"/>
					<path class="st7" d="M100.2,217.5L81,214.8c3-1.2,5.8-3,8.5-5.1l19.2,2.7C106,214.5,103.2,216.3,100.2,217.5"/>
					<path class="st8" d="M108.7,212.3l-19.2-2.7c3-2.5,5.7-5.5,8.2-9l19.2,2.7C114.4,206.9,111.7,209.9,108.7,212.3"/>
					<path class="st9" d="M116.9,203.4l-19.2-2.7c7.5-10.8,12.2-26.1,12.4-43.5l19.2,2.7C129.1,177.3,124.4,192.6,116.9,203.4"/>
				</g>
			</g>
			<g class="st0">
				<defs>
					<path id="SVGID_17_" class="st0" d="M91.2,191.9L72,189.1c1,0.1,2.1,0.2,3.2,0.2c0.3,0,0.6,0,0.9,0c5.8-0.3,11.3-2.7,14.7-5.9
						l19.2,2.7c-3.4,3.2-8.9,5.6-14.7,5.9c-0.3,0-0.6,0-0.9,0C93.2,192.1,92.2,192,91.2,191.9z"/>
				</defs>
				<clipPath id="SVGID_18_">
					<use xlink:href="#SVGID_17_"  style="overflow:visible;"/>
				</clipPath>
				<g class="st18">
					<path class="st2" d="M91.2,191.9L72,189.1c1,0.1,2.1,0.2,3.2,0.2c0.3,0,0.6,0,0.9,0c2.9-0.2,5.7-0.8,8.2-1.8l19.2,2.7
						c-2.5,1-5.3,1.7-8.2,1.8c-0.3,0-0.6,0-0.9,0C93.2,192.1,92.2,192,91.2,191.9"/>
					<path class="st7" d="M103.4,190.2l-19.2-2.7c2.2-0.9,4.1-2,5.7-3.3l19.2,2.7C107.5,188.2,105.5,189.3,103.4,190.2"/>
					<path class="st8" d="M109.1,186.9l-19.2-2.7c0.3-0.2,0.6-0.5,0.9-0.8l19.2,2.7C109.6,186.4,109.4,186.6,109.1,186.9"/>
				</g>
			</g>
			<g class="st0">
				<defs>
					<path id="SVGID_19_" class="st0" d="M79,127.9l19.2,2.7c5.5,0.8,9.7,3.3,11.3,4.6l-19.2-2.7C88.7,131.2,84.5,128.7,79,127.9z"
						/>
				</defs>
				<clipPath id="SVGID_20_">
					<use xlink:href="#SVGID_19_"  style="overflow:visible;"/>
				</clipPath>
				<g class="st19">
					<path class="st9" d="M109.5,135.2l-19.2-2.7c-1.6-1.2-5.8-3.8-11.3-4.6l19.2,2.7C103.7,131.4,107.9,134,109.5,135.2"/>
				</g>
			</g>
			<g class="st0">
				<defs>
					<path id="SVGID_21_" class="st0" d="M76,99.4l19.2,2.7c19.7,2.8,34.3,27.2,34,57.8l-19.2-2.7C110.3,126.6,95.7,102.2,76,99.4z"
						/>
				</defs>
				<clipPath id="SVGID_22_">
					<use xlink:href="#SVGID_21_"  style="overflow:visible;"/>
				</clipPath>
				<g class="st20">
					<path class="st9" d="M129.2,159.9l-19.2-2.7c0.2-30.6-14.4-55-34-57.8l19.2,2.7C114.8,104.9,129.5,129.3,129.2,159.9"/>
				</g>
			</g>
			<g class="st0">
				<defs>
					<path id="SVGID_23_" class="st0" d="M77,90.5l19.2,2.7c-1.7-0.2-3.4-0.3-5.2-0.3l-19.2-2.7C73.6,90.2,75.3,90.3,77,90.5z"/>
				</defs>
				<clipPath id="SVGID_24_">
					<use xlink:href="#SVGID_23_"  style="overflow:visible;"/>
				</clipPath>
				<g class="st21">
					<path class="st2" d="M91.1,92.9l-19.2-2.7c1.7,0,3.5,0.1,5.2,0.3l19.2,2.7C94.5,93,92.8,92.9,91.1,92.9"/>
				</g>
			</g>
			<g>
				<path class="st3" d="M93.8,130.4c-13.9,0.7-20.8,13.8-21,31c-0.1,17.1,7.3,30.8,21.5,30.6c0.3,0,0.6,0,0.9,0
					c5.8-0.3,11.3-2.7,14.7-5.9l1.8,8.3c-5.1,4.8-11.6,6.7-17.7,7.1c-0.4,0-0.9,0-1.3,0c-17.9,0.3-28.1-17.1-27.9-39.3
					c0.2-24.6,13.7-40.5,28.9-41.3c0.3,0,0.6,0,0.8,0c8-0.1,14.9,3.1,16.9,5.7l-1.9,8.6c-2-1.5-7.7-4.9-14.9-4.8
					C94.3,130.4,94.1,130.4,93.8,130.4z"/>
			</g>
			<g class="st0">
				<defs>
					<path id="SVGID_25_" class="st0" d="M88.7,201.3l-19.2-2.7c-15.4-2.2-24.1-18.6-23.9-39c0.2-24.6,13.7-40.5,28.9-41.3
						c0.3,0,0.6,0,0.8,0c1.6,0,3.2,0.1,4.7,0.3l19.2,2.7c-1.5-0.2-3.1-0.3-4.7-0.3c-0.3,0-0.6,0-0.8,0
						c-15.2,0.8-28.7,16.7-28.9,41.3C64.6,182.7,73.3,199.1,88.7,201.3z"/>
				</defs>
				<clipPath id="SVGID_26_">
					<use xlink:href="#SVGID_25_"  style="overflow:visible;"/>
				</clipPath>
				<g class="st22">
					<path class="st9" d="M88.7,201.3l-19.2-2.7c-15.4-2.2-24.1-18.6-23.9-39c0.1-11.8,3.3-21.6,8.2-28.7l19.2,2.7
						c-5,7.1-8.1,16.9-8.2,28.7C64.6,182.7,73.3,199.1,88.7,201.3"/>
					<path class="st8" d="M73,133.5l-19.2-2.7c1.8-2.6,3.9-4.8,6.1-6.6l19.2,2.7C76.9,128.7,74.8,130.9,73,133.5"/>
					<path class="st7" d="M79.1,126.9l-19.2-2.7c2.2-1.8,4.5-3.2,6.9-4.2l19.2,2.7C83.6,123.7,81.3,125.1,79.1,126.9"/>
					<path class="st2" d="M86,122.7L66.8,120c2.5-1,5-1.6,7.7-1.7c0.3,0,0.6,0,0.8,0c1.6,0,3.2,0.1,4.7,0.3l19.2,2.7
						c-1.5-0.2-3.1-0.3-4.7-0.3c-0.3,0-0.6,0-0.8,0C91.1,121.1,88.5,121.7,86,122.7"/>
				</g>
			</g>
			<g class="st0">
				<defs>
					<path id="SVGID_27_" class="st0" d="M84.8,228.2l-19.2-2.7c-23.6-3.3-41.4-31.8-41.1-67c0.3-36.7,20.5-67,46.1-68.3
						c0.4,0,0.8,0,1.2,0l19.2,2.7c-0.4,0-0.8,0-1.2,0c-25.6,1.3-45.9,31.6-46.1,68.3C43.4,196.5,61.2,224.9,84.8,228.2z"/>
				</defs>
				<clipPath id="SVGID_28_">
					<use xlink:href="#SVGID_27_"  style="overflow:visible;"/>
				</clipPath>
				<g class="st23">
					<path class="st9" d="M84.8,228.2l-19.2-2.7c-23.6-3.3-41.4-31.8-41.1-67c0.1-18.8,5.5-36,14.2-48.3l19.2,2.7
						c-8.7,12.4-14.1,29.5-14.2,48.3C43.4,196.5,61.2,224.9,84.8,228.2"/>
					<path class="st8" d="M57.9,112.9l-19.2-2.7c3-4.3,6.3-8,10-11l19.2,2.7C64.2,104.9,60.9,108.6,57.9,112.9"/>
					<path class="st7" d="M67.9,101.9l-19.2-2.7c3.3-2.7,6.9-4.9,10.6-6.4l19.2,2.7C74.8,97,71.2,99.2,67.9,101.9"/>
					<path class="st2" d="M78.5,95.5l-19.2-2.7c3.6-1.5,7.4-2.4,11.3-2.6c0.4,0,0.8,0,1.2,0l19.2,2.7c-0.4,0-0.8,0-1.2,0
						C85.9,93.1,82.1,94,78.5,95.5"/>
				</g>
			</g>
			<g>
				<path class="st3" d="M91.1,92.9c26.1-0.4,46.2,29.6,45.9,66.9c-0.3,37.2-20.2,67.4-45.7,68.7c-0.4,0-0.8,0-1.2,0
					C63.8,229,43.4,199,43.7,161.2c0.3-36.7,20.5-67,46.1-68.3C90.2,92.9,90.6,92.9,91.1,92.9z M129.2,159.9
					c0.2-32.7-16.5-58.4-38.2-58c-0.3,0-0.7,0-1,0c-21.7,1.1-38.3,27-38.6,59.8c-0.2,32.7,16.5,58.1,38.7,57.8c0.3,0,0.7,0,1,0
					C112.4,218.4,129,192.8,129.2,159.9"/>
			</g>
		</g>
		<g class="st0">
			<g>
				<polygon class="st1" points="437.9,103.5 418.7,100.8 418.8,100.4 437.9,103.1 				"/>
			</g>
			<g>
				<polygon class="st24" points="393.5,230.4 374.3,227.7 418.7,100.8 437.9,103.5 				"/>
			</g>
			<g>
				<polygon class="st3" points="389,87.8 452.2,86.8 452.1,99.6 407.5,230.2 393.5,230.4 437.9,103.5 437.9,103.1 388.9,103.8 				
					"/>
			</g>
			<g>
				<polygon class="st2" points="389,87.8 369.9,85.1 433.1,84.1 452.2,86.8 				"/>
			</g>
			<g>
				<polygon class="st1" points="388.9,103.8 369.7,101.1 369.9,85.1 389,87.8 				"/>
			</g>
		</g>
		<g class="st0">
			<g class="st0">
				<defs>
					<path id="SVGID_29_" class="st0" d="M575.6,76.5l19.2,2.7c-0.4-0.1-0.7-0.1-1.1-0.1l-19.2-2.7
						C574.8,76.4,575.2,76.4,575.6,76.5z"/>
				</defs>
				<clipPath id="SVGID_30_">
					<use xlink:href="#SVGID_29_"  style="overflow:visible;"/>
				</clipPath>
				<g class="st25">
					<path class="st2" d="M593.6,79.1l-19.2-2.7c0.4,0,0.7,0,1.1,0.1l19.2,2.7C594.4,79.2,594,79.1,593.6,79.1"/>
				</g>
			</g>
			<g>
				<path class="st3" d="M593.6,79.1c5.1-0.1,8.3,5.1,8.2,11.9c0.1,6.5-3.2,11.7-8.4,12c-0.1,0-0.2,0-0.3,0
					c-4.8,0.1-8.1-5.1-8.1-11.7c0.1-6.7,3.5-12,8.3-12.2C593.5,79.1,593.6,79.1,593.6,79.1z"/>
			</g>
			<g class="st0">
				<defs>
					<path id="SVGID_31_" class="st0" d="M592.2,103l-19.2-2.7c-4.2-0.6-7.1-5.5-7.1-11.7c0.1-6.7,3.5-12,8.3-12.2
						c0.1,0,0.2,0,0.3,0l19.2,2.7c-0.1,0-0.2,0-0.3,0c-4.8,0.2-8.3,5.5-8.3,12.2C585,97.5,587.9,102.4,592.2,103z"/>
				</defs>
				<clipPath id="SVGID_32_">
					<use xlink:href="#SVGID_31_"  style="overflow:visible;"/>
				</clipPath>
				<g class="st26">
					<path class="st9" d="M592.2,103l-19.2-2.7c-4.2-0.6-7.1-5.5-7.1-11.7c0-3.4,0.9-6.5,2.5-8.7l19.2,2.7c-1.5,2.2-2.5,5.2-2.5,8.7
						C585,97.5,587.9,102.4,592.2,103"/>
					<path class="st8" d="M587.6,82.7L568.4,80c0.5-0.7,1.1-1.4,1.7-1.9l19.2,2.7C588.6,81.3,588.1,82,587.6,82.7"/>
					<path class="st7" d="M589.3,80.8l-19.2-2.7c0.6-0.5,1.2-0.9,1.9-1.2l19.2,2.7C590.5,79.9,589.9,80.3,589.3,80.8"/>
					<path class="st2" d="M591.2,79.6L572,76.9c0.7-0.3,1.4-0.4,2.2-0.5c0.1,0,0.2,0,0.3,0l19.2,2.7c-0.1,0-0.2,0-0.3,0
						C592.6,79.2,591.9,79.4,591.2,79.6"/>
				</g>
			</g>
		</g>
		<g class="st0">
			<g>
				<polygon class="st1" points="866.5,216.7 847.3,214 847.4,202.1 866.6,204.8 				"/>
			</g>
			<g>
				<polygon class="st1" points="866.6,177.8 847.5,175.1 847.6,156 866.8,158.7 				"/>
			</g>
			<g>
				<polygon class="st2" points="869.3,116.8 850.1,114 861.9,113.9 881.1,116.6 				"/>
			</g>
			<g>
				<polygon class="st27" points="868.2,132.8 849,130.1 850.1,114 869.3,116.8 				"/>
			</g>
			<g class="st0">
				<defs>
					<path id="SVGID_33_" class="st0" d="M843.8,208l-19.2-2.7c0.9,0.1,1.8,0.2,2.7,0.2c0.2,0,0.3,0,0.5,0c8.1-0.4,15.5-7.9,18.5-20
						c0.8-3.3,1.1-7,1.2-10.3l19.2,2.7c0,3.3-0.4,7-1.2,10.3c-3,12.1-10.3,19.6-18.5,20c-0.2,0-0.3,0-0.5,0
						C845.6,208.2,844.7,208.2,843.8,208z"/>
				</defs>
				<clipPath id="SVGID_34_">
					<use xlink:href="#SVGID_33_"  style="overflow:visible;"/>
				</clipPath>
				<g class="st28">
					<path class="st2" d="M843.8,208l-19.2-2.7c0.9,0.1,1.8,0.2,2.7,0.2c0.2,0,0.3,0,0.5,0c1.6-0.1,3.2-0.4,4.7-1.1l19.2,2.7
						c-1.5,0.6-3.1,1-4.7,1.1c-0.2,0-0.3,0-0.5,0C845.6,208.2,844.7,208.2,843.8,208"/>
					<path class="st7" d="M851.7,207.1l-19.2-2.7c1.6-0.6,3-1.5,4.4-2.7l19.2,2.7C854.8,205.6,853.3,206.5,851.7,207.1"/>
					<path class="st8" d="M856.2,204.4l-19.2-2.7c1.5-1.3,3-2.8,4.2-4.6l19.2,2.7C859.1,201.6,857.7,203.2,856.2,204.4"/>
					<path class="st9" d="M860.4,199.8l-19.2-2.7c2.2-3.1,3.9-7.1,5.1-11.6c0.8-3.3,1.1-7,1.2-10.3l19.2,2.7c0,3.3-0.4,7-1.2,10.3
						C864.4,192.7,862.6,196.7,860.4,199.8"/>
				</g>
			</g>
			<g class="st0">
				<defs>
					<path id="SVGID_35_" class="st0" d="M837.2,253.8l-19.2-2.7c1.6,0.2,3.3,0.3,5,0.3c0.3,0,0.7,0,1,0
						c13.4-0.7,23.1-11.3,23.3-37.4l19.2,2.7c-0.2,26.1-10,36.7-23.3,37.4c-0.3,0-0.7,0-1,0C840.4,254.2,838.8,254.1,837.2,253.8z"
						/>
				</defs>
				<clipPath id="SVGID_36_">
					<use xlink:href="#SVGID_35_"  style="overflow:visible;"/>
				</clipPath>
				<g class="st29">
					<path class="st2" d="M837.2,253.8l-19.2-2.7c1.6,0.2,3.3,0.3,5,0.3c0.3,0,0.7,0,1,0c2.6-0.1,5.1-0.6,7.4-1.6l19.2,2.7
						c-2.3,0.9-4.8,1.4-7.4,1.6c-0.3,0-0.7,0-1,0C840.4,254.2,838.8,254.1,837.2,253.8"/>
					<path class="st7" d="M850.5,252.5l-19.2-2.7c1.8-0.7,3.5-1.7,5.1-3l19.2,2.7C854.1,250.8,852.4,251.8,850.5,252.5"/>
					<path class="st8" d="M855.6,249.5l-19.2-2.7c1.5-1.2,2.8-2.7,4.1-4.4l19.2,2.7C858.5,246.8,857.1,248.3,855.6,249.5"/>
					<path class="st9" d="M859.7,245.1l-19.2-2.7c4.2-6,6.7-15.2,6.8-28.4l19.2,2.7C866.4,229.9,863.9,239.1,859.7,245.1"/>
				</g>
			</g>
			<g class="st0">
				<defs>
					<path id="SVGID_37_" class="st0" d="M830.5,127.3l19.2,2.7c8.5,1.2,14.2,9.7,16.4,20c0.6,2.6,0.7,5.5,0.7,8.8l-19.2-2.7
						c0-3.3-0.1-6.2-0.7-8.8C844.7,137,839,128.5,830.5,127.3z"/>
				</defs>
				<clipPath id="SVGID_38_">
					<use xlink:href="#SVGID_37_"  style="overflow:visible;"/>
				</clipPath>
				<g class="st30">
					<path class="st9" d="M866.8,158.7l-19.2-2.7c0-3.3-0.1-6.2-0.7-8.8c-2.2-10.2-7.9-18.8-16.4-20l19.2,2.7
						c8.5,1.2,14.2,9.7,16.4,20C866.7,152.6,866.8,155.4,866.8,158.7"/>
				</g>
			</g>
			<g>
				<polygon class="st31" points="816.8,260.9 797.7,258.2 801.2,243.4 820.3,246.1 				"/>
			</g>
			<g class="st0">
				<defs>
					<path id="SVGID_39_" class="st0" d="M835.2,268.9l-19.2-2.7c-6.9-1-13.8-3.7-18.3-8l19.2,2.7
						C821.4,265.2,828.2,267.9,835.2,268.9z"/>
				</defs>
				<clipPath id="SVGID_40_">
					<use xlink:href="#SVGID_39_"  style="overflow:visible;"/>
				</clipPath>
				<g class="st32">
					<path class="st9" d="M835.2,268.9l-19.2-2.7c-6.9-1-13.8-3.7-18.3-8l19.2,2.7C821.4,265.2,828.2,267.9,835.2,268.9"/>
				</g>
			</g>
			<g class="st0">
				<defs>
					<path id="SVGID_41_" class="st0" d="M838.9,222.8l-19.2-2.7c-16.6-2.4-28.1-23.6-27.9-51.1c0.3-35.4,16.4-56,33.2-56.9
						c0.3,0,0.5,0,0.8,0c1.3,0,2.6,0.1,3.8,0.2l19.2,2.7c-1.2-0.2-2.5-0.2-3.8-0.2c-0.3,0-0.5,0-0.8,0c-16.8,0.9-33,21.5-33.2,56.9
						C810.8,199.2,822.3,220.4,838.9,222.8z"/>
				</defs>
				<clipPath id="SVGID_42_">
					<use xlink:href="#SVGID_41_"  style="overflow:visible;"/>
				</clipPath>
				<g class="st33">
					<path class="st9" d="M838.9,222.8l-19.2-2.7c-16.6-2.4-28.1-23.6-27.9-51.1c0.1-18.8,4.7-33.4,11.5-43.1l19.2,2.7
						c-6.8,9.7-11.4,24.3-11.5,43.1C810.8,199.2,822.3,220.4,838.9,222.8"/>
					<path class="st8" d="M822.6,128.6l-19.2-2.7c2.2-3.1,4.5-5.7,7.1-7.8l19.2,2.7C827.1,122.9,824.7,125.5,822.6,128.6"/>
					<path class="st7" d="M829.6,120.8l-19.2-2.7c2.3-1.9,4.7-3.4,7.2-4.4l19.2,2.7C834.4,117.5,831.9,118.9,829.6,120.8"/>
					<path class="st2" d="M836.9,116.4l-19.2-2.7c2.4-1,4.9-1.6,7.4-1.7c0.3,0,0.5,0,0.8,0c1.3,0,2.6,0.1,3.8,0.2l19.2,2.7
						c-1.2-0.2-2.5-0.2-3.8-0.2c-0.3,0-0.5,0-0.8,0C841.8,114.9,839.3,115.5,836.9,116.4"/>
				</g>
			</g>
			<g>
				<path class="st3" d="M869.3,116.8l11.9-0.2c-0.4,7.7-0.7,16.3-0.8,29.2l-0.5,61.7c-0.2,24.4-3.7,39.3-11,48.7
					c-6.9,9.2-16.7,12.6-25.7,13.1c-0.5,0-1,0-1.5,0.1c-8.9,0.1-18.8-2.8-24.8-8.4l3.5-14.8c4.9,4.3,12.6,8.1,21.8,8
					c0.3,0,0.7,0,1,0c13.4-0.7,23.1-11.3,23.3-37.4l0.1-11.9c-4.4,9.7-12.2,17.6-23.3,18.1c-0.3,0-0.6,0-0.9,0
					c-18.5,0.3-31.6-21.9-31.4-51.3c0.3-35.4,16.4-56,33.2-56.9c0.3,0,0.5,0,0.8,0c13-0.2,20,9.3,23.1,18.1L869.3,116.8z
					 M866.8,158.7c0-3.3-0.1-6.2-0.7-8.8c-2.4-11.2-8.9-20.3-18.8-20.1c-0.2,0-0.4,0-0.6,0c-12.6,0.7-21.7,16.3-21.9,40.5
					c-0.2,20.8,7.1,38.1,21.8,37.8c0.2,0,0.3,0,0.5,0c8.1-0.4,15.5-7.9,18.5-20c0.8-3.3,1.1-7,1.2-10.3L866.8,158.7"/>
			</g>
		</g>
		<g class="st0">
			<g>
				<polygon class="st1" points="780.4,224.4 761.3,221.7 761.7,160.4 780.9,163.1 				"/>
			</g>
			<g class="st0">
				<defs>
					<path id="SVGID_43_" class="st0" d="M747.1,129.4l19.2,2.7c10.9,1.5,14.7,15,14.6,31l-19.2-2.7
						C761.8,144.4,758,131,747.1,129.4z"/>
				</defs>
				<clipPath id="SVGID_44_">
					<use xlink:href="#SVGID_43_"  style="overflow:visible;"/>
				</clipPath>
				<g class="st34">
					<path class="st9" d="M780.9,163.1l-19.2-2.7c0.1-16-3.7-29.4-14.6-31l19.2,2.7C777.2,133.7,781,147.1,780.9,163.1"/>
				</g>
			</g>
			<g class="st0">
				<defs>
					<path id="SVGID_45_" class="st0" d="M752.2,113.4l19.2,2.7c-1-0.1-2-0.2-3-0.2c-0.3,0-0.6,0-0.8,0l-19.2-2.7c0.3,0,0.6,0,0.8,0
						C750.2,113.2,751.2,113.2,752.2,113.4z"/>
				</defs>
				<clipPath id="SVGID_46_">
					<use xlink:href="#SVGID_45_"  style="overflow:visible;"/>
				</clipPath>
				<g class="st35">
					<path class="st2" d="M767.6,116l-19.2-2.7c0.3,0,0.6,0,0.8,0c0.9,0,1.9,0,3,0.2l19.2,2.7c-1-0.1-2-0.2-3-0.2
						C768.2,115.9,767.9,115.9,767.6,116"/>
				</g>
			</g>
			<g class="st0">
				<defs>
					<path id="SVGID_47_" class="st0" d="M743.6,136.3l-19.2-2.7c3.7-9.9,12.1-19.7,24-20.3l19.2,2.7
						C755.7,116.6,747.3,126.4,743.6,136.3z"/>
				</defs>
				<clipPath id="SVGID_48_">
					<use xlink:href="#SVGID_47_"  style="overflow:visible;"/>
				</clipPath>
				<g class="st36">
					<path class="st9" d="M743.6,136.3l-19.2-2.7c1.1-2.9,2.6-5.8,4.4-8.5l19.2,2.7C746.2,130.5,744.7,133.4,743.6,136.3"/>
					<path class="st8" d="M748.1,127.8l-19.2-2.7c1.7-2.4,3.6-4.5,5.8-6.4l19.2,2.7C751.7,123.3,749.7,125.5,748.1,127.8"/>
					<path class="st7" d="M753.9,121.5l-19.2-2.7c1.9-1.6,4.1-2.9,6.4-3.9l19.2,2.7C758,118.5,755.8,119.9,753.9,121.5"/>
					<path class="st2" d="M760.3,117.6l-19.2-2.7c2.3-0.9,4.7-1.5,7.3-1.6l19.2,2.7C765,116.1,762.6,116.7,760.3,117.6"/>
				</g>
			</g>
			<g>
				<polygon class="st2" points="743.3,136.3 724.2,133.6 724.5,133.6 743.6,136.3 				"/>
			</g>
			<g>
				<polygon class="st1" points="730.5,225.2 711.3,222.4 711.9,145 731.1,147.7 				"/>
			</g>
			<g>
				<polygon class="st2" points="730.7,118.9 711.5,116.2 723.5,116 742.7,118.7 				"/>
			</g>
			<g class="st0">
				<defs>
					<path id="SVGID_49_" class="st0" d="M731.1,147.7l-19.2-2.7c0.1-11,0-20-0.4-28.7l19.2,2.7
						C731.1,127.7,731.2,136.7,731.1,147.7z"/>
				</defs>
				<clipPath id="SVGID_50_">
					<use xlink:href="#SVGID_49_"  style="overflow:visible;"/>
				</clipPath>
				<g class="st37">
					<path class="st9" d="M731.1,147.7l-19.2-2.7c0.1-11,0-20-0.4-28.7l19.2,2.7C731.1,127.7,731.2,136.7,731.1,147.7"/>
				</g>
			</g>
			<g>
				<path class="st3" d="M767.6,116c0.3,0,0.6,0,0.8,0c10.3-0.2,26.3,8.4,26,44.8l-0.5,63.4l-13.6,0.2l0.5-61.2
					c0.1-17.1-4.2-31.3-17-31.1c-0.2,0-0.3,0-0.5,0c-8.7,0.5-15.5,9.4-17.9,20c-0.6,2.4-1,5.7-1,9l-0.5,63.9l-13.6,0.2l0.6-77.5
					c0.1-11,0-20-0.4-28.7l12-0.2l0.6,17.6l0.3,0C747.3,126.4,755.7,116.6,767.6,116z"/>
			</g>
		</g>
		<g class="st0">
			<g>
				<polygon class="st3" points="694.4,225.7 695.2,119.5 708.8,119.3 708,225.5 				"/>
			</g>
			<g>
				<polygon class="st1" points="694.4,225.7 675.2,223 676,116.8 695.2,119.5 				"/>
			</g>
			<g>
				<polygon class="st2" points="695.2,119.5 676,116.8 689.6,116.5 708.8,119.3 				"/>
			</g>
		</g>
		<g class="st0">
			<g>
				<polygon class="st2" points="668.6,119.9 649.4,117.2 663.7,116.9 682.9,119.7 				"/>
			</g>
			<g>
				<polygon class="st31" points="653.3,182.5 634.1,179.8 649.4,117.2 668.6,119.9 				"/>
			</g>
			<g class="st0">
				<defs>
					<path id="SVGID_51_" class="st0" d="M648,204.7l-19.2-2.7c1.7-6.4,3.3-14.5,5.2-22.2l19.2,2.7
						C651.4,190.2,649.8,198.3,648,204.7z"/>
				</defs>
				<clipPath id="SVGID_52_">
					<use xlink:href="#SVGID_51_"  style="overflow:visible;"/>
				</clipPath>
				<g class="st38">
					<path class="st9" d="M648,204.7l-19.2-2.7c1.7-6.4,3.3-14.5,5.2-22.2l19.2,2.7C651.4,190.2,649.8,198.3,648,204.7"/>
				</g>
			</g>
			<g class="st0">
				<defs>
					<path id="SVGID_53_" class="st0" d="M627.8,249.6l-19.2-2.7c3.7-4.2,8.4-11.8,11.6-21.7c0.6-2,1.1-3.5,1.1-4.6
						c0-1.1-0.3-2.6-0.9-5l19.2,2.7c0.6,2.4,0.9,3.9,0.9,5c0,1.1-0.5,2.6-1.1,4.6C636.2,237.8,631.5,245.4,627.8,249.6z"/>
				</defs>
				<clipPath id="SVGID_54_">
					<use xlink:href="#SVGID_53_"  style="overflow:visible;"/>
				</clipPath>
				<g class="st39">
					<path class="st8" d="M627.8,249.6l-19.2-2.7c0.9-1,1.9-2.2,2.8-3.6l19.2,2.7C629.7,247.4,628.7,248.6,627.8,249.6"/>
					<path class="st9" d="M630.6,246l-19.2-2.7c3.1-4.4,6.3-10.5,8.7-18.1c0.6-2,1.1-3.5,1.1-4.6c0-1.1-0.3-2.6-0.9-5l19.2,2.7
						c0.6,2.4,0.9,3.9,0.9,5c0,1.1-0.5,2.6-1.1,4.6C637,235.4,633.7,241.6,630.6,246"/>
				</g>
			</g>
			<g class="st0">
				<defs>
					<path id="SVGID_55_" class="st0" d="M615.9,259.2l-19.2-2.7c3.4-1.6,7.9-4.7,11.9-9.6l19.2,2.7
						C623.8,254.5,619.3,257.6,615.9,259.2z"/>
				</defs>
				<clipPath id="SVGID_56_">
					<use xlink:href="#SVGID_55_"  style="overflow:visible;"/>
				</clipPath>
				<g class="st40">
					<path class="st7" d="M615.9,259.2l-19.2-2.7c1.9-0.9,4.2-2.3,6.5-4.2l19.2,2.7C620,256.9,617.8,258.3,615.9,259.2"/>
					<path class="st8" d="M622.4,255l-19.2-2.7c1.8-1.5,3.7-3.3,5.4-5.4l19.2,2.7C626,251.7,624.2,253.5,622.4,255"/>
				</g>
			</g>
			<g>
				<polygon class="st4" points="619.1,275.4 599.9,272.7 596.7,256.5 615.9,259.2 				"/>
			</g>
			<g>
				<polygon class="st4" points="639.6,218.2 620.4,215.5 593.6,118 612.7,120.8 				"/>
			</g>
			<g>
				<polygon class="st2" points="612.7,120.8 593.6,118 608.4,117.8 627.5,120.5 				"/>
			</g>
			<g>
				<path class="st3" d="M612.7,120.8l14.8-0.2l15.9,62.5c1.6,7,3.4,15.3,4.6,21.7c1.7-6.4,3.3-14.5,5.2-22.2l15.3-62.6l14.3-0.2
					l-20.9,76c-10,36.6-16.8,55.4-26.1,66.9c-6.7,8.4-13.3,11.8-16.7,12.8l-3.3-16.2c3.4-1.6,7.9-4.7,11.9-9.6
					c3.7-4.2,8.4-11.8,11.6-21.7c0.6-2,1.1-3.5,1.1-4.6c0-1.1-0.3-2.6-0.9-5L612.7,120.8z"/>
			</g>
		</g>
		<g class="st0">
			<g>
				<polygon class="st3" points="585.7,227.4 586.5,121.2 600.1,121 599.3,227.2 				"/>
			</g>
			<g>
				<polygon class="st1" points="585.7,227.4 566.5,224.7 567.4,118.5 586.5,121.2 				"/>
			</g>
			<g>
				<polygon class="st2" points="586.5,121.2 567.4,118.5 580.9,118.2 600.1,121 				"/>
			</g>
		</g>
		<g class="st0">
			<g class="st0">
				<defs>
					<path id="SVGID_57_" class="st0" d="M514,155l19.2,2.7c12.1,1.7,21.3,10.2,21.2,27.8l-19.2-2.7C535.3,165.2,526,156.7,514,155z
						"/>
				</defs>
				<clipPath id="SVGID_58_">
					<use xlink:href="#SVGID_57_"  style="overflow:visible;"/>
				</clipPath>
				<g class="st41">
					<path class="st9" d="M554.3,185.5l-19.2-2.7c0.1-17.6-9.1-26.1-21.2-27.8l19.2,2.7C545.2,159.5,554.4,167.9,554.3,185.5"/>
				</g>
			</g>
			<g class="st0">
				<defs>
					<path id="SVGID_59_" class="st0" d="M517.9,214.3l-19.2-2.7c2.5,0.4,5.7,0.4,9.5,0.4c0.5,0,0.9,0,1.4,0
						c13.3-0.7,25.3-8.3,25.5-29.1l19.2,2.7c-0.2,20.8-12.2,28.4-25.5,29.1c-0.5,0-0.9,0-1.4,0C523.6,214.8,520.4,214.7,517.9,214.3
						z"/>
				</defs>
				<clipPath id="SVGID_60_">
					<use xlink:href="#SVGID_59_"  style="overflow:visible;"/>
				</clipPath>
				<g class="st42">
					<path class="st2" d="M517.9,214.3l-19.2-2.7c2.5,0.4,5.7,0.4,9.5,0.4c0.5,0,0.9,0,1.4,0c3.5-0.2,7-0.9,10.2-2.1l19.2,2.7
						c-3.2,1.3-6.6,2-10.2,2.1c-0.5,0-0.9,0-1.4,0C523.6,214.8,520.4,214.7,517.9,214.3"/>
					<path class="st7" d="M539,212.5l-19.2-2.7c2.2-0.9,4.2-2.1,6.1-3.6l19.2,2.7C543.2,210.5,541.2,211.6,539,212.5"/>
					<path class="st8" d="M545.1,208.9l-19.2-2.7c1.5-1.2,2.9-2.7,4.1-4.4l19.2,2.7C548,206.2,546.6,207.7,545.1,208.9"/>
					<path class="st9" d="M549.2,204.5l-19.2-2.7c3.2-4.5,5.1-10.7,5.2-19l19.2,2.7C554.2,193.8,552.3,200,549.2,204.5"/>
				</g>
			</g>
			<g class="st0">
				<defs>
					<path id="SVGID_61_" class="st0" d="M515.1,91.6l19.2,2.7c10.6,1.5,17.4,8.5,17.3,23.5c-0.1,13.9-8.1,24.4-21.7,25.1
						c-0.3,0-0.7,0-1,0l-19.2-2.7c0.3,0,0.7,0,1,0c13.6-0.7,21.6-11.2,21.7-25.1C532.5,100.1,525.7,93.1,515.1,91.6z"/>
				</defs>
				<clipPath id="SVGID_62_">
					<use xlink:href="#SVGID_61_"  style="overflow:visible;"/>
				</clipPath>
				<g class="st43">
					<path class="st2" d="M528.9,142.9l-19.2-2.7c0.3,0,0.7,0,1,0c2.8-0.1,5.4-0.7,7.8-1.7l19.2,2.7c-2.3,1-4.9,1.5-7.8,1.7
						C529.6,142.9,529.2,142.9,528.9,142.9"/>
					<path class="st7" d="M537.7,141.2l-19.2-2.7c2-0.8,3.7-1.9,5.3-3.2L543,138C541.4,139.3,539.7,140.4,537.7,141.2"/>
					<path class="st8" d="M543,138l-19.2-2.7c1.5-1.2,2.8-2.6,3.9-4.2l19.2,2.7C545.8,135.4,544.5,136.8,543,138"/>
					<path class="st9" d="M546.9,133.8l-19.2-2.7c3-4.3,4.6-9.8,4.7-16.1c0.1-15-6.7-22-17.3-23.5l19.2,2.7
						c10.6,1.5,17.4,8.5,17.3,23.5C551.5,124,549.9,129.5,546.9,133.8"/>
				</g>
			</g>
			<g>
				<polygon class="st2" points="516.7,143.1 497.5,140.4 509.7,140.2 528.9,142.9 				"/>
			</g>
			<g class="st0">
				<defs>
					<path id="SVGID_63_" class="st0" d="M505.3,228.7l-19.2-2.7c-1-0.1-1.9-0.3-2.7-0.4l19.2,2.7
						C503.5,228.4,504.4,228.6,505.3,228.7z"/>
				</defs>
				<clipPath id="SVGID_64_">
					<use xlink:href="#SVGID_63_"  style="overflow:visible;"/>
				</clipPath>
				<g class="st44">
					<path class="st9" d="M505.3,228.7l-19.2-2.7c-1-0.1-1.9-0.3-2.7-0.4l19.2,2.7C503.5,228.4,504.4,228.6,505.3,228.7"/>
				</g>
			</g>
			<g class="st0">
				<defs>
					<path id="SVGID_65_" class="st0" d="M518.5,77.1l19.2,2.7c-2.9-0.4-6-0.6-9.4-0.5c-1.3,0-2.5,0.1-3.8,0.1
						c-8.1,0.4-15.7,1.7-20.8,3.3L484.6,80c5.1-1.6,12.7-2.9,20.8-3.3c1.3-0.1,2.5-0.1,3.8-0.1C512.5,76.5,515.7,76.7,518.5,77.1z"
						/>
				</defs>
				<clipPath id="SVGID_66_">
					<use xlink:href="#SVGID_65_"  style="overflow:visible;"/>
				</clipPath>
				<g class="st45">
					<path class="st2" d="M503.8,82.7L484.6,80c5.1-1.6,12.7-2.9,20.8-3.3c1.3-0.1,2.5-0.1,3.8-0.1c3.4-0.1,6.6,0.1,9.4,0.5
						l19.2,2.7c-2.9-0.4-6-0.6-9.4-0.5c-1.3,0-2.5,0.1-3.8,0.1C516.5,79.8,508.8,81.1,503.8,82.7"/>
				</g>
			</g>
			<g>
				<polygon class="st1" points="502.7,228.3 483.5,225.6 484.6,80 503.8,82.7 				"/>
			</g>
			<g>
				<path class="st3" d="M547.3,148.8c9.8,3.4,21.3,14.8,21.1,36.8c-0.1,12.7-3.7,22.4-9,29.8c-6.8,8.9-17.5,13.5-32.7,14.3
					c-1.1,0.1-2.2,0.1-3.3,0.1c-9.2,0.1-16.3-0.6-20.8-1.4l1.1-145.5c5.1-1.6,12.7-2.9,20.8-3.3c1.3-0.1,2.5-0.1,3.8-0.1
					c13.4-0.2,22,2.9,28.4,10.3c5.3,5.6,8.5,14.4,8.4,26c-0.1,14.3-6.8,26.9-17.8,32.8L547.3,148.8z M554.3,185.5
					c0.2-20.2-12-28.3-26.6-28.1l-11.1,0.2l-0.4,56.4c2.6,0.6,6.5,0.8,11.2,0.7c0.5,0,0.9,0,1.4,0
					C542.2,214,554.1,206.3,554.3,185.5 M517.1,95.5l-0.4,47.6l12.2-0.2c0.3,0,0.7,0,1,0c13.6-0.7,21.6-11.2,21.7-25.1
					c0.1-17.3-9.1-24-22.6-23.8c-1,0-1.9,0-2.8,0.1C521.7,94.3,518.9,94.9,517.1,95.5"/>
			</g>
		</g>
		<g class="st0">
			<g class="st0">
				<defs>
					<path id="SVGID_67_" class="st0" d="M684.2,74.8l19.2,2.7c-0.4,0-0.7-0.1-1.1-0.1l-19.2-2.7C683.5,74.7,683.9,74.7,684.2,74.8z
						"/>
				</defs>
				<clipPath id="SVGID_68_">
					<use xlink:href="#SVGID_67_"  style="overflow:visible;"/>
				</clipPath>
				<g class="st46">
					<path class="st2" d="M702.3,77.4l-19.2-2.7c0.4,0,0.7,0,1.1,0.1l19.2,2.7C703.1,77.5,702.7,77.4,702.3,77.4"/>
				</g>
			</g>
			<g>
				<path class="st3" d="M702.3,77.4c5.1-0.1,8.3,5.1,8.2,11.9c0.1,6.5-3.2,11.7-8.4,12c-0.1,0-0.2,0-0.3,0
					c-4.8,0.1-8.1-5.1-8.1-11.7c0.1-6.7,3.5-12,8.3-12.2C702.2,77.4,702.2,77.4,702.3,77.4z"/>
			</g>
			<g class="st0">
				<defs>
					<path id="SVGID_69_" class="st0" d="M700.8,101.3l-19.2-2.7c-4.2-0.6-7.1-5.5-7.1-11.7c0.1-6.7,3.5-12,8.3-12.2
						c0.1,0,0.2,0,0.3,0l19.2,2.7c-0.1,0-0.2,0-0.3,0c-4.8,0.2-8.3,5.5-8.3,12.2C693.7,95.8,696.6,100.7,700.8,101.3z"/>
				</defs>
				<clipPath id="SVGID_70_">
					<use xlink:href="#SVGID_69_"  style="overflow:visible;"/>
				</clipPath>
				<g class="st47">
					<path class="st9" d="M700.8,101.3l-19.2-2.7c-4.2-0.6-7.1-5.5-7.1-11.7c0-3.4,0.9-6.5,2.5-8.7l19.2,2.7
						c-1.5,2.2-2.5,5.2-2.5,8.7C693.7,95.8,696.6,100.7,700.8,101.3"/>
					<path class="st8" d="M696.2,81L677,78.3c0.5-0.7,1.1-1.4,1.7-1.9l19.2,2.7C697.3,79.6,696.7,80.3,696.2,81"/>
					<path class="st7" d="M698,79.1l-19.2-2.7c0.6-0.5,1.2-0.9,1.9-1.2l19.2,2.7C699.2,78.2,698.6,78.6,698,79.1"/>
					<path class="st2" d="M699.9,77.9l-19.2-2.7c0.7-0.3,1.4-0.4,2.2-0.5c0.1,0,0.2,0,0.3,0l19.2,2.7c-0.1,0-0.2,0-0.3,0
						C701.3,77.5,700.6,77.7,699.9,77.9"/>
				</g>
			</g>
		</g>
		<g class="st0">
			<g>
				<polygon class="st1" points="1316,209.7 1296.8,206.9 1296.9,195.1 1316.1,197.8 				"/>
			</g>
			<g>
				<polygon class="st1" points="1316.2,170.8 1297,168.1 1297.1,149 1316.3,151.7 				"/>
			</g>
			<g>
				<polygon class="st2" points="1318.8,109.8 1299.6,107 1311.5,106.8 1330.7,109.6 				"/>
			</g>
			<g>
				<polygon class="st27" points="1317.7,125.8 1298.6,123.1 1299.6,107 1318.8,109.8 				"/>
			</g>
			<g class="st0">
				<defs>
					<path id="SVGID_71_" class="st0" d="M1293.3,201l-19.2-2.7c0.9,0.1,1.8,0.2,2.7,0.2c0.2,0,0.3,0,0.5,0
						c8.1-0.4,15.5-7.9,18.5-20c0.8-3.3,1.1-7,1.2-10.3l19.2,2.7c0,3.3-0.4,7-1.2,10.3c-3,12.1-10.3,19.6-18.5,20
						c-0.2,0-0.3,0-0.5,0C1295.1,201.2,1294.2,201.2,1293.3,201z"/>
				</defs>
				<clipPath id="SVGID_72_">
					<use xlink:href="#SVGID_71_"  style="overflow:visible;"/>
				</clipPath>
				<g class="st48">
					<path class="st2" d="M1293.3,201l-19.2-2.7c0.9,0.1,1.8,0.2,2.7,0.2c0.2,0,0.3,0,0.5,0c1.6-0.1,3.2-0.4,4.7-1.1l19.2,2.7
						c-1.5,0.6-3.1,1-4.7,1.1c-0.2,0-0.3,0-0.5,0C1295.1,201.2,1294.2,201.2,1293.3,201"/>
					<path class="st7" d="M1301.3,200.1l-19.2-2.7c1.6-0.6,3-1.5,4.4-2.7l19.2,2.7C1304.3,198.6,1302.8,199.5,1301.3,200.1"/>
					<path class="st8" d="M1305.7,197.4l-19.2-2.7c1.5-1.3,3-2.8,4.2-4.6l19.2,2.7C1308.7,194.6,1307.2,196.2,1305.7,197.4"/>
					<path class="st9" d="M1309.9,192.8l-19.2-2.7c2.2-3.1,3.9-7.1,5.1-11.6c0.8-3.3,1.1-7,1.2-10.3l19.2,2.7c0,3.3-0.4,7-1.2,10.3
						C1313.9,185.7,1312.1,189.7,1309.9,192.8"/>
				</g>
			</g>
			<g class="st0">
				<defs>
					<path id="SVGID_73_" class="st0" d="M1286.7,246.8l-19.2-2.7c1.6,0.2,3.3,0.3,5,0.3c0.3,0,0.7,0,1,0
						c13.4-0.7,23.1-11.3,23.3-37.4l19.2,2.7c-0.2,26.1-10,36.7-23.3,37.4c-0.3,0-0.7,0-1,0C1290,247.2,1288.3,247,1286.7,246.8z"/>
				</defs>
				<clipPath id="SVGID_74_">
					<use xlink:href="#SVGID_73_"  style="overflow:visible;"/>
				</clipPath>
				<g class="st49">
					<path class="st2" d="M1286.7,246.8l-19.2-2.7c1.6,0.2,3.3,0.3,5,0.3c0.3,0,0.7,0,1,0c2.6-0.1,5.1-0.7,7.4-1.6l19.2,2.7
						c-2.3,0.9-4.8,1.4-7.4,1.6c-0.3,0-0.7,0-1,0C1290,247.2,1288.3,247,1286.7,246.8"/>
					<path class="st7" d="M1300.1,245.5l-19.2-2.7c1.8-0.7,3.5-1.7,5.1-3l19.2,2.7C1303.6,243.8,1301.9,244.8,1300.1,245.5"/>
					<path class="st8" d="M1305.1,242.5l-19.2-2.7c1.5-1.2,2.8-2.7,4.1-4.4l19.2,2.7C1308,239.8,1306.6,241.3,1305.1,242.5"/>
					<path class="st9" d="M1309.2,238.1l-19.2-2.7c4.2-6,6.7-15.2,6.8-28.4l19.2,2.7C1315.9,222.8,1313.4,232.1,1309.2,238.1"/>
				</g>
			</g>
			<g class="st0">
				<defs>
					<path id="SVGID_75_" class="st0" d="M1280,120.3l19.2,2.7c8.6,1.2,14.3,9.7,16.4,20c0.6,2.6,0.7,5.5,0.7,8.8l-19.2-2.7
						c0-3.3-0.1-6.1-0.7-8.8C1294.2,130,1288.5,121.5,1280,120.3z"/>
				</defs>
				<clipPath id="SVGID_76_">
					<use xlink:href="#SVGID_75_"  style="overflow:visible;"/>
				</clipPath>
				<g class="st50">
					<path class="st9" d="M1316.3,151.7l-19.2-2.7c0-3.3-0.1-6.1-0.7-8.8c-2.2-10.2-7.9-18.8-16.4-20l19.2,2.7
						c8.6,1.2,14.3,9.7,16.4,20C1316.2,145.6,1316.3,148.4,1316.3,151.7"/>
				</g>
			</g>
			<g>
				<polygon class="st31" points="1266.4,253.9 1247.2,251.2 1250.7,236.4 1269.9,239.1 				"/>
			</g>
			<g class="st0">
				<defs>
					<path id="SVGID_77_" class="st0" d="M1284.7,261.9l-19.2-2.7c-6.9-1-13.8-3.7-18.3-8l19.2,2.7
						C1270.9,258.2,1277.7,260.9,1284.7,261.9z"/>
				</defs>
				<clipPath id="SVGID_78_">
					<use xlink:href="#SVGID_77_"  style="overflow:visible;"/>
				</clipPath>
				<g class="st51">
					<path class="st9" d="M1284.7,261.9l-19.2-2.7c-6.9-1-13.8-3.7-18.3-8l19.2,2.7C1270.9,258.2,1277.7,260.9,1284.7,261.9"/>
				</g>
			</g>
			<g class="st0">
				<defs>
					<path id="SVGID_79_" class="st0" d="M1288.5,215.7l-19.2-2.7c-16.6-2.4-28.1-23.6-27.9-51.1c0.3-35.4,16.4-56,33.3-56.9
						c0.3,0,0.5,0,0.8,0c1.3,0,2.6,0.1,3.8,0.2l19.2,2.7c-1.2-0.2-2.4-0.2-3.8-0.2c-0.3,0-0.5,0-0.8,0c-16.8,0.9-33,21.5-33.3,56.9
						C1260.4,192.2,1271.8,213.4,1288.5,215.7z"/>
				</defs>
				<clipPath id="SVGID_80_">
					<use xlink:href="#SVGID_79_"  style="overflow:visible;"/>
				</clipPath>
				<g class="st52">
					<path class="st9" d="M1288.5,215.7l-19.2-2.7c-16.6-2.4-28.1-23.6-27.9-51.1c0.1-18.8,4.7-33.4,11.5-43.1l19.2,2.7
						c-6.8,9.7-11.4,24.3-11.5,43.1C1260.4,192.2,1271.8,213.4,1288.5,215.7"/>
					<path class="st8" d="M1272.1,121.6l-19.2-2.7c2.2-3.1,4.5-5.7,7.1-7.8l19.2,2.7C1276.6,115.9,1274.3,118.5,1272.1,121.6"/>
					<path class="st7" d="M1279.2,113.8l-19.2-2.7c2.3-1.9,4.7-3.4,7.2-4.4l19.2,2.7C1283.9,110.5,1281.5,111.9,1279.2,113.8"/>
					<path class="st2" d="M1286.4,109.4l-19.2-2.7c2.4-1,4.9-1.6,7.4-1.7c0.3,0,0.5,0,0.8,0c1.3,0,2.6,0.1,3.8,0.2l19.2,2.7
						c-1.2-0.2-2.4-0.2-3.8-0.2c-0.3,0-0.5,0-0.8,0C1291.3,107.9,1288.8,108.4,1286.4,109.4"/>
				</g>
			</g>
			<g>
				<path class="st3" d="M1318.8,109.8l11.9-0.2c-0.4,7.7-0.7,16.3-0.8,29.2l-0.5,61.7c-0.2,24.4-3.7,39.3-11,48.7
					c-6.9,9.2-16.7,12.6-25.7,13.1c-0.5,0-1,0-1.5,0.1c-8.9,0.1-18.8-2.8-24.8-8.4l3.5-14.8c4.9,4.3,12.6,8.1,21.8,8
					c0.3,0,0.7,0,1,0c13.4-0.7,23.1-11.3,23.3-37.4l0.1-11.9c-4.4,9.7-12.2,17.5-23.3,18.1c-0.3,0-0.6,0-0.9,0
					c-18.5,0.3-31.6-21.9-31.4-51.3c0.3-35.4,16.4-56,33.3-56.9c0.3,0,0.5,0,0.8,0c12.9-0.2,20,9.3,23.1,18.1L1318.8,109.8z
					 M1316.3,151.7c0-3.3-0.1-6.1-0.7-8.8c-2.4-11.2-8.9-20.3-18.8-20.1c-0.2,0-0.4,0-0.6,0c-12.6,0.7-21.7,16.3-21.9,40.5
					c-0.2,20.9,7.1,38.1,21.8,37.9c0.2,0,0.3,0,0.5,0c8.1-0.4,15.5-7.9,18.5-20c0.8-3.3,1.1-7,1.2-10.3L1316.3,151.7"/>
			</g>
		</g>
		<g class="st0">
			<g>
				<polygon class="st1" points="1230,217.4 1210.8,214.7 1211.2,153.4 1230.4,156.1 				"/>
			</g>
			<g class="st0">
				<defs>
					<path id="SVGID_81_" class="st0" d="M1196.6,122.4l19.2,2.7c10.9,1.5,14.7,15,14.6,31l-19.2-2.7
						C1211.4,137.4,1207.6,124,1196.6,122.4z"/>
				</defs>
				<clipPath id="SVGID_82_">
					<use xlink:href="#SVGID_81_"  style="overflow:visible;"/>
				</clipPath>
				<g class="st53">
					<path class="st9" d="M1230.4,156.1l-19.2-2.7c0.1-16-3.7-29.4-14.6-31l19.2,2.7C1226.7,126.7,1230.5,140.1,1230.4,156.1"/>
				</g>
			</g>
			<g class="st0">
				<defs>
					<path id="SVGID_83_" class="st0" d="M1201.7,106.4l19.2,2.7c-1-0.1-2-0.2-2.9-0.2c-0.3,0-0.6,0-0.8,0l-19.2-2.7
						c0.3,0,0.6,0,0.8,0C1199.7,106.2,1200.7,106.2,1201.7,106.4z"/>
				</defs>
				<clipPath id="SVGID_84_">
					<use xlink:href="#SVGID_83_"  style="overflow:visible;"/>
				</clipPath>
				<g class="st54">
					<path class="st2" d="M1217.2,108.9l-19.2-2.7c0.3,0,0.6,0,0.8,0c0.9,0,1.9,0,2.9,0.2l19.2,2.7c-1-0.1-2-0.2-2.9-0.2
						C1217.7,108.9,1217.4,108.9,1217.2,108.9"/>
				</g>
			</g>
			<g class="st0">
				<defs>
					<path id="SVGID_85_" class="st0" d="M1193.2,129.3l-19.2-2.7c3.7-9.9,12.1-19.7,24-20.3l19.2,2.7
						C1205.3,109.6,1196.9,119.3,1193.2,129.3z"/>
				</defs>
				<clipPath id="SVGID_86_">
					<use xlink:href="#SVGID_85_"  style="overflow:visible;"/>
				</clipPath>
				<g class="st55">
					<path class="st9" d="M1193.2,129.3l-19.2-2.7c1.1-2.9,2.6-5.8,4.4-8.5l19.2,2.7C1195.7,123.5,1194.3,126.4,1193.2,129.3"/>
					<path class="st8" d="M1197.6,120.8l-19.2-2.7c1.7-2.4,3.6-4.5,5.8-6.4l19.2,2.7C1201.2,116.3,1199.3,118.4,1197.6,120.8"/>
					<path class="st7" d="M1203.4,114.4l-19.2-2.7c1.9-1.6,4.1-2.9,6.4-3.9l19.2,2.7C1207.5,111.5,1205.4,112.9,1203.4,114.4"/>
					<path class="st2" d="M1209.9,110.6l-19.2-2.7c2.3-0.9,4.7-1.5,7.3-1.6l19.2,2.7C1214.5,109.1,1212.1,109.6,1209.9,110.6"/>
				</g>
			</g>
			<g>
				<polygon class="st2" points="1192.9,129.3 1173.7,126.6 1174,126.5 1193.2,129.3 				"/>
			</g>
			<g>
				<polygon class="st1" points="1180,218.2 1160.8,215.4 1161.4,137.9 1180.6,140.7 				"/>
			</g>
			<g>
				<polygon class="st2" points="1180.2,111.9 1161,109.2 1173,109 1192.2,111.7 				"/>
			</g>
			<g class="st0">
				<defs>
					<path id="SVGID_87_" class="st0" d="M1180.6,140.7l-19.2-2.7c0.1-11,0-20-0.4-28.7l19.2,2.7
						C1180.6,120.7,1180.7,129.7,1180.6,140.7z"/>
				</defs>
				<clipPath id="SVGID_88_">
					<use xlink:href="#SVGID_87_"  style="overflow:visible;"/>
				</clipPath>
				<g class="st56">
					<path class="st9" d="M1180.6,140.7l-19.2-2.7c0.1-11,0-20-0.4-28.7l19.2,2.7C1180.6,120.7,1180.7,129.7,1180.6,140.7"/>
				</g>
			</g>
			<g>
				<path class="st3" d="M1217.2,108.9c0.3,0,0.6,0,0.8,0c10.3-0.2,26.3,8.4,26,44.8l-0.5,63.4l-13.6,0.2l0.5-61.2
					c0.1-17.1-4.2-31.3-17-31.1c-0.2,0-0.3,0-0.5,0c-8.7,0.5-15.5,9.4-17.9,20c-0.6,2.4-1,5.7-1,9l-0.5,63.9l-13.6,0.2l0.6-77.5
					c0.1-11,0-20-0.4-28.7l12-0.2l0.6,17.5l0.3,0C1196.9,119.3,1205.3,109.6,1217.2,108.9z"/>
			</g>
		</g>
		<g class="st0">
			<g>
				<polygon class="st4" points="1147,218.7 1127.8,215.9 1126.9,202.6 1146,205.3 				"/>
			</g>
			<g>
				<polygon class="st1" points="1145.3,182.9 1126.1,180.2 1126.2,161.8 1145.4,164.5 				"/>
			</g>
			<g>
				<polygon class="st1" points="1145.2,151.1 1126,148.4 1126.1,146.2 1145.2,148.9 				"/>
			</g>
			<g class="st0">
				<defs>
					<path id="SVGID_89_" class="st0" d="M1124.5,207l-19.2-2.7c0.6,0.1,1.2,0.1,1.8,0.1c0.2,0,0.4,0,0.6,0
						c9.4-0.5,15.4-9.2,17.6-18c0.5-2,0.8-4.2,0.8-6.2l19.2,2.7c0,2-0.3,4.2-0.8,6.2c-2.2,8.9-8.2,17.6-17.6,18c-0.2,0-0.4,0-0.6,0
						C1125.7,207.1,1125.1,207.1,1124.5,207z"/>
				</defs>
				<clipPath id="SVGID_90_">
					<use xlink:href="#SVGID_89_"  style="overflow:visible;"/>
				</clipPath>
				<g class="st57">
					<path class="st2" d="M1124.5,207l-19.2-2.7c0.6,0.1,1.2,0.1,1.8,0.1c0.2,0,0.4,0,0.6,0c1.8-0.1,3.4-0.5,4.9-1.1l19.2,2.7
						c-1.5,0.6-3.2,1-4.9,1.1c-0.2,0-0.4,0-0.6,0C1125.7,207.1,1125.1,207.1,1124.5,207"/>
					<path class="st7" d="M1131.8,206l-19.2-2.7c1.5-0.6,3-1.5,4.3-2.6l19.2,2.7C1134.8,204.5,1133.4,205.4,1131.8,206"/>
					<path class="st8" d="M1136.1,203.5l-19.2-2.7c1.5-1.2,2.8-2.7,3.9-4.3l19.2,2.7C1138.9,200.8,1137.6,202.2,1136.1,203.5"/>
					<path class="st9" d="M1140,199.2l-19.2-2.7c2.1-3,3.6-6.5,4.5-10.1c0.5-2,0.8-4.2,0.8-6.2l19.2,2.7c0,2-0.3,4.2-0.8,6.2
						C1143.6,192.6,1142.1,196.2,1140,199.2"/>
				</g>
			</g>
			<g class="st0">
				<defs>
					<path id="SVGID_91_" class="st0" d="M1112.3,122l19.2,2.7c12.5,1.8,13.8,16,13.8,24.1l-19.2-2.7
						C1126.1,138,1124.8,123.8,1112.3,122z"/>
				</defs>
				<clipPath id="SVGID_92_">
					<use xlink:href="#SVGID_91_"  style="overflow:visible;"/>
				</clipPath>
				<g class="st58">
					<path class="st9" d="M1145.2,148.9l-19.2-2.7c0.1-8.2-1.3-22.4-13.8-24.1l19.2,2.7C1143.9,126.5,1145.3,140.7,1145.2,148.9"/>
				</g>
			</g>
			<g class="st0">
				<defs>
					<path id="SVGID_93_" class="st0" d="M1119.4,221.3l-19.2-2.7c-12.9-1.8-19.4-15.7-19.3-30c0.2-24.6,15-38.7,41.5-40.1
						c1.2-0.1,2.4-0.1,3.7-0.1l19.2,2.7c-1.2,0-2.5,0-3.7,0.1c-26.5,1.4-41.3,15.5-41.5,40.1C1100,205.5,1106.4,219.4,1119.4,221.3z
						"/>
				</defs>
				<clipPath id="SVGID_94_">
					<use xlink:href="#SVGID_93_"  style="overflow:visible;"/>
				</clipPath>
				<g class="st59">
					<path class="st9" d="M1119.4,221.3l-19.2-2.7c-12.9-1.8-19.4-15.7-19.3-30c0.1-9.6,2.4-17.7,6.8-24l19.2,2.7
						c-4.4,6.3-6.7,14.3-6.8,24C1100,205.5,1106.4,219.4,1119.4,221.3"/>
					<path class="st8" d="M1106.9,167.3l-19.2-2.7c1.7-2.4,3.7-4.6,6-6.5l19.2,2.7C1110.6,162.7,1108.6,164.9,1106.9,167.3"/>
					<path class="st7" d="M1112.9,160.8l-19.2-2.7c2.8-2.3,6.1-4.2,9.8-5.7l19.2,2.7C1119,156.6,1115.7,158.5,1112.9,160.8"/>
					<path class="st2" d="M1122.7,155.1l-19.2-2.7c5.4-2.2,11.7-3.5,18.9-3.9c1.2-0.1,2.4-0.1,3.7-0.1l19.2,2.7
						c-1.2,0-2.5,0-3.7,0.1C1134.4,151.6,1128.1,152.9,1122.7,155.1"/>
				</g>
			</g>
			<g>
				<polygon class="st4" points="1109,132.8 1089.8,130.1 1086.8,117.4 1106,120.1 				"/>
			</g>
			<g class="st0">
				<defs>
					<path id="SVGID_95_" class="st0" d="M1116.2,107.8l19.2,2.7c-1.5-0.2-3.1-0.3-4.8-0.3c-0.4,0-0.9,0-1.3,0
						c-8.9,0.5-17.4,4.2-23.3,9.8l-19.2-2.7c5.9-5.5,14.4-9.3,23.3-9.8c0.4,0,0.9,0,1.3,0C1113.1,107.5,1114.7,107.6,1116.2,107.8z"
						/>
				</defs>
				<clipPath id="SVGID_96_">
					<use xlink:href="#SVGID_95_"  style="overflow:visible;"/>
				</clipPath>
				<g class="st60">
					<path class="st8" d="M1106,120.1l-19.2-2.7c0.5-0.5,1.1-1,1.6-1.4l19.2,2.7C1107.1,119.1,1106.5,119.6,1106,120.1"/>
					<path class="st7" d="M1107.6,118.7l-19.2-2.7c2.8-2.3,6-4.2,9.5-5.6l19.2,2.7C1113.6,114.5,1110.4,116.4,1107.6,118.7"/>
					<path class="st2" d="M1117.1,113.1l-19.2-2.7c3.8-1.6,7.9-2.5,12.2-2.7c0.4,0,0.9,0,1.3,0c1.7,0,3.3,0.1,4.8,0.3l19.2,2.7
						c-1.5-0.2-3.1-0.3-4.8-0.3c-0.4,0-0.9,0-1.3,0C1125,110.5,1120.9,111.5,1117.1,113.1"/>
				</g>
			</g>
			<g>
				<path class="st3" d="M1158.6,153.3l-0.3,39.7c-0.1,9.2,0.2,18.2,1,25.4l-12.3,0.2l-1-13.4l-0.5,0c-4.1,8.2-11.9,15.6-22.1,16.1
					c-0.3,0-0.5,0-0.8,0c-15.1,0.2-22.7-14.8-22.6-30.2c0.2-24.6,15-38.7,41.5-40.1c1.2-0.1,2.4-0.1,3.7-0.1l0-2.2
					c0.1-8.8-1.5-24.6-16.8-24.3c-0.3,0-0.6,0-0.9,0c-6.7,0.3-13.6,3.5-18.6,8.2l-3-12.7c5.9-5.5,14.4-9.3,23.3-9.8
					c0.4,0,0.9,0,1.3,0C1153.4,109.9,1158.8,132,1158.6,153.3z M1145.3,182.9l0.1-18.4c-1.5,0-3.1,0-4.6,0.1
					c-13.5,0.7-27.1,5.8-27.2,24.3c-0.1,12.5,5.7,18.4,12.6,18.2c0.2,0,0.4,0,0.6,0c9.4-0.5,15.4-9.2,17.6-18
					C1144.9,187.1,1145.3,184.9,1145.3,182.9"/>
			</g>
		</g>
		<g class="st0">
			<g>
				<polygon class="st1" points="1070.1,219.9 1050.9,217.1 1051.4,156.1 1070.6,158.8 				"/>
			</g>
			<g class="st0">
				<defs>
					<path id="SVGID_97_" class="st0" d="M1036.7,124.9l19.2,2.7c10.9,1.6,14.7,15.2,14.6,31.2l-19.2-2.7
						C1051.5,140.1,1047.7,126.5,1036.7,124.9z"/>
				</defs>
				<clipPath id="SVGID_98_">
					<use xlink:href="#SVGID_97_"  style="overflow:visible;"/>
				</clipPath>
				<g class="st61">
					<path class="st9" d="M1070.6,158.8l-19.2-2.7c0.1-16-3.7-29.6-14.6-31.2l19.2,2.7C1066.9,129.2,1070.7,142.8,1070.6,158.8"/>
				</g>
			</g>
			<g class="st0">
				<defs>
					<path id="SVGID_99_" class="st0" d="M1042,108.9l19.2,2.7c-1-0.1-1.9-0.2-2.8-0.2c-0.2,0-0.4,0-0.6,0
						c-4.9,0.3-9.4,2.5-13.3,5.7l-19.2-2.7c3.9-3.2,8.4-5.4,13.3-5.7c0.2,0,0.4,0,0.6,0C1040.1,108.7,1041.1,108.7,1042,108.9z"/>
				</defs>
				<clipPath id="SVGID_100_">
					<use xlink:href="#SVGID_99_"  style="overflow:visible;"/>
				</clipPath>
				<g class="st62">
					<path class="st8" d="M1044.5,117.1l-19.2-2.7c0.1,0,0.1-0.1,0.2-0.1l19.2,2.7C1044.6,117,1044.6,117.1,1044.5,117.1"/>
					<path class="st7" d="M1044.7,117l-19.2-2.7c2.1-1.7,4.3-3.1,6.7-4.1l19.2,2.7C1049,113.9,1046.7,115.3,1044.7,117"/>
					<path class="st2" d="M1051.4,112.9l-19.2-2.7c2.1-0.8,4.2-1.4,6.4-1.5c0.2,0,0.4,0,0.6,0c0.9,0,1.8,0,2.8,0.2l19.2,2.7
						c-1-0.1-1.9-0.2-2.8-0.2c-0.2,0-0.4,0-0.6,0C1055.6,111.5,1053.4,112.1,1051.4,112.9"/>
				</g>
			</g>
			<g class="st0">
				<defs>
					<path id="SVGID_101_" class="st0" d="M1034.4,130.9l-19.2-2.7c2.5-5.5,5.9-10.4,10.1-13.8l19.2,2.7
						C1040.3,120.5,1036.9,125.3,1034.4,130.9z"/>
				</defs>
				<clipPath id="SVGID_102_">
					<use xlink:href="#SVGID_101_"  style="overflow:visible;"/>
				</clipPath>
				<g class="st63">
					<path class="st9" d="M1034.4,130.9l-19.2-2.7c1.2-2.6,2.5-5,4-7.2l19.2,2.7C1036.9,125.9,1035.6,128.3,1034.4,130.9"/>
					<path class="st8" d="M1038.4,123.7l-19.2-2.7c1.7-2.5,3.7-4.7,5.8-6.4l19.2,2.7C1042.1,119.1,1040.2,121.2,1038.4,123.7"/>
					<path class="st7" d="M1044.3,117.3l-19.2-2.7c0.1-0.1,0.2-0.1,0.2-0.2l19.2,2.7C1044.4,117.2,1044.4,117.2,1044.3,117.3"/>
				</g>
			</g>
			<g>
				<path class="st3" d="M1021.3,64.8l13.6-0.2l-0.5,66.3c2.5-5.5,5.9-10.4,10.1-13.8c3.9-3.2,8.4-5.4,13.3-5.7c0.2,0,0.4,0,0.6,0
					c10-0.2,26,8.4,25.7,45l-0.5,63.2l-13.6,0.2l0.5-61c0.1-17.1-4.2-31.5-17-31.3c-0.2,0-0.3,0-0.5,0c-8.6,0.4-15.4,9.2-17.9,19.6
					c-0.8,2.6-1,5.5-1,9.2l-0.5,64.1l-13.6,0.2L1021.3,64.8z"/>
			</g>
			<g>
				<polygon class="st2" points="1021.3,64.8 1002.1,62.1 1015.7,61.9 1034.9,64.6 				"/>
			</g>
			<g>
				<polygon class="st1" points="1020.1,220.6 1001,217.9 1002.1,62.1 1021.3,64.8 				"/>
			</g>
		</g>
		<g class="st0">
			<g>
				<polygon class="st1" points="986.9,89.9 967.7,87.2 967.7,86.5 986.9,89.2 				"/>
			</g>
			<g>
				<polygon class="st2" points="946.1,205.8 926.9,203.1 985,202.1 1004.2,204.9 				"/>
			</g>
			<g>
				<polygon class="st1" points="928.3,222.1 909.1,219.4 909.2,208.2 928.4,210.9 				"/>
			</g>
			<g>
				<polygon class="st64" points="928.4,210.9 909.2,208.2 967.7,87.2 986.9,89.9 				"/>
			</g>
			<g>
				<polygon class="st1" points="934.2,90.1 915,87.4 915.1,71.3 934.3,74 				"/>
			</g>
			<g>
				<polygon class="st2" points="934.3,74 915.1,71.3 985.3,70.2 1004.5,72.9 				"/>
			</g>
			<g>
				<polygon class="st3" points="934.3,74 1004.5,72.9 1004.4,84.6 946.1,205.1 946.1,205.8 1004.2,204.9 1004.1,220.9 928.3,222.1 
					928.4,210.9 986.9,89.9 986.9,89.2 934.2,90.1 				"/>
			</g>
		</g>
	</g>
</g>
</svg>
