<?xml version="1.0" encoding="utf-8"?>
<!-- Generator: Adobe Illustrator 22.0.1, SVG Export Plug-In . SVG Version: 6.00 Build 0)  -->
<svg version="1.1" id="Layer_1" xmlns="http://www.w3.org/2000/svg" xmlns:xlink="http://www.w3.org/1999/xlink" x="0px" y="0px"
	 viewBox="0 0 1366 300" style="enable-background:new 0 0 1366 300;" xml:space="preserve">
<style type="text/css">
	.st0{enable-background:new    ;}
	.st1{fill:#810000;}
	.st2{fill:#950000;}
	.st3{fill:#EB0000;}
	.st4{fill:#800000;}
	.st5{fill:#920000;}
	.st6{clip-path:url(#SVGID_2_);enable-background:new    ;}
	.st7{fill:#940000;}
	.st8{clip-path:url(#SVGID_4_);enable-background:new    ;}
	.st9{fill:#8F0000;}
	.st10{fill:#8A0000;}
	.st11{fill:#850000;}
	.st12{clip-path:url(#SVGID_6_);enable-background:new    ;}
	.st13{clip-path:url(#SVGID_8_);enable-background:new    ;}
	.st14{clip-path:url(#SVGID_10_);enable-background:new    ;}
	.st15{clip-path:url(#SVGID_12_);enable-background:new    ;}
	.st16{fill:#8C0000;}
	.st17{clip-path:url(#SVGID_14_);enable-background:new    ;}
	.st18{clip-path:url(#SVGID_16_);enable-background:new    ;}
	.st19{clip-path:url(#SVGID_18_);enable-background:new    ;}
	.st20{clip-path:url(#SVGID_20_);enable-background:new    ;}
	.st21{clip-path:url(#SVGID_22_);enable-background:new    ;}
	.st22{clip-path:url(#SVGID_24_);enable-background:new    ;}
	.st23{clip-path:url(#SVGID_26_);enable-background:new    ;}
	.st24{clip-path:url(#SVGID_28_);enable-background:new    ;}
	.st25{clip-path:url(#SVGID_30_);enable-background:new    ;}
	.st26{fill:#860000;}
	.st27{fill:#840000;}
	.st28{clip-path:url(#SVGID_32_);enable-background:new    ;}
	.st29{clip-path:url(#SVGID_34_);enable-background:new    ;}
	.st30{clip-path:url(#SVGID_36_);enable-background:new    ;}
	.st31{clip-path:url(#SVGID_38_);enable-background:new    ;}
	.st32{clip-path:url(#SVGID_40_);enable-background:new    ;}
	.st33{clip-path:url(#SVGID_42_);enable-background:new    ;}
	.st34{clip-path:url(#SVGID_44_);enable-background:new    ;}
	.st35{clip-path:url(#SVGID_46_);enable-background:new    ;}
	.st36{clip-path:url(#SVGID_48_);enable-background:new    ;}
	.st37{clip-path:url(#SVGID_50_);enable-background:new    ;}
	.st38{clip-path:url(#SVGID_52_);enable-background:new    ;}
	.st39{clip-path:url(#SVGID_54_);enable-background:new    ;}
	.st40{clip-path:url(#SVGID_56_);enable-background:new    ;}
	.st41{clip-path:url(#SVGID_58_);enable-background:new    ;}
	.st42{clip-path:url(#SVGID_60_);enable-background:new    ;}
	.st43{clip-path:url(#SVGID_62_);enable-background:new    ;}
	.st44{clip-path:url(#SVGID_64_);enable-background:new    ;}
	.st45{clip-path:url(#SVGID_66_);enable-background:new    ;}
	.st46{clip-path:url(#SVGID_68_);enable-background:new    ;}
	.st47{clip-path:url(#SVGID_70_);enable-background:new    ;}
	.st48{clip-path:url(#SVGID_72_);enable-background:new    ;}
	.st49{clip-path:url(#SVGID_74_);enable-background:new    ;}
	.st50{clip-path:url(#SVGID_76_);enable-background:new    ;}
	.st51{clip-path:url(#SVGID_78_);enable-background:new    ;}
	.st52{clip-path:url(#SVGID_80_);enable-background:new    ;}
	.st53{clip-path:url(#SVGID_82_);enable-background:new    ;}
	.st54{clip-path:url(#SVGID_84_);enable-background:new    ;}
	.st55{clip-path:url(#SVGID_86_);enable-background:new    ;}
	.st56{clip-path:url(#SVGID_88_);enable-background:new    ;}
	.st57{clip-path:url(#SVGID_90_);enable-background:new    ;}
	.st58{clip-path:url(#SVGID_92_);enable-background:new    ;}
	.st59{clip-path:url(#SVGID_94_);enable-background:new    ;}
	.st60{clip-path:url(#SVGID_96_);enable-background:new    ;}
	.st61{clip-path:url(#SVGID_98_);enable-background:new    ;}
	.st62{fill:#880000;}
</style>
<g>
	<g>
		<g class="st0">
			<g>
				<polygon class="st1" points="338.7,243.4 319.5,240.7 316.6,116.2 335.8,118.9 				"/>
			</g>
			<g>
				<polygon class="st2" points="336.9,100.8 317.7,98.1 329.2,97.5 348.4,100.2 				"/>
			</g>
			<g>
				<polygon class="st3" points="348.4,100.2 351.8,242.7 338.7,243.4 335.8,118.9 335.5,118.9 318.4,133.2 315.4,118.6 
					336.9,100.8 				"/>
			</g>
			<g>
				<polygon class="st4" points="318.4,133.2 299.2,130.4 296.2,115.9 315.4,118.6 				"/>
			</g>
			<g>
				<polygon class="st5" points="315.4,118.6 296.2,115.9 317.7,98.1 336.9,100.8 				"/>
			</g>
		</g>
		<g class="st0">
			<g class="st0">
				<defs>
					<path id="SVGID_1_" class="st0" d="M260.4,234.8l-19.2-2.7c0.7,0.1,1.3,0.1,2,0.1l19.2,2.7
						C261.7,234.9,261.1,234.9,260.4,234.8z"/>
				</defs>
				<clipPath id="SVGID_2_">
					<use xlink:href="#SVGID_1_"  style="overflow:visible;"/>
				</clipPath>
				<g class="st6">
					<path class="st7" d="M260.4,234.8l-19.2-2.7c0.7,0.1,1.3,0.1,2,0.1l19.2,2.7C261.7,234.9,261.1,234.9,260.4,234.8"/>
				</g>
			</g>
			<g class="st0">
				<defs>
					<path id="SVGID_3_" class="st0" d="M242.9,114.7l19.2,2.7c12.5,1.8,18.6,23.8,19.4,57c0.9,36.4-5.2,59.8-19.1,60.5l-19.2-2.7
						c13.9-0.7,20-24.1,19.1-60.5C261.6,138.5,255.4,116.5,242.9,114.7z"/>
				</defs>
				<clipPath id="SVGID_4_">
					<use xlink:href="#SVGID_3_"  style="overflow:visible;"/>
				</clipPath>
				<g class="st8">
					<path class="st7" d="M262.4,234.9l-19.2-2.7c1.3-0.1,2.6-0.4,3.8-0.8l19.2,2.7C265,234.5,263.8,234.8,262.4,234.9"/>
					<path class="st9" d="M266.2,234l-19.2-2.7c1.2-0.5,2.2-1.1,3.3-2l19.2,2.7C268.5,232.9,267.4,233.6,266.2,234"/>
					<path class="st10" d="M269.5,232.1l-19.2-2.7c1.2-1,2.2-2.2,3.2-3.6l19.2,2.7C271.8,229.9,270.7,231.1,269.5,232.1"/>
					<path class="st11" d="M272.7,228.5l-19.2-2.7c6.6-9.4,9.4-28.5,8.8-54.1c-0.8-33.1-6.9-55.2-19.4-57l19.2,2.7
						c12.5,1.8,18.6,23.8,19.4,57C282.1,200,279.3,219.1,272.7,228.5"/>
				</g>
			</g>
			<g class="st0">
				<defs>
					<path id="SVGID_5_" class="st0" d="M245.5,99.8l19.2,2.7c-1.4-0.2-2.9-0.3-4.5-0.2L241,99.7C242.6,99.6,244.1,99.6,245.5,99.8z
						"/>
				</defs>
				<clipPath id="SVGID_6_">
					<use xlink:href="#SVGID_5_"  style="overflow:visible;"/>
				</clipPath>
				<g class="st12">
					<path class="st7" d="M260.2,102.4L241,99.7c1.5-0.1,3,0,4.5,0.2l19.2,2.7C263.3,102.4,261.8,102.3,260.2,102.4"/>
				</g>
			</g>
			<g>
				<path class="st3" d="M260.2,102.4c21.1-1.1,33.8,25,34.8,70.4c1.1,48.5-10.9,75.9-33.1,77c-19.6,1-33.4-24.4-34.9-71.5
					C226,130.5,239.9,103.4,260.2,102.4z M262.4,234.9c13.9-0.7,20-24.1,19.1-60.5c-0.8-35.1-7.7-57.8-21.7-57.1
					c-11.9,0.6-20,21.7-19.1,60.5C241.6,214.9,250.1,235.5,262.4,234.9"/>
			</g>
			<g class="st0">
				<defs>
					<path id="SVGID_7_" class="st0" d="M258,249.6l-19.2-2.7c-17.4-2.5-29.5-27.5-30.8-71.3c-1.1-47.8,12.7-74.9,33.1-75.9
						l19.2,2.7c-20.3,1.1-34.2,28.1-33.1,75.9C228.5,222.1,240.6,247.2,258,249.6z"/>
				</defs>
				<clipPath id="SVGID_8_">
					<use xlink:href="#SVGID_7_"  style="overflow:visible;"/>
				</clipPath>
				<g class="st13">
					<path class="st11" d="M258,249.6l-19.2-2.7c-17.4-2.5-29.5-27.5-30.8-71.3c-0.7-29.5,4.3-51.1,13-63.5l19.2,2.7
						c-8.7,12.5-13.7,34.1-13,63.5C228.5,222.1,240.6,247.2,258,249.6"/>
					<path class="st10" d="M240.2,114.8l-19.2-2.7c1.9-2.7,4-5,6.3-6.9l19.2,2.7C244.2,109.7,242.1,112,240.2,114.8"/>
					<path class="st9" d="M246.4,107.9l-19.2-2.7c2-1.7,4.2-3,6.5-3.9l19.2,2.7C250.6,104.9,248.4,106.2,246.4,107.9"/>
					<path class="st7" d="M252.9,104l-19.2-2.7c2.3-0.9,4.8-1.5,7.4-1.6l19.2,2.7C257.7,102.5,255.2,103.1,252.9,104"/>
				</g>
			</g>
		</g>
		<g class="st0">
			<g>
				<polygon class="st2" points="169.7,236.2 150.5,233.5 195.5,231.1 214.7,233.8 				"/>
			</g>
			<g class="st0">
				<defs>
					<path id="SVGID_9_" class="st0" d="M165.1,104.1l19.2,2.7c-1.8-0.3-3.7-0.3-5.7-0.2l-19.2-2.7
						C161.4,103.8,163.3,103.9,165.1,104.1z"/>
				</defs>
				<clipPath id="SVGID_10_">
					<use xlink:href="#SVGID_9_"  style="overflow:visible;"/>
				</clipPath>
				<g class="st14">
					<path class="st7" d="M178.6,106.6l-19.2-2.7c2-0.1,3.9,0,5.7,0.2l19.2,2.7C182.5,106.6,180.6,106.5,178.6,106.6"/>
				</g>
			</g>
			<g class="st0">
				<defs>
					<path id="SVGID_11_" class="st0" d="M161.1,120.2l19.2,2.7c11.8,1.7,16.1,13.6,16.4,26.7c0.3,21.5-10.8,40.5-35.5,76.5
						l-19.2-2.7c24.8-36,35.9-55,35.5-76.5C177.2,133.8,172.9,121.9,161.1,120.2z"/>
				</defs>
				<clipPath id="SVGID_12_">
					<use xlink:href="#SVGID_11_"  style="overflow:visible;"/>
				</clipPath>
				<g class="st15">
					<path class="st11" d="M161.2,226.1l-19.2-2.7c24.8-36,35.9-55,35.5-76.5c-0.3-13-4.6-25-16.4-26.7l19.2,2.7
						c11.8,1.7,16.1,13.6,16.4,26.7C197,171.1,185.9,190.1,161.2,226.1"/>
				</g>
			</g>
			<g>
				<polygon class="st1" points="151.1,253.2 132,250.4 131.7,238.6 150.9,241.3 				"/>
			</g>
			<g>
				<polygon class="st16" points="150.9,241.3 131.7,238.6 142,223.4 161.2,226.1 				"/>
			</g>
			<g class="st0">
				<defs>
					<path id="SVGID_13_" class="st0" d="M150.5,122.6l-19.2-2.7c6.7-8.7,16.5-15.3,28-15.9l19.2,2.7
						C167,107.2,157.3,113.9,150.5,122.6z"/>
				</defs>
				<clipPath id="SVGID_14_">
					<use xlink:href="#SVGID_13_"  style="overflow:visible;"/>
				</clipPath>
				<g class="st17">
					<path class="st10" d="M150.5,122.6l-19.2-2.7c2.1-2.8,4.6-5.3,7.3-7.5l19.2,2.7C155.1,117.3,152.7,119.8,150.5,122.6"/>
					<path class="st9" d="M157.8,115l-19.2-2.7c3-2.5,6.3-4.5,9.9-6l19.2,2.7C164.1,110.5,160.8,112.6,157.8,115"/>
					<path class="st7" d="M167.7,109.1l-19.2-2.7c3.4-1.4,7-2.2,10.8-2.4l19.2,2.7C174.7,106.8,171.1,107.7,167.7,109.1"/>
				</g>
			</g>
			<g>
				<polygon class="st4" points="155.2,135.9 136,133.2 131.3,119.8 150.5,122.6 				"/>
			</g>
			<g>
				<path class="st3" d="M178.6,106.6c21.6-1.1,31.2,19.5,31.6,39.9c0.6,26.3-12.3,48.3-32.7,78.3l-7.8,10.9l0,0.4l45-2.3l0.4,16
					l-64,3.3l-0.3-11.8l10.3-15.2c24.8-36,35.9-55,35.5-76.5c-0.3-14.5-5.6-27.6-20.5-26.8c-9.1,0.5-16.5,7.4-21,13.2l-4.6-13.4
					C157.3,113.9,167,107.2,178.6,106.6z"/>
			</g>
		</g>
		<g class="st0">
			<g class="st0">
				<defs>
					<path id="SVGID_15_" class="st0" d="M75.1,120.6l19.2,2.7c19.3,2.7,34.2,26.3,34.9,56.3c0.8,33.3-15.6,59.9-37.3,61l-19.2-2.7
						c21.7-1.1,38.1-27.7,37.3-61C109.3,146.9,94.4,123.4,75.1,120.6z"/>
				</defs>
				<clipPath id="SVGID_16_">
					<use xlink:href="#SVGID_15_"  style="overflow:visible;"/>
				</clipPath>
				<g class="st18">
					<path class="st7" d="M91.9,240.7l-19.2-2.7c3.2-0.2,6.2-0.9,9.1-2l19.2,2.7C98.1,239.8,95.1,240.5,91.9,240.7"/>
					<path class="st9" d="M101,238.6l-19.2-2.7c2.9-1.2,5.7-2.9,8.3-5l19.2,2.7C106.7,235.7,103.9,237.4,101,238.6"/>
					<path class="st10" d="M109.3,233.6l-19.2-2.7c2.9-2.4,5.5-5.3,7.9-8.7l19.2,2.7C114.9,228.3,112.2,231.2,109.3,233.6"/>
					<path class="st11" d="M117.2,224.9l-19.2-2.7c7.8-11.1,12.4-27.2,12-45.3c-0.7-30-15.6-53.6-34.9-56.3l19.2,2.7
						c19.3,2.7,34.2,26.3,34.9,56.3C129.6,197.7,125,213.8,117.2,224.9"/>
				</g>
			</g>
			<g class="st0">
				<defs>
					<path id="SVGID_17_" class="st0" d="M95.3,213l-19.2-2.7c6.2-0.3,12-3,15.4-6.5l19.2,2.7C107.2,210,101.4,212.7,95.3,213z"/>
				</defs>
				<clipPath id="SVGID_18_">
					<use xlink:href="#SVGID_17_"  style="overflow:visible;"/>
				</clipPath>
				<g class="st19">
					<path class="st7" d="M95.3,213l-19.2-2.7c2.9-0.1,5.7-0.8,8.2-1.9l19.2,2.7C101,212.2,98.1,212.9,95.3,213"/>
					<path class="st9" d="M103.5,211.2l-19.2-2.7c2.2-0.9,4.3-2.1,5.9-3.5l19.2,2.7C107.7,209.1,105.7,210.3,103.5,211.2"/>
					<path class="st10" d="M109.4,207.7L90.2,205c0.5-0.4,0.9-0.8,1.3-1.2l19.2,2.7C110.3,206.9,109.9,207.3,109.4,207.7"/>
				</g>
			</g>
			<g class="st0">
				<defs>
					<path id="SVGID_19_" class="st0" d="M91.4,212.9l-19.2-2.7c1.2,0.2,2.5,0.2,3.8,0.2l19.2,2.7C93.9,213.1,92.6,213,91.4,212.9z"
						/>
				</defs>
				<clipPath id="SVGID_20_">
					<use xlink:href="#SVGID_19_"  style="overflow:visible;"/>
				</clipPath>
				<g class="st20">
					<path class="st7" d="M91.4,212.9l-19.2-2.7c1.2,0.2,2.5,0.2,3.8,0.2l19.2,2.7C93.9,213.1,92.6,213,91.4,212.9"/>
				</g>
			</g>
			<g class="st0">
				<defs>
					<path id="SVGID_21_" class="st0" d="M86.5,240.4l-19.2-2.7c1.8,0.3,3.6,0.3,5.4,0.2l19.2,2.7C90.1,240.7,88.3,240.7,86.5,240.4
						z"/>
				</defs>
				<clipPath id="SVGID_22_">
					<use xlink:href="#SVGID_21_"  style="overflow:visible;"/>
				</clipPath>
				<g class="st21">
					<path class="st7" d="M86.5,240.4l-19.2-2.7c1.8,0.3,3.6,0.3,5.4,0.2l19.2,2.7C90.1,240.7,88.3,240.7,86.5,240.4"/>
				</g>
			</g>
			<g class="st0">
				<defs>
					<path id="SVGID_23_" class="st0" d="M78.9,148.9l19.2,2.7c5.1,0.7,9,2.9,10.6,4.1L89.5,153C87.9,151.9,84,149.6,78.9,148.9z"/>
				</defs>
				<clipPath id="SVGID_24_">
					<use xlink:href="#SVGID_23_"  style="overflow:visible;"/>
				</clipPath>
				<g class="st22">
					<path class="st11" d="M108.7,155.7L89.5,153c-1.6-1.1-5.5-3.3-10.6-4.1l19.2,2.7C103.2,152.3,107.1,154.6,108.7,155.7"/>
				</g>
			</g>
			<g class="st0">
				<defs>
					<path id="SVGID_25_" class="st0" d="M76.1,111.7l19.2,2.7c-2.1-0.3-4.2-0.4-6.4-0.3l-19.2-2.7C71.9,111.3,74,111.4,76.1,111.7z
						"/>
				</defs>
				<clipPath id="SVGID_26_">
					<use xlink:href="#SVGID_25_"  style="overflow:visible;"/>
				</clipPath>
				<g class="st23">
					<path class="st7" d="M88.9,114.1l-19.2-2.7c2.2-0.1,4.3,0,6.4,0.3l19.2,2.7C93.2,114.1,91.1,114,88.9,114.1"/>
				</g>
			</g>
			<g>
				<path class="st3" d="M95.3,213c6.2-0.3,12-3,15.4-6.5l2,8.2c-5.3,5.3-12.3,7.5-18.8,7.8c-17.9,0.9-28.6-16.1-29.1-38.2
					c-0.6-25,12.9-41.5,28.5-42.3c8-0.4,15,2.5,17.1,5l-1.7,8.7c-2-1.4-7.8-4.6-15.1-4.3c-14.5,0.8-21.3,14.3-20.9,31.8
					C73.2,200.3,81.1,213.8,95.3,213z"/>
			</g>
			<g class="st0">
				<defs>
					<path id="SVGID_27_" class="st0" d="M89.1,222.3l-19.2-2.7c-15-2.1-23.8-18-24.3-38c-0.6-25,12.9-41.5,28.5-42.3
						c2-0.1,4,0,5.8,0.3l19.2,2.7c-1.8-0.3-3.8-0.4-5.8-0.3c-15.6,0.8-29.1,17.3-28.5,42.3C65.3,204.4,74.1,220.2,89.1,222.3z"/>
				</defs>
				<clipPath id="SVGID_28_">
					<use xlink:href="#SVGID_27_"  style="overflow:visible;"/>
				</clipPath>
				<g class="st24">
					<path class="st11" d="M89.1,222.3l-19.2-2.7c-15-2.1-23.8-18-24.3-38c-0.3-12.3,2.9-22.6,8-30l19.2,2.7c-5.1,7.3-8.3,17.6-8,30
						C65.3,204.4,74.1,220.2,89.1,222.3"/>
					<path class="st10" d="M72.8,154.4l-19.2-2.7c1.8-2.5,3.8-4.7,6-6.5l19.2,2.7C76.6,149.6,74.6,151.8,72.8,154.4"/>
					<path class="st9" d="M78.8,147.8l-19.2-2.7c2.1-1.8,4.4-3.1,6.9-4.1l19.2,2.7C83.2,144.7,80.9,146.1,78.8,147.8"/>
					<path class="st7" d="M85.6,143.7L66.4,141c2.5-1,5-1.6,7.7-1.7c2-0.1,4,0,5.8,0.3l19.2,2.7c-1.8-0.3-3.8-0.4-5.8-0.3
						C90.7,142.1,88.1,142.7,85.6,143.7"/>
				</g>
			</g>
			<g class="st0">
				<defs>
					<path id="SVGID_29_" class="st0" d="M85.7,249.4l-19.2-2.7c-23.2-3.3-41.2-30.7-42-65.3c-0.9-37.3,19.1-68.6,45.3-70l19.2,2.7
						c-26.2,1.4-46.1,32.7-45.3,70C44.5,218.7,62.5,246.1,85.7,249.4z"/>
				</defs>
				<clipPath id="SVGID_30_">
					<use xlink:href="#SVGID_29_"  style="overflow:visible;"/>
				</clipPath>
				<g class="st25">
					<path class="st11" d="M85.7,249.4l-19.2-2.7c-23.2-3.3-41.2-30.7-42-65.3c-0.5-19.6,4.9-37.6,13.8-50.4l19.2,2.7
						c-9,12.8-14.3,30.8-13.8,50.4C44.5,218.7,62.5,246.1,85.7,249.4"/>
					<path class="st10" d="M57.5,133.6l-19.2-2.7c2.9-4.1,6.2-7.8,9.8-10.7l19.2,2.7C63.7,125.9,60.4,129.5,57.5,133.6"/>
					<path class="st9" d="M67.2,122.9l-19.2-2.7c3.2-2.7,6.7-4.8,10.4-6.3l19.2,2.7C74,118.2,70.5,120.3,67.2,122.9"/>
					<path class="st7" d="M77.6,116.7l-19.2-2.7c3.6-1.5,7.4-2.3,11.3-2.5l19.2,2.7C85,114.3,81.2,115.2,77.6,116.7"/>
				</g>
			</g>
			<g>
				<path class="st3" d="M88.9,114.1c26-1.4,47.1,27.9,48,65.1c0.9,37.7-18.7,69-44.8,70.4c-26.2,1.4-47.6-27.8-48.4-65.6
					C42.8,146.8,62.7,115.5,88.9,114.1z M91.9,240.7c21.7-1.1,38.1-27.7,37.3-61c-0.8-32.7-18.3-57.7-40.1-56.5
					c-22.2,1.2-38.5,27.9-37.8,61.2C52.2,217,69.7,241.8,91.9,240.7"/>
			</g>
		</g>
		<g class="st0">
			<g>
				<polygon class="st1" points="436.2,112.1 417,109.4 417,109 436.2,111.7 				"/>
			</g>
			<g>
				<polygon class="st26" points="395.7,240.5 376.5,237.7 417,109.4 436.2,112.1 				"/>
			</g>
			<g>
				<polygon class="st3" points="450,94.9 450.3,107.6 409.7,239.7 395.7,240.5 436.2,112.1 436.2,111.7 387.2,114.2 386.8,98.2 
									"/>
			</g>
			<g>
				<polygon class="st1" points="387.2,114.2 368,111.5 367.6,95.5 386.8,98.2 				"/>
			</g>
			<g>
				<polygon class="st2" points="386.8,98.2 367.6,95.5 430.8,92.2 450,94.9 				"/>
			</g>
		</g>
		<g class="st0">
			<g>
				<polygon class="st3" points="696.5,224.8 694,118.7 707.6,118 710.1,224.1 				"/>
			</g>
			<g>
				<polygon class="st1" points="696.5,224.8 677.3,222.1 674.9,116 694,118.7 				"/>
			</g>
			<g>
				<polygon class="st2" points="694,118.7 674.9,116 688.4,115.3 707.6,118 				"/>
			</g>
		</g>
		<g class="st0">
			<g>
				<polygon class="st2" points="667.4,120.1 648.2,117.4 662.5,116.6 681.7,119.3 				"/>
			</g>
			<g>
				<polygon class="st27" points="654.1,183.1 634.9,180.4 648.2,117.4 667.4,120.1 				"/>
			</g>
			<g class="st0">
				<defs>
					<path id="SVGID_31_" class="st0" d="M649.5,205.5l-19.2-2.7c1.5-6.4,2.9-14.6,4.6-22.4l19.2,2.7
						C652.4,190.9,651,199.1,649.5,205.5z"/>
				</defs>
				<clipPath id="SVGID_32_">
					<use xlink:href="#SVGID_31_"  style="overflow:visible;"/>
				</clipPath>
				<g class="st28">
					<path class="st11" d="M649.5,205.5l-19.2-2.7c1.5-6.4,2.9-14.6,4.6-22.4l19.2,2.7C652.4,190.9,651,199.1,649.5,205.5"/>
				</g>
			</g>
			<g class="st0">
				<defs>
					<path id="SVGID_33_" class="st0" d="M630.7,251.1l-19.2-2.7c3.6-4.4,8-12.1,10.9-22.1c0.6-2,1-3.6,1-4.7c0-1.1-0.4-2.6-1-5
						l19.2,2.7c0.7,2.4,1,3.9,1,5c0,1.1-0.4,2.7-1,4.7C638.7,239,634.3,246.7,630.7,251.1z"/>
				</defs>
				<clipPath id="SVGID_34_">
					<use xlink:href="#SVGID_33_"  style="overflow:visible;"/>
				</clipPath>
				<g class="st29">
					<path class="st10" d="M630.7,251.1l-19.2-2.7c0.6-0.7,1.2-1.5,1.9-2.5l19.2,2.7C631.9,249.5,631.3,250.4,630.7,251.1"/>
					<path class="st11" d="M632.5,248.6l-19.2-2.7c3.2-4.5,6.7-11.3,9-19.6c0.6-2,1-3.6,1-4.7c0-1.1-0.4-2.6-1-5l19.2,2.7
						c0.7,2.4,1,3.9,1,5c0,1.1-0.4,2.7-1,4.7C639.2,237.4,635.7,244.1,632.5,248.6"/>
				</g>
			</g>
			<g>
				<polygon class="st4" points="622.8,277.2 603.6,274.5 599.8,258.4 619,261.1 				"/>
			</g>
			<g class="st0">
				<defs>
					<path id="SVGID_35_" class="st0" d="M619,261.1l-19.2-2.7c3.4-1.7,7.8-5,11.6-10.1l19.2,2.7C626.8,256.1,622.4,259.4,619,261.1
						z"/>
				</defs>
				<clipPath id="SVGID_36_">
					<use xlink:href="#SVGID_35_"  style="overflow:visible;"/>
				</clipPath>
				<g class="st30">
					<path class="st9" d="M619,261.1l-19.2-2.7c1.6-0.8,3.5-2,5.4-3.6l19.2,2.7C622.5,259.1,620.6,260.3,619,261.1"/>
					<path class="st10" d="M624.4,257.5l-19.2-2.7c2.1-1.7,4.2-3.8,6.2-6.4l19.2,2.7C628.6,253.7,626.5,255.8,624.4,257.5"/>
				</g>
			</g>
			<g>
				<polygon class="st4" points="641.5,219.4 622.3,216.6 592.4,120.3 611.6,123 				"/>
			</g>
			<g>
				<path class="st3" d="M681.7,119.3l-18.6,76.7c-8.8,36.9-15,55.9-24,67.8c-6.4,8.7-13,12.3-16.3,13.4l-3.8-16
					c3.4-1.7,7.8-5,11.6-10.1c3.6-4.4,8-12.1,10.9-22.1c0.6-2,1-3.6,1-4.7c0-1.1-0.4-2.6-1-5L611.6,123l14.8-0.8l17.8,61.9
					c1.9,6.9,3.9,15.2,5.3,21.5c1.5-6.4,2.9-14.6,4.6-22.4l13.3-63L681.7,119.3z"/>
			</g>
			<g>
				<polygon class="st2" points="611.6,123 592.4,120.3 607.2,119.5 626.4,122.2 				"/>
			</g>
		</g>
		<g class="st0">
			<g>
				<polygon class="st3" points="587.9,230.5 585.4,124.3 599,123.6 601.5,229.8 				"/>
			</g>
			<g>
				<polygon class="st1" points="587.9,230.5 568.7,227.8 566.2,121.6 585.4,124.3 				"/>
			</g>
			<g>
				<polygon class="st2" points="585.4,124.3 566.2,121.6 579.8,120.9 599,123.6 				"/>
			</g>
		</g>
		<g class="st0">
			<g>
				<path class="st3" d="M591.4,106c-4.8,0.2-8.3-4.8-8.4-11.4c-0.2-6.8,3.3-12.2,8.2-12.5c5.1-0.3,8.4,4.8,8.6,11.6
					C600.1,100.3,596.8,105.7,591.4,106z"/>
			</g>
			<g class="st0">
				<defs>
					<path id="SVGID_37_" class="st0" d="M590.2,106l-19.2-2.7c-4.2-0.6-7.1-5.4-7.2-11.4c-0.2-6.8,3.3-12.2,8.2-12.5
						c0.5,0,0.9,0,1.3,0.1l19.2,2.7c-0.4-0.1-0.9-0.1-1.3-0.1c-4.9,0.3-8.4,5.7-8.2,12.5C583.1,100.6,586.1,105.4,590.2,106z"/>
				</defs>
				<clipPath id="SVGID_38_">
					<use xlink:href="#SVGID_37_"  style="overflow:visible;"/>
				</clipPath>
				<g class="st31">
					<path class="st11" d="M590.2,106l-19.2-2.7c-4.2-0.6-7.1-5.4-7.2-11.4c-0.1-3.6,0.8-6.7,2.4-9l19.2,2.7c-1.6,2.3-2.5,5.5-2.4,9
						C583.1,100.6,586.1,105.4,590.2,106"/>
					<path class="st10" d="M585.4,85.6l-19.2-2.7c0.5-0.7,1.1-1.3,1.7-1.8l19.2,2.7C586.5,84.3,585.9,84.9,585.4,85.6"/>
					<path class="st9" d="M587.1,83.7L567.9,81c0.6-0.5,1.2-0.9,1.9-1.1l19.2,2.7C588.3,82.9,587.7,83.3,587.1,83.7"/>
					<path class="st7" d="M589,82.6l-19.2-2.7c0.7-0.3,1.4-0.5,2.2-0.5c0.5,0,0.9,0,1.3,0.1l19.2,2.7c-0.4-0.1-0.9-0.1-1.3-0.1
						C590.4,82.2,589.7,82.3,589,82.6"/>
				</g>
			</g>
		</g>
		<g class="st0">
			<g class="st0">
				<defs>
					<path id="SVGID_39_" class="st0" d="M515,160.2l19.2,2.7c11.6,1.6,20.5,9.8,20.9,26.9c0.5,21.5-12.1,29.4-26,30.1l-19.2-2.7
						c13.9-0.7,26.5-8.6,26-30.1C535.6,170,526.6,161.9,515,160.2z"/>
				</defs>
				<clipPath id="SVGID_40_">
					<use xlink:href="#SVGID_39_"  style="overflow:visible;"/>
				</clipPath>
				<g class="st32">
					<path class="st7" d="M529.2,219.9l-19.2-2.7c3.7-0.2,7.3-0.9,10.6-2.2l19.2,2.7C536.5,219,532.9,219.7,529.2,219.9"/>
					<path class="st9" d="M539.8,217.7l-19.2-2.7c2.3-0.9,4.4-2.1,6.3-3.7l19.2,2.7C544.2,215.5,542.1,216.8,539.8,217.7"/>
					<path class="st10" d="M546.1,214l-19.2-2.7c1.5-1.3,2.9-2.7,4.1-4.4l19.2,2.7C549,211.3,547.6,212.7,546.1,214"/>
					<path class="st11" d="M550.2,209.5l-19.2-2.7c3.3-4.7,5.2-11.1,5-19.7c-0.4-17.1-9.3-25.2-20.9-26.9l19.2,2.7
						c11.6,1.6,20.5,9.8,20.9,26.9C555.3,198.4,553.4,204.9,550.2,209.5"/>
				</g>
			</g>
			<g class="st0">
				<defs>
					<path id="SVGID_41_" class="st0" d="M518.8,219.8l-19.2-2.7c2.6,0.4,6.1,0.4,10.3,0.1l19.2,2.7
						C524.9,220.1,521.4,220.1,518.8,219.8z"/>
				</defs>
				<clipPath id="SVGID_42_">
					<use xlink:href="#SVGID_41_"  style="overflow:visible;"/>
				</clipPath>
				<g class="st33">
					<path class="st7" d="M518.8,219.8l-19.2-2.7c2.6,0.4,6.1,0.4,10.3,0.1l19.2,2.7C524.9,220.1,521.4,220.1,518.8,219.8"/>
				</g>
			</g>
			<g class="st0">
				<defs>
					<path id="SVGID_43_" class="st0" d="M514.1,96.8l19.2,2.7c10.1,1.4,16.7,8.2,17,22.7c0.3,14.3-7.7,25.2-21.9,25.9l-19.2-2.7
						c14.2-0.7,22.3-11.7,21.9-25.9C530.8,105,524.2,98.2,514.1,96.8z"/>
				</defs>
				<clipPath id="SVGID_44_">
					<use xlink:href="#SVGID_43_"  style="overflow:visible;"/>
				</clipPath>
				<g class="st34">
					<path class="st7" d="M528.4,148.2l-19.2-2.7c3-0.2,5.6-0.8,8.1-1.7l19.2,2.7C534,147.4,531.4,148,528.4,148.2"/>
					<path class="st9" d="M536.5,146.4l-19.2-2.7c2-0.8,3.8-1.9,5.4-3.2l19.2,2.7C540.3,144.5,538.5,145.6,536.5,146.4"/>
					<path class="st10" d="M541.9,143.2l-19.2-2.7c1.5-1.2,2.8-2.6,3.9-4.2l19.2,2.7C544.6,140.6,543.3,142,541.9,143.2"/>
					<path class="st11" d="M545.7,139l-19.2-2.7c3.1-4.5,4.7-10.3,4.6-16.8c-0.3-14.5-7-21.3-17-22.7l19.2,2.7
						c10.1,1.4,16.7,8.2,17,22.7C550.5,128.7,548.9,134.5,545.7,139"/>
				</g>
			</g>
			<g>
				<polygon class="st2" points="516.2,148.8 497,146.1 509.2,145.4 528.4,148.2 				"/>
			</g>
			<g>
				<polygon class="st1" points="504.8,234.4 485.6,231.6 482.2,86.3 501.4,89 				"/>
			</g>
			<g class="st0">
				<defs>
					<path id="SVGID_45_" class="st0" d="M517.7,82.3l19.2,2.7c-3.3-0.5-6.9-0.6-11-0.4c-9.4,0.5-18.6,2.3-24.4,4.3l-19.2-2.7
						c5.8-2.1,15-3.9,24.4-4.3C510.7,81.7,514.4,81.8,517.7,82.3z"/>
				</defs>
				<clipPath id="SVGID_46_">
					<use xlink:href="#SVGID_45_"  style="overflow:visible;"/>
				</clipPath>
				<g class="st35">
					<path class="st7" d="M501.4,89l-19.2-2.7c5.8-2.1,15-3.9,24.4-4.3c4.1-0.2,7.7-0.1,11,0.4l19.2,2.7c-3.3-0.5-6.9-0.6-11-0.4
						C516.4,85.1,507.2,86.9,501.4,89"/>
				</g>
			</g>
			<g>
				<path class="st3" d="M547,153.3c9.9,3,21.8,14,22.3,36c0.3,12.7-3,22.6-8.1,30.1c-7,9.8-18.6,14.8-35.6,15.7
					c-9.2,0.5-16.4,0-20.9-0.7L501.4,89c5.8-2.1,15-3.9,24.4-4.3c13.4-0.7,22.1,2.1,28.8,9.3c5.5,5.4,9,14,9.2,25.6
					c0.3,14.3-6,27.1-16.8,33.4L547,153.3z M529.2,219.9c13.9-0.7,26.5-8.6,26-30.1c-0.5-20.2-12.8-27.9-27.5-27.1l-11.1,0.6
					l1.3,56.4C520.5,220.1,524.4,220.2,529.2,219.9 M515.1,101.2l1.1,47.6l12.2-0.6c14.2-0.7,22.3-11.7,21.9-25.9
					c-0.4-17.3-9.8-23.6-23.4-22.9C520.8,99.6,517.2,100.4,515.1,101.2"/>
			</g>
		</g>
		<g class="st0">
			<g class="st0">
				<defs>
					<path id="SVGID_47_" class="st0" d="M698.9,100.3l-19.2-2.7c-4.2-0.6-7.1-5.4-7.2-11.4c-0.2-6.8,3.3-12.2,8.2-12.5
						c0.5,0,0.9,0,1.3,0.1l19.2,2.7c-0.4-0.1-0.9-0.1-1.3-0.1c-4.9,0.3-8.4,5.7-8.2,12.5C691.8,95,694.7,99.7,698.9,100.3z"/>
				</defs>
				<clipPath id="SVGID_48_">
					<use xlink:href="#SVGID_47_"  style="overflow:visible;"/>
				</clipPath>
				<g class="st36">
					<path class="st11" d="M698.9,100.3l-19.2-2.7c-4.2-0.6-7.1-5.4-7.2-11.4c-0.1-3.6,0.8-6.7,2.4-9L694,80c-1.6,2.3-2.5,5.5-2.4,9
						C691.8,95,694.7,99.7,698.9,100.3"/>
					<path class="st10" d="M694,80l-19.2-2.7c0.5-0.7,1.1-1.3,1.7-1.8l19.2,2.7C695.1,78.6,694.5,79.2,694,80"/>
					<path class="st9" d="M695.7,78.1l-19.2-2.7c0.6-0.5,1.2-0.9,1.9-1.1l19.2,2.7C697,77.2,696.3,77.6,695.7,78.1"/>
					<path class="st7" d="M697.6,77l-19.2-2.7c0.7-0.3,1.4-0.5,2.2-0.5c0.5,0,0.9,0,1.3,0.1l19.2,2.7c-0.4-0.1-0.9-0.1-1.3-0.1
						C699.1,76.5,698.3,76.7,697.6,77"/>
				</g>
			</g>
			<g>
				<path class="st3" d="M700.1,100.4c-4.8,0.2-8.3-4.8-8.5-11.4c-0.2-6.8,3.3-12.2,8.2-12.5c5.1-0.3,8.4,4.8,8.6,11.6
					C708.8,94.7,705.5,100.1,700.1,100.4z"/>
			</g>
		</g>
		<g class="st0">
			<g>
				<polygon class="st1" points="868.4,209.5 849.2,206.8 848.9,195 868.1,197.7 				"/>
			</g>
			<g>
				<polygon class="st1" points="867.3,170.7 848.1,168 847.7,148.9 866.9,151.7 				"/>
			</g>
			<g>
				<polygon class="st2" points="868,109.7 848.9,107 860.7,106.3 879.9,109.1 				"/>
			</g>
			<g>
				<polygon class="st1" points="867.5,125.7 848.3,123 848.9,107 868,109.7 				"/>
			</g>
			<g class="st0">
				<defs>
					<path id="SVGID_49_" class="st0" d="M839,247.6l-19.2-2.7c2,0.3,4,0.4,6.2,0.3c13.9-0.7,23.8-11.6,23.2-38.3l19.2,2.7
						c0.6,26.7-9.3,37.6-23.2,38.3C843.1,248,841,247.9,839,247.6z"/>
				</defs>
				<clipPath id="SVGID_50_">
					<use xlink:href="#SVGID_49_"  style="overflow:visible;"/>
				</clipPath>
				<g class="st37">
					<path class="st7" d="M839,247.6l-19.2-2.7c2,0.3,4,0.4,6.2,0.3c2.7-0.1,5.3-0.7,7.7-1.6l19.2,2.7c-2.4,1-4.9,1.5-7.7,1.6
						C843.1,248,841,247.9,839,247.6"/>
					<path class="st9" d="M852.9,246.2l-19.2-2.7c1.8-0.7,3.5-1.8,5.1-3l19.2,2.7C856.4,244.5,854.7,245.5,852.9,246.2"/>
					<path class="st10" d="M858,243.2l-19.2-2.7c1.5-1.2,2.8-2.6,4-4.4l19.2,2.7C860.8,240.5,859.5,242,858,243.2"/>
					<path class="st11" d="M862,238.8l-19.2-2.7c4.3-6.1,6.7-15.6,6.4-29.3l19.2,2.7C868.7,223.2,866.3,232.7,862,238.8"/>
				</g>
			</g>
			<g class="st0">
				<defs>
					<path id="SVGID_51_" class="st0" d="M844.8,201.7l-19.2-2.7c1.1,0.2,2.2,0.2,3.3,0.1c8.3-0.4,15.7-8.3,18.3-20.7
						c0.7-3.3,0.9-7.1,0.8-10.4l19.2,2.7c0.1,3.3-0.1,7-0.8,10.4c-2.6,12.4-10,20.3-18.3,20.7C847,201.9,845.9,201.8,844.8,201.7z"
						/>
				</defs>
				<clipPath id="SVGID_52_">
					<use xlink:href="#SVGID_51_"  style="overflow:visible;"/>
				</clipPath>
				<g class="st38">
					<path class="st7" d="M844.8,201.7l-19.2-2.7c1.1,0.2,2.2,0.2,3.3,0.1c1.6-0.1,3.2-0.4,4.7-1.1l19.2,2.7c-1.5,0.6-3.1,1-4.7,1.1
						C847,201.9,845.9,201.8,844.8,201.7"/>
					<path class="st9" d="M852.8,200.8l-19.2-2.7c1.5-0.6,3-1.5,4.4-2.6l19.2,2.7C855.8,199.3,854.3,200.1,852.8,200.8"/>
					<path class="st10" d="M857.2,198.1l-19.2-2.7c1.5-1.2,2.9-2.7,4.1-4.5l19.2,2.7C860,195.4,858.7,196.9,857.2,198.1"/>
					<path class="st11" d="M861.3,193.6l-19.2-2.7c2.3-3.3,4.1-7.6,5.2-12.5c0.7-3.3,0.9-7.1,0.8-10.4l19.2,2.7
						c0.1,3.3-0.1,7-0.8,10.4C865.4,186.1,863.6,190.3,861.3,193.6"/>
				</g>
			</g>
			<g class="st0">
				<defs>
					<path id="SVGID_53_" class="st0" d="M830.2,120.9l19.2,2.7c8.3,1.2,14.1,9.3,16.5,19.3c0.7,2.6,0.9,5.4,1,8.7l-19.2-2.7
						c-0.1-3.3-0.3-6.1-1-8.7C844.2,130.3,838.5,122.1,830.2,120.9z"/>
				</defs>
				<clipPath id="SVGID_54_">
					<use xlink:href="#SVGID_53_"  style="overflow:visible;"/>
				</clipPath>
				<g class="st39">
					<path class="st11" d="M866.9,151.7l-19.2-2.7c-0.1-3.3-0.3-6.1-1-8.7c-2.5-9.9-8.2-18.1-16.5-19.3l19.2,2.7
						c8.3,1.2,14.1,9.3,16.5,19.3C866.6,145.5,866.8,148.4,866.9,151.7"/>
				</g>
			</g>
			<g>
				<polygon class="st27" points="820.1,255.5 800.9,252.8 803.9,237.9 823.1,240.7 				"/>
			</g>
			<g class="st0">
				<defs>
					<path id="SVGID_55_" class="st0" d="M837.1,262.6l-19.2-2.7c-6.4-0.9-12.7-3.3-17-7.1l19.2,2.7
						C824.4,259.3,830.7,261.7,837.1,262.6z"/>
				</defs>
				<clipPath id="SVGID_56_">
					<use xlink:href="#SVGID_55_"  style="overflow:visible;"/>
				</clipPath>
				<g class="st40">
					<path class="st11" d="M837.1,262.6l-19.2-2.7c-6.4-0.9-12.7-3.3-17-7.1l19.2,2.7C824.4,259.3,830.7,261.7,837.1,262.6"/>
				</g>
			</g>
			<g class="st0">
				<defs>
					<path id="SVGID_57_" class="st0" d="M840.2,216.5l-19.2-2.7c-16.3-2.3-28.1-22.8-28.7-49.9c-0.8-36,15.2-57.2,32.3-58.1
						c1.6-0.1,3.1,0,4.6,0.2l19.2,2.7c-1.4-0.2-3-0.3-4.6-0.2c-17.1,0.9-33.1,22.1-32.3,58.1C812.2,193.7,823.9,214.2,840.2,216.5z"
						/>
				</defs>
				<clipPath id="SVGID_58_">
					<use xlink:href="#SVGID_57_"  style="overflow:visible;"/>
				</clipPath>
				<g class="st41">
					<path class="st11" d="M840.2,216.5l-19.2-2.7c-16.3-2.3-28.1-22.8-28.7-49.9c-0.5-19.5,4.1-34.7,11-44.7l19.2,2.7
						c-7,9.9-11.5,25.1-11,44.7C812.2,193.7,823.9,214.2,840.2,216.5"/>
					<path class="st10" d="M822.5,121.9l-19.2-2.7c2.1-3,4.4-5.5,6.8-7.5l19.2,2.7C826.9,116.5,824.6,119,822.5,121.9"/>
					<path class="st9" d="M829.3,114.5l-19.2-2.7c2.2-1.8,4.6-3.3,7.1-4.3l19.2,2.7C834,111.2,831.6,112.6,829.3,114.5"/>
					<path class="st7" d="M836.4,110.2l-19.2-2.7c2.4-1,4.9-1.5,7.4-1.7c1.6-0.1,3.1,0,4.6,0.2l19.2,2.7c-1.4-0.2-3-0.3-4.6-0.2
						C841.3,108.6,838.8,109.2,836.4,110.2"/>
				</g>
			</g>
			<g>
				<path class="st3" d="M868,109.7l11.9-0.6c-0.1,7.7-0.2,16.3,0.1,29.2l1.4,61.6c0.6,24.3-2.5,39.4-9.5,49
					c-7,10-17.4,13.6-26.8,14.1c-8.9,0.5-18.9-2.1-25-7.5l3-14.9c5,4.1,12.8,7.7,22.1,7.2c13.9-0.7,23.8-11.6,23.2-38.3l-0.3-11.8
					c-4.2,10.1-12.1,18.4-23.6,19c-18.5,1-32.3-20.7-33-50.1c-0.8-36,15.2-57.2,32.3-58.1c13-0.7,20.3,8.6,23.7,17.2L868,109.7z
					 M867.3,170.7l-0.4-19.1c-0.1-3.3-0.3-6.1-1-8.7c-2.7-11-9.6-19.9-19.4-19.4c-13,0.7-21.8,16.7-21.3,41.3
					c0.5,20.8,8.3,37.8,22.9,37c8.3-0.4,15.7-8.3,18.3-20.7C867.2,177.8,867.4,174,867.3,170.7"/>
			</g>
		</g>
		<g class="st0">
			<g>
				<polygon class="st1" points="782.5,220.4 763.3,217.6 761.9,156.5 781.1,159.2 				"/>
			</g>
			<g class="st0">
				<defs>
					<path id="SVGID_59_" class="st0" d="M746.9,126.1l19.2,2.7c10.6,1.5,14.7,14.6,15.1,30.3l-19.2-2.7
						C761.5,140.7,757.4,127.6,746.9,126.1z"/>
				</defs>
				<clipPath id="SVGID_60_">
					<use xlink:href="#SVGID_59_"  style="overflow:visible;"/>
				</clipPath>
				<g class="st42">
					<path class="st11" d="M781.1,159.2l-19.2-2.7c-0.4-15.7-4.5-28.8-15.1-30.3l19.2,2.7C776.6,130.3,780.7,143.5,781.1,159.2"/>
				</g>
			</g>
			<g class="st0">
				<defs>
					<path id="SVGID_61_" class="st0" d="M751.7,109.9l19.2,2.7c-1.3-0.2-2.5-0.2-3.7-0.2l-19.2-2.7
						C749.2,109.7,750.4,109.8,751.7,109.9z"/>
				</defs>
				<clipPath id="SVGID_62_">
					<use xlink:href="#SVGID_61_"  style="overflow:visible;"/>
				</clipPath>
				<g class="st43">
					<path class="st7" d="M767.2,112.5l-19.2-2.7c1.2-0.1,2.4,0,3.7,0.2l19.2,2.7C769.6,112.5,768.3,112.4,767.2,112.5"/>
				</g>
			</g>
			<g class="st0">
				<defs>
					<path id="SVGID_63_" class="st0" d="M743,133.7l-19.2-2.7c3.5-10.3,11.9-20.6,24.2-21.2l19.2,2.7
						C754.9,113.1,746.5,123.4,743,133.7z"/>
				</defs>
				<clipPath id="SVGID_64_">
					<use xlink:href="#SVGID_63_"  style="overflow:visible;"/>
				</clipPath>
				<g class="st44">
					<path class="st11" d="M743,133.7l-19.2-2.7c1.1-3.3,2.7-6.6,4.8-9.6l19.2,2.7C745.7,127.1,744.1,130.4,743,133.7"/>
					<path class="st10" d="M747.8,124.2l-19.2-2.7c1.6-2.3,3.5-4.4,5.7-6.2l19.2,2.7C751.3,119.7,749.4,121.9,747.8,124.2"/>
					<path class="st9" d="M753.5,118l-19.2-2.7c1.9-1.6,4-2.9,6.4-3.8l19.2,2.7C757.5,115.1,755.4,116.4,753.5,118"/>
					<path class="st7" d="M759.8,114.1l-19.2-2.7c2.3-0.9,4.7-1.5,7.3-1.6l19.2,2.7C764.6,112.6,762.1,113.2,759.8,114.1"/>
				</g>
			</g>
			<g>
				<polygon class="st2" points="742.7,133.7 723.5,131 723.8,131 743,133.7 				"/>
			</g>
			<g>
				<polygon class="st1" points="732.6,223 713.4,220.2 711.6,142.8 730.8,145.6 				"/>
			</g>
			<g>
				<polygon class="st2" points="729.5,116.9 710.3,114.1 722.3,113.5 741.5,116.2 				"/>
			</g>
			<g class="st0">
				<defs>
					<path id="SVGID_65_" class="st0" d="M730.8,145.6l-19.2-2.7c-0.3-11-0.6-19.9-1.3-28.7l19.2,2.7
						C730.2,125.6,730.5,134.6,730.8,145.6z"/>
				</defs>
				<clipPath id="SVGID_66_">
					<use xlink:href="#SVGID_65_"  style="overflow:visible;"/>
				</clipPath>
				<g class="st45">
					<path class="st11" d="M730.8,145.6l-19.2-2.7c-0.3-11-0.6-19.9-1.3-28.7l19.2,2.7C730.2,125.6,730.5,134.6,730.8,145.6"/>
				</g>
			</g>
			<g>
				<path class="st3" d="M767.2,112.5c10.3-0.5,26.6,7.4,27.4,43.8l1.5,63.4l-13.6,0.7l-1.4-61.2c-0.4-17.1-5.2-31.1-18-30.5
					c-8.9,0.5-15.7,9.8-17.7,20.7c-0.6,2.4-0.8,5.7-0.7,9l1.5,63.8l-13.6,0.7l-1.8-77.4c-0.3-11-0.6-19.9-1.3-28.7l12-0.6l1.2,17.5
					l0.3,0C746.5,123.4,754.9,113.1,767.2,112.5z"/>
			</g>
		</g>
		<g class="st0">
			<g>
				<polygon class="st1" points="1317.8,186.2 1298.6,183.5 1298.3,171.6 1317.5,174.4 				"/>
			</g>
			<g>
				<polygon class="st1" points="1316.7,147.4 1297.5,144.7 1297.1,125.6 1316.3,128.3 				"/>
			</g>
			<g>
				<polygon class="st2" points="1317.4,86.3 1298.2,83.6 1310.1,83 1329.3,85.7 				"/>
			</g>
			<g>
				<polygon class="st1" points="1316.9,102.4 1297.7,99.7 1298.2,83.6 1317.4,86.3 				"/>
			</g>
			<g class="st0">
				<defs>
					<path id="SVGID_67_" class="st0" d="M1288.4,224.2l-19.2-2.7c2,0.3,4,0.4,6.2,0.3c13.9-0.7,23.8-11.6,23.2-38.3l19.2,2.7
						c0.6,26.7-9.3,37.6-23.2,38.3C1292.5,224.6,1290.4,224.5,1288.4,224.2z"/>
				</defs>
				<clipPath id="SVGID_68_">
					<use xlink:href="#SVGID_67_"  style="overflow:visible;"/>
				</clipPath>
				<g class="st46">
					<path class="st7" d="M1288.4,224.2l-19.2-2.7c2,0.3,4,0.4,6.2,0.3c2.7-0.1,5.3-0.7,7.7-1.6l19.2,2.7c-2.4,1-4.9,1.5-7.7,1.6
						C1292.5,224.6,1290.4,224.5,1288.4,224.2"/>
					<path class="st9" d="M1302.3,222.9l-19.2-2.7c1.8-0.7,3.5-1.8,5.1-3l19.2,2.7C1305.8,221.1,1304.1,222.1,1302.3,222.9"/>
					<path class="st10" d="M1307.4,219.8l-19.2-2.7c1.5-1.2,2.8-2.6,4-4.4l19.2,2.7C1310.2,217.2,1308.9,218.6,1307.4,219.8"/>
					<path class="st11" d="M1311.4,215.5l-19.2-2.7c4.3-6.1,6.7-15.6,6.4-29.3l19.2,2.7C1318.1,199.8,1315.7,209.3,1311.4,215.5"/>
				</g>
			</g>
			<g class="st0">
				<defs>
					<path id="SVGID_69_" class="st0" d="M1294.2,178.3l-19.2-2.7c1.1,0.2,2.2,0.2,3.3,0.1c8.3-0.4,15.7-8.3,18.3-20.7
						c0.7-3.3,0.9-7.1,0.8-10.4l19.2,2.7c0.1,3.3-0.1,7-0.8,10.4c-2.6,12.4-10,20.3-18.3,20.7
						C1296.4,178.5,1295.3,178.5,1294.2,178.3z"/>
				</defs>
				<clipPath id="SVGID_70_">
					<use xlink:href="#SVGID_69_"  style="overflow:visible;"/>
				</clipPath>
				<g class="st47">
					<path class="st7" d="M1294.2,178.3l-19.2-2.7c1.1,0.2,2.2,0.2,3.3,0.1c1.6-0.1,3.2-0.4,4.7-1.1l19.2,2.7
						c-1.5,0.6-3.1,1-4.7,1.1C1296.4,178.5,1295.3,178.5,1294.2,178.3"/>
					<path class="st9" d="M1302.2,177.4l-19.2-2.7c1.5-0.6,3-1.5,4.4-2.6l19.2,2.7C1305.2,175.9,1303.7,176.8,1302.2,177.4"/>
					<path class="st10" d="M1306.6,174.8l-19.2-2.7c1.5-1.2,2.9-2.7,4.1-4.5l19.2,2.7C1309.4,172.1,1308.1,173.6,1306.6,174.8"/>
					<path class="st11" d="M1310.7,170.3l-19.2-2.7c2.3-3.3,4.1-7.6,5.2-12.5c0.7-3.3,0.9-7.1,0.8-10.4l19.2,2.7
						c0.1,3.3-0.1,7-0.8,10.4C1314.8,162.7,1313,167,1310.7,170.3"/>
				</g>
			</g>
			<g class="st0">
				<defs>
					<path id="SVGID_71_" class="st0" d="M1279.6,97.6l19.2,2.7c8.3,1.2,14.1,9.3,16.5,19.3c0.7,2.6,0.9,5.4,1,8.7l-19.2-2.7
						c-0.1-3.3-0.3-6.1-1-8.7C1293.6,106.9,1287.9,98.8,1279.6,97.6z"/>
				</defs>
				<clipPath id="SVGID_72_">
					<use xlink:href="#SVGID_71_"  style="overflow:visible;"/>
				</clipPath>
				<g class="st48">
					<path class="st11" d="M1316.3,128.3l-19.2-2.7c-0.1-3.3-0.3-6.1-1-8.7c-2.5-9.9-8.2-18.1-16.5-19.3l19.2,2.7
						c8.3,1.2,14.1,9.3,16.5,19.3C1316,122.2,1316.2,125,1316.3,128.3"/>
				</g>
			</g>
			<g>
				<polygon class="st27" points="1269.5,232.2 1250.3,229.5 1253.3,214.6 1272.5,217.3 				"/>
			</g>
			<g class="st0">
				<defs>
					<path id="SVGID_73_" class="st0" d="M1286.5,239.3l-19.2-2.7c-6.4-0.9-12.7-3.3-17-7.1l19.2,2.7
						C1273.8,236,1280.1,238.4,1286.5,239.3z"/>
				</defs>
				<clipPath id="SVGID_74_">
					<use xlink:href="#SVGID_73_"  style="overflow:visible;"/>
				</clipPath>
				<g class="st49">
					<path class="st11" d="M1286.5,239.3l-19.2-2.7c-6.4-0.9-12.7-3.3-17-7.1l19.2,2.7C1273.8,236,1280.1,238.4,1286.5,239.3"/>
				</g>
			</g>
			<g class="st0">
				<defs>
					<path id="SVGID_75_" class="st0" d="M1289.6,193.2l-19.2-2.7c-16.3-2.3-28.1-22.8-28.7-49.9c-0.8-36,15.2-57.2,32.3-58.1
						c1.6-0.1,3.1,0,4.6,0.2l19.2,2.7c-1.4-0.2-3-0.3-4.6-0.2c-17.1,0.9-33.1,22.1-32.3,58.1
						C1261.5,170.4,1273.3,190.9,1289.6,193.2z"/>
				</defs>
				<clipPath id="SVGID_76_">
					<use xlink:href="#SVGID_75_"  style="overflow:visible;"/>
				</clipPath>
				<g class="st50">
					<path class="st11" d="M1289.6,193.2l-19.2-2.7c-16.3-2.3-28.1-22.8-28.7-49.9c-0.5-19.5,4.1-34.7,11-44.7l19.2,2.7
						c-7,9.9-11.5,25.1-11,44.7C1261.5,170.4,1273.3,190.9,1289.6,193.2"/>
					<path class="st10" d="M1271.9,98.6l-19.2-2.7c2.1-3,4.4-5.5,6.8-7.5l19.2,2.7C1276.3,93.1,1274,95.6,1271.9,98.6"/>
					<path class="st9" d="M1278.7,91.1l-19.2-2.7c2.2-1.8,4.6-3.3,7.1-4.3l19.2,2.7C1283.4,87.8,1281,89.3,1278.7,91.1"/>
					<path class="st7" d="M1285.8,86.8l-19.2-2.7c2.4-1,4.9-1.5,7.4-1.7c1.6-0.1,3.1,0,4.6,0.2l19.2,2.7c-1.4-0.2-3-0.3-4.6-0.2
						C1290.7,85.3,1288.2,85.9,1285.8,86.8"/>
				</g>
			</g>
			<g>
				<path class="st3" d="M1317.4,86.3l11.9-0.6c-0.1,7.7-0.2,16.3,0.1,29.2l1.4,61.6c0.6,24.3-2.5,39.4-9.5,49
					c-7,10-17.4,13.6-26.8,14.1c-8.9,0.5-18.9-2.1-25-7.5l3-14.9c5,4.1,12.8,7.7,22.1,7.2c13.9-0.7,23.8-11.6,23.2-38.3l-0.3-11.8
					c-4.2,10.1-12.1,18.4-23.6,19c-18.5,1-32.3-20.7-33-50.1c-0.8-36,15.2-57.2,32.3-58.1c12.9-0.7,20.3,8.6,23.7,17.2L1317.4,86.3z
					 M1316.7,147.4l-0.4-19.1c-0.1-3.3-0.3-6.1-1-8.7c-2.7-11-9.6-19.9-19.4-19.4c-12.9,0.7-21.8,16.7-21.2,41.3
					c0.5,20.8,8.3,37.8,22.9,37c8.3-0.4,15.7-8.3,18.3-20.7C1316.6,154.4,1316.8,150.7,1316.7,147.4"/>
			</g>
		</g>
		<g class="st0">
			<g>
				<polygon class="st1" points="1231.9,197 1212.7,194.3 1211.3,133.1 1230.5,135.9 				"/>
			</g>
			<g class="st0">
				<defs>
					<path id="SVGID_77_" class="st0" d="M1196.2,102.8l19.2,2.7c10.6,1.5,14.7,14.6,15,30.3l-19.2-2.7
						C1210.9,117.4,1206.8,104.3,1196.2,102.8z"/>
				</defs>
				<clipPath id="SVGID_78_">
					<use xlink:href="#SVGID_77_"  style="overflow:visible;"/>
				</clipPath>
				<g class="st51">
					<path class="st11" d="M1230.5,135.9l-19.2-2.7c-0.4-15.7-4.5-28.8-15-30.3l19.2,2.7C1226,107,1230.1,120.1,1230.5,135.9"/>
				</g>
			</g>
			<g class="st0">
				<defs>
					<path id="SVGID_79_" class="st0" d="M1201.1,86.6l19.2,2.7c-1.3-0.2-2.5-0.2-3.7-0.2l-19.2-2.7
						C1198.6,86.4,1199.8,86.4,1201.1,86.6z"/>
				</defs>
				<clipPath id="SVGID_80_">
					<use xlink:href="#SVGID_79_"  style="overflow:visible;"/>
				</clipPath>
				<g class="st52">
					<path class="st7" d="M1216.6,89.2l-19.2-2.7c1.2-0.1,2.4,0,3.7,0.2l19.2,2.7C1219,89.1,1217.7,89.1,1216.6,89.2"/>
				</g>
			</g>
			<g class="st0">
				<defs>
					<path id="SVGID_81_" class="st0" d="M1192.4,110.4l-19.2-2.7c3.5-10.3,11.9-20.6,24.2-21.2l19.2,2.7
						C1204.3,89.8,1195.9,100.1,1192.4,110.4z"/>
				</defs>
				<clipPath id="SVGID_82_">
					<use xlink:href="#SVGID_81_"  style="overflow:visible;"/>
				</clipPath>
				<g class="st53">
					<path class="st11" d="M1192.4,110.4l-19.2-2.7c1.1-3.3,2.7-6.6,4.8-9.6l19.2,2.7C1195.1,103.8,1193.5,107.1,1192.4,110.4"/>
					<path class="st10" d="M1197.2,100.8l-19.2-2.7c1.6-2.3,3.5-4.4,5.7-6.2l19.2,2.7C1200.7,96.4,1198.8,98.5,1197.2,100.8"/>
					<path class="st9" d="M1202.9,94.6l-19.2-2.7c1.9-1.6,4-2.9,6.4-3.8l19.2,2.7C1206.9,91.7,1204.8,93,1202.9,94.6"/>
					<path class="st7" d="M1209.2,90.8l-19.2-2.7c2.3-0.9,4.7-1.5,7.3-1.6l19.2,2.7C1214,89.3,1211.5,89.9,1209.2,90.8"/>
				</g>
			</g>
			<g>
				<polygon class="st2" points="1192.1,110.4 1172.9,107.7 1173.2,107.7 1192.4,110.4 				"/>
			</g>
			<g>
				<polygon class="st1" points="1182,199.6 1162.8,196.9 1161,119.5 1180.2,122.2 				"/>
			</g>
			<g>
				<polygon class="st2" points="1178.9,93.5 1159.7,90.8 1171.7,90.2 1190.9,92.9 				"/>
			</g>
			<g class="st0">
				<defs>
					<path id="SVGID_83_" class="st0" d="M1180.2,122.2l-19.2-2.7c-0.3-11-0.6-19.9-1.3-28.7l19.2,2.7
						C1179.6,102.3,1179.9,111.3,1180.2,122.2z"/>
				</defs>
				<clipPath id="SVGID_84_">
					<use xlink:href="#SVGID_83_"  style="overflow:visible;"/>
				</clipPath>
				<g class="st54">
					<path class="st11" d="M1180.2,122.2l-19.2-2.7c-0.3-11-0.6-19.9-1.3-28.7l19.2,2.7C1179.6,102.3,1179.9,111.3,1180.2,122.2"/>
				</g>
			</g>
			<g>
				<path class="st3" d="M1216.6,89.2c10.3-0.5,26.6,7.4,27.4,43.8l1.5,63.4l-13.6,0.7l-1.4-61.2c-0.4-17.1-5.2-31.1-18-30.5
					c-8.9,0.5-15.7,9.8-17.7,20.7c-0.6,2.4-0.8,5.7-0.7,9l1.5,63.8l-13.6,0.7l-1.8-77.4c-0.3-11-0.6-19.9-1.3-28.7l12-0.6l1.2,17.5
					l0.3,0C1195.9,100.1,1204.3,89.8,1216.6,89.2z"/>
			</g>
		</g>
		<g class="st0">
			<g>
				<polygon class="st4" points="1149,201.3 1129.8,198.6 1128.4,185.3 1147.6,188 				"/>
			</g>
			<g>
				<polygon class="st1" points="1146.2,165.7 1127,163 1126.6,144.6 1145.7,147.3 				"/>
			</g>
			<g>
				<polygon class="st1" points="1145.1,133.9 1125.9,131.2 1125.9,129 1145.1,131.7 				"/>
			</g>
			<g class="st0">
				<defs>
					<path id="SVGID_85_" class="st0" d="M1125.7,190.5l-19.2-2.7c0.7,0.1,1.5,0.1,2.2,0.1c9.7-0.5,15.7-9.6,17.6-18.7
						c0.4-2,0.7-4.2,0.6-6.2l19.2,2.7c0,2-0.2,4.2-0.6,6.2c-1.9,9.1-7.9,18.2-17.6,18.7C1127.2,190.6,1126.4,190.6,1125.7,190.5z"/>
				</defs>
				<clipPath id="SVGID_86_">
					<use xlink:href="#SVGID_85_"  style="overflow:visible;"/>
				</clipPath>
				<g class="st55">
					<path class="st7" d="M1125.7,190.5l-19.2-2.7c0.7,0.1,1.5,0.1,2.2,0.1c1.8-0.1,3.5-0.5,5-1.1l19.2,2.7c-1.5,0.6-3.2,1-5,1.1
						C1127.2,190.6,1126.4,190.6,1125.7,190.5"/>
					<path class="st9" d="M1132.9,189.5l-19.2-2.7c1.5-0.6,2.9-1.5,4.2-2.5l19.2,2.7C1135.9,188,1134.5,188.8,1132.9,189.5"/>
					<path class="st10" d="M1137.1,186.9l-19.2-2.7c1.4-1.2,2.7-2.6,3.8-4.2l19.2,2.7C1139.8,184.3,1138.6,185.8,1137.1,186.9"/>
					<path class="st11" d="M1140.9,182.8l-19.2-2.7c2.2-3.2,3.8-7,4.6-10.9c0.4-2,0.7-4.2,0.6-6.2l19.2,2.7c0,2-0.2,4.2-0.6,6.2
						C1144.7,175.7,1143.2,179.6,1140.9,182.8"/>
				</g>
			</g>
			<g class="st0">
				<defs>
					<path id="SVGID_87_" class="st0" d="M1112,105.5l19.2,2.7c12,1.7,13.7,15.5,13.9,23.5l-19.2-2.7
						C1125.7,121,1123.9,107.2,1112,105.5z"/>
				</defs>
				<clipPath id="SVGID_88_">
					<use xlink:href="#SVGID_87_"  style="overflow:visible;"/>
				</clipPath>
				<g class="st56">
					<path class="st11" d="M1145.1,131.7l-19.2-2.7c-0.2-8-1.9-21.8-13.9-23.5l19.2,2.7C1143.1,109.9,1144.9,123.7,1145.1,131.7"/>
				</g>
			</g>
			<g class="st0">
				<defs>
					<path id="SVGID_89_" class="st0" d="M1120.7,204.8l-19.2-2.7c-12.5-1.8-19.2-15.2-19.5-29.1c-0.6-25.5,14.9-40.3,43.3-41.8
						c0.2,0,0.4,0,0.7,0l19.2,2.7c-0.2,0-0.4,0-0.7,0c-28.4,1.5-43.9,16.3-43.3,41.8C1101.5,189.7,1108.2,203.1,1120.7,204.8z"/>
				</defs>
				<clipPath id="SVGID_90_">
					<use xlink:href="#SVGID_89_"  style="overflow:visible;"/>
				</clipPath>
				<g class="st57">
					<path class="st11" d="M1120.7,204.8l-19.2-2.7c-12.5-1.8-19.2-15.2-19.5-29.1c-0.2-10.1,2-18.5,6.6-25.1l19.2,2.7
						c-4.6,6.6-6.9,15-6.6,25.1C1101.5,189.7,1108.2,203.1,1120.7,204.8"/>
					<path class="st10" d="M1107.8,150.6l-19.2-2.7c1.7-2.5,3.8-4.7,6.1-6.6l19.2,2.7C1111.6,146,1109.6,148.2,1107.8,150.6"/>
					<path class="st9" d="M1114,144l-19.2-2.7c2.9-2.4,6.3-4.4,10.2-6l19.2,2.7C1120.3,139.7,1116.9,141.7,1114,144"/>
					<path class="st7" d="M1124.1,138.1l-19.2-2.7c5.8-2.3,12.6-3.7,20.3-4.1c0.2,0,0.4,0,0.7,0l19.2,2.7c-0.2,0-0.4,0-0.7,0
						C1136.7,134.4,1129.9,135.8,1124.1,138.1"/>
				</g>
			</g>
			<g>
				<polygon class="st4" points="1108.3,116.9 1089.1,114.2 1085.7,101.7 1104.9,104.4 				"/>
			</g>
			<g class="st0">
				<defs>
					<path id="SVGID_91_" class="st0" d="M1115.8,91.2l19.2,2.7c-1.8-0.3-3.7-0.3-5.8-0.2c-9.4,0.5-18.2,4.7-24.3,10.7l-19.2-2.7
						c6-6,14.9-10.2,24.3-10.7C1112.1,90.9,1114,90.9,1115.8,91.2z"/>
				</defs>
				<clipPath id="SVGID_92_">
					<use xlink:href="#SVGID_91_"  style="overflow:visible;"/>
				</clipPath>
				<g class="st58">
					<path class="st10" d="M1104.9,104.4l-19.2-2.7c0.8-0.8,1.6-1.5,2.5-2.2l19.2,2.7C1106.5,102.9,1105.7,103.6,1104.9,104.4"/>
					<path class="st9" d="M1107.4,102.2l-19.2-2.7c2.8-2.3,6.1-4.3,9.6-5.7l19.2,2.7C1113.5,97.9,1110.2,99.8,1107.4,102.2"/>
					<path class="st7" d="M1117,96.4l-19.2-2.7c3.8-1.6,7.9-2.5,12.2-2.7c2.1-0.1,4,0,5.8,0.2l19.2,2.7c-1.8-0.3-3.7-0.3-5.8-0.2
						C1125,93.9,1120.8,94.9,1117,96.4"/>
				</g>
			</g>
			<g>
				<path class="st3" d="M1159.5,175.3c0.2,9.2,0.7,18.2,1.8,25.4l-12.3,0.6l-1.4-13.3l-0.5,0c-4,8.6-11.8,16.4-22.4,17
					c-15.1,0.8-23.2-13.9-23.5-29.3c-0.6-25.5,14.9-40.3,43.3-41.8c0.2,0,0.4,0,0.7,0l-0.1-2.2c-0.2-8.8-2.3-24.5-17.5-23.7
					c-6.9,0.4-14.1,3.8-19.2,8.9l-3.4-12.6c6-6,14.9-10.2,24.3-10.7c22.8-1.2,28.9,20.7,29.4,41.9L1159.5,175.3z M1146.2,165.7
					l-0.4-18.4c-0.7,0-1.4,0-2.2,0.1c-14.2,0.7-29.3,5.8-28.9,25.5c0.3,12.5,6.3,18.1,13.2,17.8c9.7-0.5,15.7-9.6,17.6-18.7
					C1146,169.9,1146.2,167.7,1146.2,165.7"/>
			</g>
		</g>
		<g class="st0">
			<g>
				<polygon class="st1" points="1072.1,205.3 1052.9,202.6 1051.5,141.7 1070.7,144.4 				"/>
			</g>
			<g class="st0">
				<defs>
					<path id="SVGID_93_" class="st0" d="M1036.4,111.1l19.2,2.7c10.6,1.5,14.7,14.8,15.1,30.6l-19.2-2.7
						C1051.1,125.9,1047,112.6,1036.4,111.1z"/>
				</defs>
				<clipPath id="SVGID_94_">
					<use xlink:href="#SVGID_93_"  style="overflow:visible;"/>
				</clipPath>
				<g class="st59">
					<path class="st11" d="M1070.7,144.4l-19.2-2.7c-0.4-15.7-4.5-29.1-15.1-30.6l19.2,2.7C1066.2,115.3,1070.3,128.6,1070.7,144.4"
						/>
				</g>
			</g>
			<g class="st0">
				<defs>
					<path id="SVGID_95_" class="st0" d="M1041.4,94.9l19.2,2.7c-1.2-0.2-2.4-0.2-3.5-0.2c-5.1,0.3-9.8,2.7-13.7,6.2l-19.2-2.7
						c3.9-3.5,8.7-5.9,13.7-6.2C1039,94.7,1040.2,94.7,1041.4,94.9z"/>
				</defs>
				<clipPath id="SVGID_96_">
					<use xlink:href="#SVGID_95_"  style="overflow:visible;"/>
				</clipPath>
				<g class="st60">
					<path class="st10" d="M1043.3,103.6l-19.2-2.7c0.3-0.3,0.6-0.5,0.9-0.8l19.2,2.7C1044,103.1,1043.6,103.4,1043.3,103.6"/>
					<path class="st9" d="M1044.3,102.8l-19.2-2.7c2-1.6,4.2-3,6.5-4l19.2,2.7C1048.5,99.8,1046.3,101.2,1044.3,102.8"/>
					<path class="st7" d="M1050.8,98.9l-19.2-2.7c2-0.8,4.1-1.3,6.3-1.4c1.1-0.1,2.3,0,3.5,0.2l19.2,2.7c-1.2-0.2-2.4-0.2-3.5-0.2
						C1054.9,97.5,1052.8,98.1,1050.8,98.9"/>
				</g>
			</g>
			<g class="st0">
				<defs>
					<path id="SVGID_97_" class="st0" d="M1033.6,117.8l-19.2-2.7c2.3-5.6,5.6-10.6,9.7-14.1l19.2,2.7
						C1039.2,107.1,1036,112.1,1033.6,117.8z"/>
				</defs>
				<clipPath id="SVGID_98_">
					<use xlink:href="#SVGID_97_"  style="overflow:visible;"/>
				</clipPath>
				<g class="st61">
					<path class="st11" d="M1033.6,117.8l-19.2-2.7c1.2-3,2.8-5.8,4.5-8.3l19.2,2.7C1036.4,112,1034.9,114.8,1033.6,117.8"/>
					<path class="st10" d="M1038.1,109.5l-19.2-2.7c1.5-2.2,3.3-4.2,5.2-5.8l19.2,2.7C1041.4,105.3,1039.7,107.2,1038.1,109.5"/>
				</g>
			</g>
			<g>
				<path class="st3" d="M1032.1,51.5l1.6,66.2c2.3-5.6,5.6-10.6,9.7-14.1c3.9-3.5,8.7-5.9,13.7-6.2c10-0.5,26.3,7.4,27.1,44
					l1.5,63.1l-13.6,0.7l-1.4-61c-0.4-17.1-5.2-31.3-18-30.7c-8.8,0.5-15.5,9.6-17.7,20.2c-0.7,2.7-0.8,5.5-0.7,9.3l1.5,64
					l-13.6,0.7l-3.7-155.7L1032.1,51.5z"/>
			</g>
			<g>
				<polygon class="st1" points="1022.2,207.9 1003,205.2 999.3,49.5 1018.5,52.2 				"/>
			</g>
			<g>
				<polygon class="st2" points="1018.5,52.2 999.3,49.5 1012.9,48.8 1032.1,51.5 				"/>
			</g>
		</g>
		<g class="st0">
			<g>
				<polygon class="st1" points="984.9,78.6 965.7,75.9 965.7,75.2 984.9,77.9 				"/>
			</g>
			<g>
				<polygon class="st2" points="947.7,195.8 928.5,193 986.6,190 1005.8,192.8 				"/>
			</g>
			<g>
				<polygon class="st62" points="930.1,201.5 910.9,198.8 965.7,75.9 984.9,78.6 				"/>
			</g>
			<g>
				<polygon class="st1" points="930.3,212.7 911.1,210 910.9,198.8 930.1,201.5 				"/>
			</g>
			<g>
				<polygon class="st3" points="1001.9,61 1002.2,72.6 947.7,195.1 947.7,195.8 1005.8,192.8 1006.2,208.8 930.3,212.7 
					930.1,201.5 984.9,78.6 984.9,77.9 932.2,80.6 931.8,64.6 				"/>
			</g>
			<g>
				<polygon class="st1" points="932.2,80.6 913,77.9 912.6,61.9 931.8,64.6 				"/>
			</g>
			<g>
				<polygon class="st2" points="931.8,64.6 912.6,61.9 982.7,58.3 1001.9,61 				"/>
			</g>
		</g>
	</g>
</g>
</svg>
